Commissioner-FlairRegular.ufo
<glyph name="numbersign" format="2">
  <advance width="1365.536842105263"/>
  <unicode hex="0023"/>
  <outline>
    <contour>
      <point x="34.526315789473685" y="300.2315789473684" type="line"/>
      <point x="159.83157894736843" y="306.9684210526316"/>
      <point x="278.58947368421053" y="307.5157894736842"/>
      <point x="380.8" y="307.5157894736842" type="curve"/>
      <point x="872.0421052631579" y="307.5157894736842" type="line"/>
      <point x="974.2526315789473" y="307.5157894736842"/>
      <point x="1093.0105263157895" y="306.9684210526316"/>
      <point x="1218.3157894736842" y="300.2315789473684" type="curve"/>
      <point x="1218.3157894736842" y="443.0526315789474" type="line"/>
      <point x="1093.0105263157895" y="436.3157894736842"/>
      <point x="974.2526315789473" y="435.7684210526316"/>
      <point x="872.0421052631579" y="435.7684210526316" type="curve"/>
      <point x="380.8" y="435.7684210526316" type="line"/>
      <point x="278.58947368421053" y="435.7684210526316"/>
      <point x="159.83157894736843" y="436.3157894736842"/>
      <point x="34.526315789473685" y="443.0526315789474" type="curve"/>
    </contour>
    <contour>
      <point x="227.53684210526313" y="0.0" type="curve"/>
      <point x="384.5684210526316" y="0.0" type="line"/>
      <point x="401.2631578947368" y="136.54736842105262"/>
      <point x="424.1684210526316" y="254.92631578947368"/>
      <point x="457.9789473684211" y="423.4736842105263" type="curve"/>
      <point x="549.4105263157895" y="877.3052631578947" type="line"/>
      <point x="584.6736842105263" y="1056.9473684210527"/>
      <point x="609.0315789473684" y="1173.3052631578948"/>
      <point x="647.4105263157895" y="1316.9473684210527" type="curve"/>
      <point x="491.4736842105263" y="1316.9473684210527" type="line"/>
      <point x="472.2315789473684" y="1171.1157894736841"/>
      <point x="450.9684210526316" y="1055.3052631578948"/>
      <point x="415.7052631578947" y="880.2105263157895" type="curve"/>
      <point x="324.2736842105263" y="423.4736842105263" type="line"/>
      <point x="290.46315789473687" y="253.83157894736843"/>
      <point x="262.46315789473687" y="134.3578947368421"/>
    </contour>
    <contour>
      <point x="147.22105263157894" y="867.8947368421053" type="line"/>
      <point x="272.5263157894737" y="874.6315789473684"/>
      <point x="391.2842105263158" y="875.1789473684211"/>
      <point x="493.4947368421053" y="875.1789473684211" type="curve"/>
      <point x="984.7368421052631" y="875.1789473684211" type="line"/>
      <point x="1086.9473684210527" y="875.1789473684211"/>
      <point x="1205.7052631578947" y="874.6315789473684"/>
      <point x="1331.0105263157895" y="867.8947368421053" type="curve"/>
      <point x="1331.0105263157895" y="1010.7157894736841" type="line"/>
      <point x="1205.7052631578947" y="1003.978947368421"/>
      <point x="1086.9473684210527" y="1003.4315789473684"/>
      <point x="984.7368421052631" y="1003.4315789473684" type="curve"/>
      <point x="493.4947368421053" y="1003.4315789473684" type="line"/>
      <point x="391.2842105263158" y="1003.4315789473684"/>
      <point x="272.5263157894737" y="1003.978947368421"/>
      <point x="147.22105263157894" y="1010.7157894736841" type="curve"/>
    </contour>
    <contour>
      <point x="703.957894736842" y="0.0" type="curve"/>
      <point x="860.9894736842106" y="0.0" type="line"/>
      <point x="877.6842105263158" y="136.54736842105262"/>
      <point x="900.5894736842106" y="254.92631578947368"/>
      <point x="934.4" y="423.4736842105263" type="curve"/>
      <point x="1025.8315789473684" y="877.3052631578947" type="line"/>
      <point x="1061.0947368421052" y="1056.9473684210527"/>
      <point x="1085.4526315789474" y="1173.3052631578948"/>
      <point x="1123.8315789473684" y="1316.9473684210527" type="curve"/>
      <point x="967.8947368421052" y="1316.9473684210527" type="line"/>
      <point x="948.6526315789474" y="1171.1157894736841"/>
      <point x="927.3894736842105" y="1055.3052631578948"/>
      <point x="892.1263157894737" y="880.2105263157895" type="curve"/>
      <point x="800.6947368421053" y="423.4736842105263" type="line"/>
      <point x="766.8842105263158" y="253.83157894736843"/>
      <point x="738.8842105263158" y="134.3578947368421"/>
    </contour>
  </outline>
</glyph>
<glyph name="ampersand" format="2">
  <advance width="1472.5977011494253"/>
  <unicode hex="0026"/>
  <outline>
    <contour>
      <point x="1210.6666666666667" y="0.0" type="curve"/>
      <point x="1451.7241379310346" y="0.0" type="line"/>
      <point x="1319.7931034482758" y="120.73563218390805"/>
      <point x="1199.8390804597702" y="242.27586206896552"/>
      <point x="1080.2758620689656" y="363.816091954023" type="curve"/>
      <point x="626.5747126436781" y="821.448275862069" type="line" smooth="yes"/>
      <point x="508.8965517241379" y="938.7126436781609"/>
      <point x="458.04597701149424" y="1019.1494252873563"/>
      <point x="458.04597701149424" y="1119.2413793103449" type="curve" smooth="yes"/>
      <point x="458.04597701149424" y="1235.7471264367816"/>
      <point x="530.5057471264367" y="1317.057471264368"/>
      <point x="651.0344827586207" y="1322.2528735632184" type="curve"/>
      <point x="759.9310344827586" y="1317.057471264368"/>
      <point x="840.7816091954023" y="1245.4022988505747"/>
      <point x="840.7816091954023" y="1133.2643678160919" type="curve" smooth="yes"/>
      <point x="840.7816091954023" y="999.5402298850574"/>
      <point x="713.1034482758621" y="930.6896551724137"/>
      <point x="582.183908045977" y="854.6436781609195" type="curve"/>
      <point x="669.1954022988506" y="750.0689655172414" type="line"/>
      <point x="806.0689655172414" y="832.8735632183908"/>
      <point x="996.0229885057471" y="952.0"/>
      <point x="996.0229885057471" y="1136.8505747126437" type="curve" smooth="yes"/>
      <point x="996.0229885057471" y="1336.0"/>
      <point x="838.9195402298851" y="1452.3908045977012"/>
      <point x="643.8620689655172" y="1452.3908045977012" type="curve" smooth="yes"/>
      <point x="448.367816091954" y="1452.3908045977012"/>
      <point x="290.85057471264366" y="1326.7816091954023"/>
      <point x="290.85057471264366" y="1118.0459770114942" type="curve" smooth="yes"/>
      <point x="290.85057471264366" y="973.2183908045977"/>
      <point x="368.8735632183908" y="864.0229885057471"/>
      <point x="492.91954022988506" y="738.0" type="curve" smooth="yes"/>
      <point x="953.7931034482758" y="272.0" type="line"/>
      <point x="1044.2068965517242" y="182.0"/>
      <point x="1136.6206896551723" y="88.0"/>
    </contour>
    <contour>
      <point x="537.6551724137931" y="-20.39080459770115" type="curve" smooth="yes"/>
      <point x="708.0919540229885" y="-20.39080459770115"/>
      <point x="846.8735632183908" y="64.85057471264368"/>
      <point x="992.0919540229885" y="216.5287356321839" type="curve"/>
      <point x="1017.2873563218391" y="216.5287356321839" type="line"/>
      <point x="1010.0919540229885" y="250.0919540229885" type="line"/>
      <point x="911.471264367816" y="345.0574712643678" type="line"/>
      <point x="788.551724137931" y="192.11494252873564"/>
      <point x="661.7701149425287" y="121.70114942528737"/>
      <point x="557.9770114942529" y="121.70114942528737" type="curve"/>
      <point x="371.37931034482756" y="126.89655172413795"/>
      <point x="260.8965517241379" y="227.77011494252872"/>
      <point x="260.8965517241379" y="384.71264367816093" type="curve" smooth="yes"/>
      <point x="260.8965517241379" y="544.0689655172414"/>
      <point x="375.8390804597701" y="648.919540229885"/>
      <point x="535.5632183908046" y="721.3793103448276" type="curve"/>
      <point x="462.5287356321839" y="829.5632183908046" type="line"/>
      <point x="283.7471264367816" y="749.5632183908046"/>
      <point x="98.48275862068965" y="613.1724137931035"/>
      <point x="98.48275862068965" y="369.17241379310343" type="curve" smooth="yes"/>
      <point x="98.48275862068965" y="152.41379310344826"/>
      <point x="244.8735632183908" y="-20.39080459770115"/>
    </contour>
    <contour>
      <point x="1100.2298850574712" y="329.4712643678161" type="line"/>
      <point x="1190.5977011494253" y="453.88505747126436"/>
      <point x="1278.1609195402298" y="573.4942528735633"/>
      <point x="1374.1149425287356" y="690.3218390804598" type="curve"/>
      <point x="1220.4597701149423" y="787.2873563218391" type="line"/>
      <point x="1154.4367816091954" y="659.2873563218391"/>
      <point x="1081.632183908046" y="544.4827586206897"/>
      <point x="1002.0229885057472" y="420.45977011494256" type="curve"/>
    </contour>
  </outline>
</glyph>
<glyph name="parenleft" format="2">
  <advance width="770.1473684210526"/>
  <unicode hex="0028"/>
  <outline>
    <contour>
      <point x="552.6947368421053" y="-242.06315789473683" type="curve"/>
      <point x="696.2315789473685" y="-186.33684210526314" type="line"/>
      <point x="469.5368421052632" y="35.305263157894736"/>
      <point x="287.2" y="283.6421052631579"/>
      <point x="287.2" y="647.4526315789474" type="curve" smooth="yes"/>
      <point x="287.2" y="1012.7157894736843"/>
      <point x="469.5368421052632" y="1259.6000000000001"/>
      <point x="696.2315789473685" y="1481.2421052631578" type="curve"/>
      <point x="552.6947368421053" y="1536.9684210526316" type="line"/>
      <point x="333.6421052631579" y="1322.126315789474"/>
      <point x="118.10526315789474" y="1042.421052631579"/>
      <point x="118.10526315789474" y="647.4526315789474" type="curve" smooth="yes"/>
      <point x="118.10526315789474" y="253.93684210526314"/>
      <point x="333.6421052631579" y="-27.22105263157895"/>
    </contour>
  </outline>
</glyph>
<glyph name="asterisk" format="2">
  <advance width="946.1052631578948"/>
  <unicode hex="002A"/>
  <outline>
    <contour>
      <point x="827.1157894736842" y="742.0842105263158" type="curve"/>
      <point x="894.6736842105263" y="855.1789473684211" type="line"/>
      <point x="759.2" y="923.7052631578947"/>
      <point x="625.3684210526316" y="995.3263157894737"/>
      <point x="494.4421052631579" y="1068.9473684210527" type="curve"/>
      <point x="366.4421052631579" y="1154.2315789473685"/>
      <point x="242.44210526315788" y="1240.0631578947368"/>
      <point x="118.98947368421054" y="1328.9894736842105" type="curve"/>
      <point x="51.43157894736842" y="1215.8947368421052" type="line"/>
      <point x="186.90526315789472" y="1147.3684210526317"/>
      <point x="321.2842105263158" y="1075.7473684210527"/>
      <point x="453.66315789473686" y="1000.1263157894737" type="curve"/>
      <point x="579.6631578947369" y="916.8421052631579"/>
      <point x="703.6631578947369" y="830.4631578947368"/>
    </contour>
    <contour>
      <point x="119.53684210526316" y="742.0842105263158" type="line"/>
      <point x="242.44210526315788" y="831.0105263157894"/>
      <point x="366.9894736842105" y="916.8421052631579"/>
      <point x="494.4421052631579" y="1002.1263157894737" type="curve"/>
      <point x="625.3684210526316" y="1075.7473684210527"/>
      <point x="759.7473684210527" y="1147.3684210526317"/>
      <point x="894.6736842105263" y="1216.4421052631578" type="curve"/>
      <point x="827.1157894736842" y="1328.9894736842105" type="line"/>
      <point x="703.6631578947369" y="1240.0631578947368"/>
      <point x="579.6631578947369" y="1154.2315789473685"/>
      <point x="453.66315789473686" y="1070.4" type="curve"/>
      <point x="320.7368421052632" y="995.3263157894737"/>
      <point x="186.90526315789472" y="923.7052631578947"/>
      <point x="51.43157894736842" y="855.1789473684211" type="curve"/>
    </contour>
    <contour>
      <point x="406.67368421052635" y="580.8842105263158" type="curve"/>
      <point x="539.4315789473684" y="580.8842105263158" type="line"/>
      <point x="527.4105263157894" y="732.5263157894736"/>
      <point x="519.0315789473684" y="884.1684210526316"/>
      <point x="512.1052631578948" y="1037.2631578947369" type="curve"/>
      <point x="519.0315789473684" y="1187.4526315789474"/>
      <point x="527.4105263157894" y="1339.0947368421052"/>
      <point x="538.8842105263158" y="1490.7368421052631" type="curve"/>
      <point x="406.67368421052635" y="1490.7368421052631" type="line"/>
      <point x="418.69473684210527" y="1339.0947368421052"/>
      <point x="427.0736842105263" y="1187.4526315789474"/>
      <point x="434.0" y="1037.2631578947369" type="curve"/>
      <point x="427.0736842105263" y="884.1684210526316"/>
      <point x="418.69473684210527" y="732.5263157894736"/>
    </contour>
  </outline>
</glyph>
<glyph name="comma" format="2">
  <advance width="459.7473684210526"/>
  <unicode hex="002C"/>
  <outline>
    <contour>
      <point x="62.084210526315786" y="-314.0" type="curve"/>
      <point x="160.77894736842106" y="-311.4526315789474" type="line"/>
      <point x="236.8" y="-216.73684210526318"/>
      <point x="354.5473684210526" y="-27.789473684210527"/>
      <point x="354.5473684210526" y="111.53684210526316" type="curve" smooth="yes"/>
      <point x="354.5473684210526" y="184.16842105263157"/>
      <point x="323.0526315789474" y="238.42105263157896"/>
      <point x="250.0421052631579" y="245.34736842105264" type="curve"/>
      <point x="149.32631578947368" y="238.96842105263158" type="line"/>
      <point x="161.34736842105264" y="174.0"/>
      <point x="166.0842105263158" y="109.03157894736842"/>
      <point x="166.0842105263158" y="47.347368421052636" type="curve"/>
      <point x="166.0842105263158" y="-69.93684210526315"/>
      <point x="131.8736842105263" y="-196.54736842105262"/>
    </contour>
  </outline>
</glyph>
<glyph name="period" format="2">
  <advance width="470.88421052631577"/>
  <unicode hex="002E"/>
  <outline>
    <contour>
      <point x="235.89473684210526" y="-21.83157894736842" type="curve" smooth="yes"/>
      <point x="318.7157894736842" y="-21.83157894736842"/>
      <point x="368.58947368421053" y="22.042105263157897"/>
      <point x="368.58947368421053" y="118.50526315789475" type="curve" smooth="yes"/>
      <point x="368.58947368421053" y="196.7578947368421"/>
      <point x="318.7157894736842" y="237.53684210526316"/>
      <point x="236.44210526315788" y="237.53684210526316" type="curve" smooth="yes"/>
      <point x="155.07368421052632" y="237.53684210526316"/>
      <point x="103.74736842105263" y="196.7578947368421"/>
      <point x="103.74736842105263" y="118.50526315789475" type="curve" smooth="yes"/>
      <point x="103.74736842105263" y="22.042105263157897"/>
      <point x="155.07368421052632" y="-21.83157894736842"/>
    </contour>
  </outline>
</glyph>
<glyph name="slash" format="2">
  <advance width="901.7263157894737"/>
  <unicode hex="002F"/>
  <outline>
    <contour>
      <point x="53.01052631578947" y="0.0" type="curve"/>
      <point x="240.31578947368422" y="0.0" type="line"/>
      <point x="293.3684210526316" y="148.0"/>
      <point x="344.9894736842105" y="274.0"/>
      <point x="423.5157894736842" y="456.0" type="curve"/>
      <point x="633.2842105263159" y="948.0" type="line"/>
      <point x="715.8105263157895" y="1142.0"/>
      <point x="772.5263157894738" y="1272.0"/>
      <point x="848.7157894736843" y="1426.0" type="curve"/>
      <point x="661.9578947368421" y="1426.0" type="line"/>
      <point x="605.4526315789474" y="1272.0"/>
      <point x="551.8315789473685" y="1141.4526315789474"/>
      <point x="471.30526315789473" y="952.0" type="curve"/>
      <point x="259.53684210526313" y="456.0" type="line"/>
      <point x="181.01052631578946" y="274.0"/>
      <point x="124.29473684210527" y="148.0"/>
    </contour>
  </outline>
</glyph>
<glyph name="zero" format="2">
  <advance width="1305.157894736842"/>
  <unicode hex="0030"/>
  <outline>
    <contour>
      <point x="657.8526315789474" y="-21.28421052631579" type="curve" smooth="yes"/>
      <point x="1006.3157894736842" y="-21.28421052631579"/>
      <point x="1194.3157894736842" y="254.73684210526315"/>
      <point x="1194.3157894736842" y="688.5473684210526" type="curve" smooth="yes"/>
      <point x="1194.3157894736842" y="1110.3578947368421"/>
      <point x="1014.8631578947368" y="1397.4736842105262"/>
      <point x="652.2105263157895" y="1397.4736842105262" type="curve" smooth="yes"/>
      <point x="294.46315789473687" y="1397.4736842105262"/>
      <point x="110.84210526315789" y="1113.2631578947369"/>
      <point x="110.84210526315789" y="688.0" type="curve" smooth="yes"/>
      <point x="110.84210526315789" y="280.0210526315789"/>
      <point x="278.65263157894736" y="-21.28421052631579"/>
    </contour>
    <contour>
      <point x="653.8526315789474" y="127.55789473684212" type="curve"/>
      <point x="391.87368421052633" y="135.74736842105264"/>
      <point x="287.0526315789474" y="363.62105263157895"/>
      <point x="287.0526315789474" y="688.5473684210526" type="curve" smooth="yes"/>
      <point x="287.0526315789474" y="1012.7578947368421"/>
      <point x="397.87368421052633" y="1239.8947368421052"/>
      <point x="653.8526315789474" y="1248.0842105263157" type="curve"/>
      <point x="902.9263157894737" y="1239.8947368421052"/>
      <point x="1018.6526315789474" y="1028.1894736842105"/>
      <point x="1018.6526315789474" y="688.5473684210526" type="curve" smooth="yes"/>
      <point x="1018.6526315789474" y="367.978947368421"/>
      <point x="914.7368421052631" y="135.74736842105264"/>
    </contour>
  </outline>
</glyph>
<glyph name="one" format="2">
  <advance width="860.8842105263159"/>
  <unicode hex="0031"/>
  <outline>
    <contour>
      <point x="109.30526315789474" y="964.9894736842105" type="line"/>
      <point x="254.94736842105263" y="1055.7263157894738"/>
      <point x="402.77894736842103" y="1137.8947368421052"/>
      <point x="552.6105263157895" y="1218.0631578947368" type="curve"/>
      <point x="557.5368421052632" y="1377.4736842105262" type="line"/>
      <point x="392.4" y="1289.4736842105262"/>
      <point x="228.16842105263157" y="1202.9263157894736"/>
      <point x="59.93684210526316" y="1126.3999999999999" type="curve"/>
    </contour>
    <contour>
      <point x="458.7578947368421" y="0.0" type="curve"/>
      <point x="655.2" y="0.0" type="line"/>
      <point x="644.2736842105263" y="146.7157894736842"/>
      <point x="640.9894736842106" y="273.9789473684211"/>
      <point x="640.9894736842106" y="437.62105263157895" type="curve"/>
      <point x="640.9894736842106" y="895.0947368421052" type="line"/>
      <point x="640.9894736842106" y="1061.8105263157895"/>
      <point x="644.6315789473684" y="1221.2631578947369"/>
      <point x="655.2" y="1371.2842105263157" type="curve"/>
      <point x="557.5368421052632" y="1377.4736842105262" type="line"/>
      <point x="464.58947368421053" y="1297.1368421052632" type="line"/>
      <point x="468.9684210526316" y="1153.5157894736842"/>
      <point x="471.5157894736842" y="1010.4421052631579"/>
      <point x="471.5157894736842" y="868.2736842105263" type="curve"/>
      <point x="471.5157894736842" y="437.62105263157895" type="line"/>
      <point x="471.5157894736842" y="273.9789473684211"/>
      <point x="467.6842105263158" y="146.7157894736842"/>
    </contour>
  </outline>
</glyph>
<glyph name="three" format="2">
  <advance width="1141.1264367816093"/>
  <unicode hex="0033"/>
  <outline>
    <contour>
      <point x="552.7816091954023" y="-21.586206896551722" type="curve" smooth="yes"/>
      <point x="881.080459770115" y="-21.586206896551722"/>
      <point x="1039.057471264368" y="147.60919540229884"/>
      <point x="1039.057471264368" y="366.367816091954" type="curve" smooth="yes"/>
      <point x="1039.057471264368" y="587.5862068965517"/>
      <point x="874.2068965517242" y="696.8045977011494"/>
      <point x="729.4022988505748" y="722.0" type="curve"/>
      <point x="729.4022988505748" y="738.7816091954023" type="line"/>
      <point x="873.0114942528736" y="772.3908045977012"/>
      <point x="993.0344827586207" y="889.6321839080459"/>
      <point x="993.0344827586207" y="1061.632183908046" type="curve" smooth="yes"/>
      <point x="993.0344827586207" y="1268.8045977011495"/>
      <point x="819.8390804597701" y="1397.9770114942528"/>
      <point x="562.7816091954023" y="1397.9770114942528" type="curve" smooth="yes"/>
      <point x="426.8045977011495" y="1397.9770114942528"/>
      <point x="227.24137931034483" y="1319.1494252873563"/>
      <point x="118.45977011494253" y="1274.7356321839081" type="curve"/>
      <point x="137.632183908046" y="1107.4942528735633" type="line"/>
      <point x="305.67816091954023" y="1201.1264367816093"/>
      <point x="474.8735632183908" y="1246.712643678161"/>
      <point x="540.8735632183908" y="1246.712643678161" type="curve"/>
      <point x="700.5747126436781" y="1243.5172413793105"/>
      <point x="818.6666666666666" y="1179.8620689655172"/>
      <point x="818.6666666666666" y="1034.1379310344828" type="curve" smooth="yes"/>
      <point x="818.6666666666666" y="892.4137931034483"/>
      <point x="711.3793103448276" y="787.080459770115"/>
      <point x="458.7586206896552" y="784.6896551724138" type="curve"/>
      <point x="418.39080459770116" y="784.6896551724138"/>
      <point x="378.02298850574715" y="785.8850574712644"/>
      <point x="338.85057471264366" y="791.4712643678162" type="curve"/>
      <point x="338.85057471264366" y="637.8160919540229" type="line"/>
      <point x="381.60919540229884" y="642.2068965517241"/>
      <point x="423.17241379310343" y="643.4022988505747"/>
      <point x="467.1264367816092" y="643.4022988505747" type="curve"/>
      <point x="717.7471264367816" y="641.0114942528735"/>
      <point x="864.6896551724138" y="549.7011494252873"/>
      <point x="864.6896551724138" y="377.1264367816092" type="curve" smooth="yes"/>
      <point x="864.6896551724138" y="232.98850574712645"/>
      <point x="768.2068965517242" y="131.67816091954023"/>
      <point x="537.6321839080459" y="128.48275862068965" type="curve"/>
      <point x="412.4137931034483" y="128.48275862068965"/>
      <point x="254.04597701149422" y="178.8735632183908"/>
      <point x="106.02298850574712" y="251.2873563218391" type="curve"/>
      <point x="88.04597701149424" y="83.65517241379311" type="line"/>
      <point x="194.04597701149427" y="45.63218390804598"/>
      <point x="356.4367816091954" y="-21.586206896551722"/>
    </contour>
  </outline>
</glyph>
<glyph name="four" format="2">
  <advance width="1199.5172413793102"/>
  <unicode hex="0034"/>
  <outline>
    <contour>
      <point x="708.5977011494252" y="0.0" type="curve"/>
      <point x="905.3103448275863" y="0.0" type="line"/>
      <point x="892.1379310344828" y="126.7816091954023"/>
      <point x="890.9425287356322" y="227.95402298850576"/>
      <point x="890.9425287356322" y="380.735632183908" type="curve"/>
      <point x="890.9425287356322" y="889.5862068965517" type="line"/>
      <point x="890.9425287356322" y="1047.5862068965516"/>
      <point x="892.1379310344828" y="1205.5862068965516"/>
      <point x="905.3103448275863" y="1371.5862068965516" type="curve"/>
      <point x="710.5747126436781" y="1371.5862068965516" type="line"/>
      <point x="658.9425287356322" y="1283.1724137931035"/>
      <point x="594.528735632184" y="1189.9540229885058"/>
      <point x="530.919540229885" y="1100.7356321839081" type="curve"/>
      <point x="355.28735632183907" y="851.4942528735633" type="line"/>
      <point x="264.8735632183908" y="725.4712643678162"/>
      <point x="144.85057471264366" y="555.0344827586207"/>
      <point x="60.4367816091954" y="448.98850574712645" type="curve"/>
      <point x="60.4367816091954" y="316.48275862068965" type="line"/>
      <point x="794.8505747126437" y="316.48275862068965" type="line"/>
      <point x="899.6091954022988" y="316.48275862068965"/>
      <point x="1051.9540229885058" y="315.28735632183907"/>
      <point x="1147.5172413793102" y="307.7011494252873" type="curve"/>
      <point x="1147.5172413793102" y="476.11494252873564" type="line"/>
      <point x="1051.9540229885058" y="467.33333333333337"/>
      <point x="899.6091954022988" y="466.1379310344828"/>
      <point x="794.8505747126437" y="466.1379310344828" type="curve"/>
      <point x="766.4597701149426" y="466.1379310344828" type="line"/>
      <point x="198.91954022988506" y="466.1379310344828" type="line"/>
      <point x="214.89655172413794" y="404.6666666666667" type="line"/>
      <point x="271.7241379310345" y="494.6896551724138"/>
      <point x="330.9425287356322" y="583.9080459770115"/>
      <point x="395.35632183908046" y="673.9310344827586" type="curve"/>
      <point x="635.0114942528736" y="1013.6091954022988" type="line"/>
      <point x="708.2298850574713" y="1117.632183908046"/>
      <point x="781.448275862069" y="1218.0689655172414"/>
      <point x="855.8620689655172" y="1312.1149425287356" type="curve"/>
      <point x="716.5747126436781" y="1288.1379310344828" type="line"/>
      <point x="725.7471264367816" y="1145.7241379310344"/>
      <point x="726.9425287356322" y="1004.5057471264367"/>
      <point x="726.9425287356322" y="862.0919540229885" type="curve"/>
      <point x="726.9425287356322" y="412.2988505747127" type="line"/>
      <point x="722.1609195402299" y="380.735632183908" type="line"/>
      <point x="722.1609195402299" y="227.95402298850576"/>
      <point x="720.9655172413793" y="126.7816091954023"/>
    </contour>
  </outline>
</glyph>
<glyph name="six" format="2">
  <advance width="1213.5402298850574"/>
  <unicode hex="0036"/>
  <outline>
    <contour>
      <point x="634.7586206896551" y="-21.586206896551722" type="curve" smooth="yes"/>
      <point x="953.471264367816" y="-21.586206896551722"/>
      <point x="1111.471264367816" y="209.97701149425288"/>
      <point x="1111.471264367816" y="457.5402298850575" type="curve" smooth="yes"/>
      <point x="1111.471264367816" y="711.9080459770115"/>
      <point x="945.080459770115" y="887.9310344827586"/>
      <point x="680.2298850574713" y="887.9310344827586" type="curve" smooth="yes"/>
      <point x="520.1379310344827" y="887.9310344827586"/>
      <point x="391.6781609195403" y="810.2758620689656"/>
      <point x="298.8505747126437" y="730.2528735632184" type="curve"/>
      <point x="270.0689655172414" y="732.2528735632184" type="line"/>
      <point x="238.57471264367817" y="668.3908045977012"/>
      <point x="237.3793103448276" y="634.7816091954023"/>
      <point x="271.264367816092" y="571.264367816092" type="curve"/>
      <point x="374.96551724137936" y="686.183908045977"/>
      <point x="514.2988505747127" y="743.0344827586207"/>
      <point x="637.1954022988506" y="745.0344827586207" type="curve"/>
      <point x="848.2068965517241" y="740.6436781609195"/>
      <point x="941.8850574712644" y="613.3103448275862"/>
      <point x="941.8850574712644" y="449.17241379310343" type="curve" smooth="yes"/>
      <point x="941.8850574712644" y="283.8390804597701"/>
      <point x="846.2068965517241" y="133.67816091954023"/>
      <point x="628.7816091954023" y="128.48275862068965" type="curve"/>
      <point x="402.1609195402299" y="137.26436781609195"/>
      <point x="278.0689655172414" y="302.62068965517244"/>
      <point x="278.0689655172414" y="652.7586206896551" type="curve" smooth="yes"/>
      <point x="278.0689655172414" y="1041.3563218390805"/>
      <point x="393.7701149425287" y="1240.3218390804598"/>
      <point x="663.1034482758621" y="1246.712643678161" type="curve"/>
      <point x="720.2988505747127" y="1246.712643678161"/>
      <point x="865.080459770115" y="1209.126436781609"/>
      <point x="1011.1034482758621" y="1136.2988505747126" type="curve"/>
      <point x="1031.0804597701149" y="1301.5402298850577" type="line"/>
      <point x="938.2988505747127" y="1335.9540229885058"/>
      <point x="768.3218390804598" y="1397.9770114942528"/>
      <point x="653.5402298850574" y="1397.9770114942528" type="curve" smooth="yes"/>
      <point x="309.14942528735634" y="1397.9770114942528"/>
      <point x="110.8735632183908" y="1141.471264367816"/>
      <point x="110.8735632183908" y="657.1494252873563" type="curve" smooth="yes"/>
      <point x="110.8735632183908" y="215.60919540229884"/>
      <point x="296.4597701149425" y="-21.586206896551722"/>
    </contour>
  </outline>
</glyph>
<glyph name="seven" format="2">
  <advance width="1055.9368421052632"/>
  <unicode hex="0037"/>
  <outline>
    <contour>
      <point x="213.1578947368421" y="0.0" type="curve"/>
      <point x="425.62105263157895" y="0.0" type="line"/>
      <point x="485.93684210526317" y="163.78947368421052"/>
      <point x="556.0842105263158" y="327.38947368421054"/>
      <point x="629.1578947368421" y="488.2736842105263" type="curve"/>
      <point x="755.8526315789474" y="766.5894736842105" type="line"/>
      <point x="831.8315789473684" y="934.7368421052631"/>
      <point x="902.3578947368421" y="1087.7894736842106"/>
      <point x="976.8842105263158" y="1239.3684210526314" type="curve"/>
      <point x="976.8842105263158" y="1371.2842105263157" type="line"/>
      <point x="50.0" y="1371.2842105263157" type="line"/>
      <point x="50.0" y="1203.4736842105262" type="line"/>
      <point x="217.6" y="1218.2315789473685"/>
      <point x="384.65263157894736" y="1221.5157894736842"/>
      <point x="550.2526315789473" y="1221.5157894736842" type="curve"/>
      <point x="830.7368421052631" y="1221.5157894736842" type="line"/>
      <point x="786.2736842105263" y="1259.578947368421" type="line"/>
      <point x="747.578947368421" y="1157.6"/>
      <point x="703.9578947368421" y="1056.5263157894738"/>
      <point x="657.2421052631579" y="954.5473684210526" type="curve"/>
      <point x="466.37894736842105" y="538.9894736842106" type="line"/>
      <point x="385.85263157894735" y="362.29473684210524"/>
      <point x="300.7789473684211" y="179.6"/>
    </contour>
  </outline>
</glyph>
<glyph name="less" format="2">
  <advance width="1136.421052631579"/>
  <unicode hex="003C"/>
  <outline>
    <contour>
      <point x="1012.8421052631579" y="137.5157894736842" type="curve"/>
      <point x="1012.8421052631579" y="314.0421052631579" type="line"/>
      <point x="870.9052631578948" y="363.8105263157895"/>
      <point x="721.7052631578947" y="427.22105263157897"/>
      <point x="576.8631578947368" y="489.17894736842106" type="curve"/>
      <point x="346.06315789473683" y="587.4736842105264" type="line"/>
      <point x="346.06315789473683" y="604.9473684210526" type="line"/>
      <point x="576.8631578947368" y="703.2421052631579" type="line"/>
      <point x="721.7052631578947" y="765.2"/>
      <point x="870.9052631578948" y="828.6105263157895"/>
      <point x="1012.8421052631579" y="878.3789473684211" type="curve"/>
      <point x="1012.8421052631579" y="1054.9052631578948" type="line"/>
      <point x="888.9894736842106" y="995.978947368421"/>
      <point x="768.7789473684211" y="943.978947368421"/>
      <point x="665.1157894736842" y="899.978947368421" type="curve"/>
      <point x="468.4" y="816.5473684210526" type="line"/>
      <point x="367.6421052631579" y="774.0"/>
      <point x="247.43157894736842" y="724.0"/>
      <point x="123.57894736842105" y="679.8315789473685" type="curve"/>
      <point x="123.57894736842105" y="512.5894736842105" type="line"/>
      <point x="247.43157894736842" y="468.42105263157896"/>
      <point x="367.6421052631579" y="418.42105263157896"/>
      <point x="468.4" y="375.87368421052633" type="curve"/>
      <point x="665.1157894736842" y="292.4421052631579" type="line"/>
      <point x="768.7789473684211" y="248.44210526315788"/>
      <point x="888.9894736842106" y="196.44210526315788"/>
    </contour>
  </outline>
</glyph>
<glyph name="equal" format="2">
  <advance width="1136.421052631579"/>
  <unicode hex="003D"/>
  <outline>
    <contour>
      <point x="129.05263157894737" y="292.9052631578947" type="line"/>
      <point x="254.3578947368421" y="299.6421052631579"/>
      <point x="373.11578947368423" y="300.1894736842105"/>
      <point x="475.3263157894737" y="300.1894736842105" type="curve"/>
      <point x="661.0947368421052" y="300.1894736842105" type="line"/>
      <point x="763.3052631578947" y="300.1894736842105"/>
      <point x="882.0631578947368" y="299.6421052631579"/>
      <point x="1007.3684210526316" y="292.9052631578947" type="curve"/>
      <point x="1007.3684210526316" y="455.0526315789474" type="line"/>
      <point x="882.0631578947368" y="448.3157894736842"/>
      <point x="763.3052631578947" y="447.7684210526316"/>
      <point x="661.0947368421052" y="447.7684210526316" type="curve"/>
      <point x="475.3263157894737" y="447.7684210526316" type="line"/>
      <point x="373.11578947368423" y="447.7684210526316"/>
      <point x="254.3578947368421" y="448.3157894736842"/>
      <point x="129.05263157894737" y="455.0526315789474" type="curve"/>
    </contour>
    <contour>
      <point x="129.05263157894737" y="740.2736842105263" type="line"/>
      <point x="254.3578947368421" y="747.0105263157894"/>
      <point x="373.11578947368423" y="747.5578947368421"/>
      <point x="475.3263157894737" y="747.5578947368421" type="curve"/>
      <point x="661.0947368421052" y="747.5578947368421" type="line"/>
      <point x="763.3052631578947" y="747.5578947368421"/>
      <point x="882.0631578947368" y="747.0105263157894"/>
      <point x="1007.3684210526316" y="740.2736842105263" type="curve"/>
      <point x="1007.3684210526316" y="902.421052631579" type="line"/>
      <point x="882.0631578947368" y="895.6842105263158"/>
      <point x="763.3052631578947" y="895.1368421052632"/>
      <point x="661.0947368421052" y="895.1368421052632" type="curve"/>
      <point x="475.3263157894737" y="895.1368421052632" type="line"/>
      <point x="373.11578947368423" y="895.1368421052632"/>
      <point x="254.3578947368421" y="895.6842105263158"/>
      <point x="129.05263157894737" y="902.421052631579" type="curve"/>
    </contour>
  </outline>
</glyph>
<glyph name="at" format="2">
  <advance width="1764.778947368421"/>
  <unicode hex="0040"/>
  <outline>
    <contour>
      <point x="945.4736842105264" y="-263.1578947368421" type="curve" smooth="yes"/>
      <point x="1114.5684210526317" y="-263.1578947368421"/>
      <point x="1346.378947368421" y="-189.17894736842106"/>
      <point x="1510.5684210526315" y="-118.82105263157895" type="curve"/>
      <point x="1510.5684210526315" y="13.010526315789477" type="line"/>
      <point x="1301.4526315789474" y="-89.36842105263158"/>
      <point x="1078.7157894736843" y="-145.3473684210526"/>
      <point x="945.4736842105264" y="-152.44210526315788" type="curve"/>
      <point x="391.17894736842106" y="-145.3473684210526"/>
      <point x="142.8421052631579" y="235.09473684210528"/>
      <point x="235.03157894736842" y="668.7368421052631" type="curve" smooth="yes"/>
      <point x="316.46315789473687" y="1052.6105263157895"/>
      <point x="582.0" y="1233.3894736842105"/>
      <point x="935.4736842105264" y="1240.4842105263158" type="curve"/>
      <point x="1366.8631578947368" y="1233.3894736842105"/>
      <point x="1614.1052631578948" y="925.3263157894737"/>
      <point x="1533.2" y="517.3473684210526" type="curve" smooth="yes"/>
      <point x="1503.9368421052632" y="370.4842105263158"/>
      <point x="1373.6421052631579" y="242.92631578947368"/>
      <point x="1284.5894736842106" y="240.73684210526315" type="curve"/>
      <point x="1183.7263157894738" y="245.83157894736843"/>
      <point x="1145.9368421052632" y="308.0210526315789"/>
      <point x="1170.2947368421053" y="427.62105263157895" type="curve"/>
      <point x="1208.821052631579" y="612.8" type="line"/>
      <point x="1235.3684210526314" y="729.8736842105263"/>
      <point x="1265.0105263157893" y="845.1368421052631"/>
      <point x="1305.1999999999998" y="962.5684210526316" type="curve"/>
      <point x="1167.1157894736843" y="953.8315789473684" type="line"/>
      <point x="1134.5684210526315" y="846.5684210526316" type="line"/>
      <point x="1120.1894736842105" y="846.5684210526316" type="line"/>
      <point x="1063.1157894736843" y="918.0421052631579"/>
      <point x="954.421052631579" y="974.021052631579"/>
      <point x="860.2736842105263" y="974.021052631579" type="curve" smooth="yes"/>
      <point x="673.3684210526316" y="974.021052631579"/>
      <point x="532.4842105263158" y="826.7157894736843"/>
      <point x="487.22105263157897" y="607.6631578947369" type="curve" smooth="yes"/>
      <point x="436.6736842105263" y="364.5473684210526"/>
      <point x="535.2421052631579" y="142.7157894736842"/>
      <point x="769.578947368421" y="142.7157894736842" type="curve" smooth="yes"/>
      <point x="849.3684210526316" y="142.7157894736842"/>
      <point x="944.8210526315789" y="187.81052631578947"/>
      <point x="1029.7052631578947" y="277.07368421052627" type="curve"/>
      <point x="1043.536842105263" y="277.07368421052627" type="line"/>
      <point x="1065.9368421052632" y="199.78947368421052"/>
      <point x="1138.7368421052631" y="123.81052631578947"/>
      <point x="1291.4736842105262" y="123.81052631578947" type="curve" smooth="yes"/>
      <point x="1390.9473684210527" y="123.81052631578947"/>
      <point x="1601.9157894736843" y="263.05263157894734"/>
      <point x="1646.842105263158" y="494.4" type="curve" smooth="yes"/>
      <point x="1737.221052631579" y="963.1789473684211"/>
      <point x="1432.0842105263157" y="1351.2"/>
      <point x="938.021052631579" y="1351.2" type="curve" smooth="yes"/>
      <point x="553.6421052631579" y="1351.2"/>
      <point x="214.31578947368422" y="1145.9157894736843"/>
      <point x="120.48421052631579" y="690.421052631579" type="curve" smooth="yes"/>
      <point x="18.821052631578947" y="200.86315789473684"/>
      <point x="318.5052631578947" y="-263.1578947368421"/>
    </contour>
    <contour>
      <point x="805.4947368421052" y="268.94736842105266" type="curve"/>
      <point x="647.2842105263157" y="272.94736842105266"/>
      <point x="587.5157894736842" y="411.0315789473684"/>
      <point x="624.2105263157895" y="585.7894736842105" type="curve" smooth="yes"/>
      <point x="655.6421052631579" y="733.6842105263158"/>
      <point x="743.0315789473684" y="840.1473684210526"/>
      <point x="888.9052631578948" y="844.6947368421053" type="curve"/>
      <point x="970.1052631578948" y="845.0526315789474"/>
      <point x="1043.6631578947367" y="801.6421052631579"/>
      <point x="1098.1473684210525" y="744.6105263157895" type="curve"/>
      <point x="1026.7368421052631" y="412.63157894736844" type="line"/>
      <point x="954.6315789473684" y="312.5473684210526"/>
      <point x="873.621052631579" y="272.94736842105266"/>
    </contour>
  </outline>
</glyph>
<glyph name="A" format="2">
  <advance width="1382.5263157894738"/>
  <unicode hex="0041"/>
  <anchor x="691.5368421052632" y="0.0" name="bottom"/>
  <anchor x="1334.5894736842104" y="0.0" name="ogonek"/>
  <anchor x="691.5368421052632" y="1426.0" name="top"/>
  <outline>
    <contour>
      <point x="42.8421052631579" y="0.0" type="curve"/>
      <point x="260.40000000000003" y="0.0" type="line"/>
      <point x="308.33684210526314" y="166.86315789473684"/>
      <point x="365.9157894736842" y="349.36842105263156"/>
      <point x="422.9684210526316" y="513.3263157894737" type="curve"/>
      <point x="684.6105263157895" y="1262.5894736842106" type="line"/>
      <point x="702.0842105263158" y="1262.5894736842106" type="line"/>
      <point x="961.7263157894737" y="506.77894736842103" type="line"/>
      <point x="1015.3263157894737" y="350.2736842105263"/>
      <point x="1073.6421052631579" y="166.50526315789475"/>
      <point x="1119.0315789473684" y="0.0" type="curve"/>
      <point x="1339.3263157894737" y="0.0" type="line"/>
      <point x="1273.3263157894737" y="152.0"/>
      <point x="1207.8736842105263" y="324.0"/>
      <point x="1151.7052631578947" y="482.0" type="curve"/>
      <point x="976.2947368421053" y="973.4526315789474" type="line"/>
      <point x="913.2210526315789" y="1148.3578947368421"/>
      <point x="869.7894736842106" y="1279.8105263157895"/>
      <point x="831.0947368421052" y="1426.0" type="curve"/>
      <point x="558.8842105263158" y="1426.0" type="line"/>
      <point x="519.2842105263157" y="1282.0"/>
      <point x="475.30526315789473" y="1150.0"/>
      <point x="411.6842105263158" y="973.4526315789474" type="curve"/>
      <point x="234.82105263157897" y="483.4526315789474" type="line"/>
      <point x="179.20000000000002" y="330.0"/>
      <point x="109.93684210526315" y="153.45263157894738"/>
    </contour>
    <contour>
      <point x="324.35789473684207" y="358.37894736842105" type="line"/>
      <point x="1074.9473684210527" y="358.37894736842105" type="line"/>
      <point x="1062.3578947368421" y="500.4842105263158" type="line"/>
      <point x="339.6842105263158" y="500.4842105263158" type="line"/>
    </contour>
  </outline>
</glyph>
<glyph name="B" format="2">
  <advance width="1294.689655172414"/>
  <unicode hex="0042"/>
  <outline>
    <contour>
      <point x="631.9540229885057" y="-6.781609195402299" type="curve"/>
      <point x="1072.6436781609195" y="-6.781609195402299"/>
      <point x="1212.2298850574712" y="168.02298850574712"/>
      <point x="1212.2298850574712" y="391.97701149425285" type="curve" smooth="yes"/>
      <point x="1212.2298850574712" y="612.8045977011494"/>
      <point x="1070.5747126436781" y="704.0"/>
      <point x="923.448275862069" y="733.1724137931035" type="curve"/>
      <point x="923.448275862069" y="751.1494252873563" type="line"/>
      <point x="1066.2298850574714" y="795.1724137931035"/>
      <point x="1173.816091954023" y="907.9770114942529"/>
      <point x="1173.816091954023" y="1089.9770114942528" type="curve" smooth="yes"/>
      <point x="1173.816091954023" y="1303.5862068965516"/>
      <point x="1038.2068965517242" y="1431.5862068965516"/>
      <point x="712.367816091954" y="1431.5862068965516" type="curve"/>
      <point x="522.4137931034483" y="1431.5862068965516"/>
      <point x="338.89655172413796" y="1426.0"/>
      <point x="174.16091954022988" y="1426.0" type="curve"/>
      <point x="184.13793103448276" y="1266.3908045977012"/>
      <point x="187.72413793103448" y="1127.5862068965516"/>
      <point x="187.72413793103448" y="950.0" type="curve"/>
      <point x="187.72413793103448" y="471.2183908045977" type="line"/>
      <point x="187.72413793103448" y="294.82758620689657"/>
      <point x="184.13793103448276" y="158.41379310344828"/>
      <point x="174.16091954022988" y="0.0" type="curve"/>
      <point x="321.31034482758616" y="0.0"/>
      <point x="432.0" y="-6.781609195402299"/>
    </contour>
    <contour>
      <point x="370.4827586206897" y="150.45977011494253" type="line"/>
      <point x="366.4827586206897" y="263.7471264367816"/>
      <point x="365.2873563218391" y="370.62068965517244"/>
      <point x="365.2873563218391" y="504.6896551724138" type="curve"/>
      <point x="365.2873563218391" y="914.1379310344828" type="line"/>
      <point x="365.2873563218391" y="1050.5977011494253"/>
      <point x="366.4827586206897" y="1159.8620689655172"/>
      <point x="370.4827586206897" y="1275.5402298850574" type="curve"/>
      <point x="698.8045977011494" y="1275.5402298850574" type="line" smooth="yes"/>
      <point x="889.3793103448276" y="1275.5402298850574"/>
      <point x="987.0804597701149" y="1206.2988505747126"/>
      <point x="987.0804597701149" y="1050.528735632184" type="curve" smooth="yes"/>
      <point x="987.0804597701149" y="913.6091954022988"/>
      <point x="895.0114942528735" y="794.2528735632184"/>
      <point x="673.5862068965516" y="794.2528735632184" type="curve" smooth="yes"/>
      <point x="324.5977011494253" y="794.2528735632184" type="line"/>
      <point x="324.5977011494253" y="649.3793103448276" type="line"/>
      <point x="674.3448275862069" y="649.3793103448276" type="line" smooth="yes"/>
      <point x="895.3563218390805" y="649.3793103448276"/>
      <point x="1024.2988505747126" y="579.7241379310344"/>
      <point x="1024.2988505747126" y="405.1264367816092" type="curve" smooth="yes"/>
      <point x="1024.2988505747126" y="246.57471264367817"/>
      <point x="920.2068965517241" y="150.45977011494253"/>
      <point x="647.1034482758621" y="150.45977011494253" type="curve" smooth="yes"/>
    </contour>
  </outline>
</glyph>
<glyph name="C" format="2">
  <advance width="1369.2631578947369"/>
  <unicode hex="0043"/>
  <anchor x="797.6210526315789" y="0.0" name="bottom"/>
  <anchor x="783.0947368421052" y="1426.0" name="top"/>
  <outline>
    <contour>
      <point x="831.2631578947369" y="-21.83157894736842" type="curve" smooth="yes"/>
      <point x="977.4736842105262" y="-21.83157894736842"/>
      <point x="1140.757894736842" y="19.810526315789474"/>
      <point x="1259.3052631578948" y="71.9578947368421" type="curve"/>
      <point x="1244.5684210526315" y="252.86315789473684" type="line"/>
      <point x="1121.4736842105262" y="177.57894736842107"/>
      <point x="970.7368421052631" y="134.4842105263158"/>
      <point x="846.9684210526316" y="134.4842105263158" type="curve"/>
      <point x="478.06315789473683" y="141.03157894736842"/>
      <point x="288.3578947368421" y="395.8105263157895"/>
      <point x="288.3578947368421" y="714.3578947368421" type="curve" smooth="yes"/>
      <point x="288.3578947368421" y="1071.2842105263157"/>
      <point x="509.87368421052633" y="1285.4947368421053"/>
      <point x="801.8105263157895" y="1292.042105263158" type="curve"/>
      <point x="881.2631578947369" y="1292.042105263158"/>
      <point x="1048.5263157894738" y="1254.9473684210527"/>
      <point x="1253.0947368421052" y="1161.6631578947367" type="curve"/>
      <point x="1269.6631578947367" y="1341.6631578947367" type="line"/>
      <point x="1152.5684210526315" y="1387.4736842105265"/>
      <point x="965.3052631578947" y="1452.1894736842105"/>
      <point x="804.3578947368421" y="1452.1894736842105" type="curve" smooth="yes"/>
      <point x="384.4421052631579" y="1452.1894736842105"/>
      <point x="100.29473684210527" y="1147.0736842105264"/>
      <point x="100.29473684210527" y="715.2631578947369" type="curve" smooth="yes"/>
      <point x="100.29473684210527" y="290.6736842105263"/>
      <point x="378.5052631578947" y="-21.83157894736842"/>
    </contour>
  </outline>
</glyph>
<glyph name="D" format="2">
  <advance width="1475.8105263157895"/>
  <unicode hex="0044"/>
  <anchor x="702.7368421052631" y="0.0" name="bottom"/>
  <anchor x="738.9052631578948" y="714.0" name="center"/>
  <anchor x="702.7368421052631" y="1426.0" name="top"/>
  <outline>
    <contour>
      <point x="174.4" y="0.0" type="curve"/>
      <point x="331.13684210526316" y="0.0"/>
      <point x="457.7684210526316" y="-6.378947368421053"/>
      <point x="634.9263157894736" y="-6.378947368421053" type="curve"/>
      <point x="1176.0631578947368" y="-6.378947368421053"/>
      <point x="1375.5157894736842" y="316.3578947368421"/>
      <point x="1375.5157894736842" y="718.9052631578948" type="curve" smooth="yes"/>
      <point x="1375.5157894736842" y="1163.8315789473684"/>
      <point x="1127.8736842105263" y="1431.2842105263157"/>
      <point x="688.2526315789473" y="1431.2842105263157" type="curve"/>
      <point x="513.7894736842105" y="1431.2842105263157"/>
      <point x="357.8315789473684" y="1426.0"/>
      <point x="174.4" y="1426.0" type="curve"/>
      <point x="183.8736842105263" y="1266.1894736842105"/>
      <point x="187.70526315789473" y="1127.8315789473684"/>
      <point x="187.70526315789473" y="949.4526315789474" type="curve"/>
      <point x="187.70526315789473" y="471.0736842105263" type="line"/>
      <point x="187.70526315789473" y="294.88421052631577"/>
      <point x="183.8736842105263" y="158.16842105263157"/>
    </contour>
    <contour>
      <point x="374.4842105263158" y="150.67368421052632" type="line"/>
      <point x="369.93684210526317" y="264.2315789473684"/>
      <point x="368.8421052631579" y="372.1684210526316"/>
      <point x="368.8421052631579" y="506.10526315789474" type="curve"/>
      <point x="368.8421052631579" y="915.5157894736842" type="line"/>
      <point x="368.8421052631579" y="1051.6421052631579"/>
      <point x="369.93684210526317" y="1160.1263157894737"/>
      <point x="374.4842105263158" y="1275.3263157894737" type="curve"/>
      <point x="657.4526315789474" y="1275.3263157894737" type="line"/>
      <point x="1037.5789473684208" y="1267.6842105263158"/>
      <point x="1187.4526315789474" y="1056.7157894736843"/>
      <point x="1187.4526315789474" y="722.0" type="curve" smooth="yes"/>
      <point x="1187.4526315789474" y="395.8105263157895"/>
      <point x="1056.6526315789472" y="158.86315789473684"/>
      <point x="635.8315789473684" y="150.67368421052632" type="curve"/>
    </contour>
  </outline>
</glyph>
<glyph name="E" format="2">
  <advance width="1189.1724137931035"/>
  <unicode hex="0045"/>
  <anchor x="630.4367816091954" y="0.0" name="bottom"/>
  <anchor x="1072.7356321839081" y="0.0" name="ogonek"/>
  <anchor x="630.4367816091954" y="1426.0" name="top"/>
  <anchor x="74.0" y="1426.0" name="topleft"/>
  <outline>
    <contour>
      <point x="174.16091954022988" y="0.0" type="curve"/>
      <point x="380.8505747126437" y="0.0" type="line"/>
      <point x="380.8505747126437" y="27.126436781609197" type="line"/>
      <point x="368.8735632183908" y="185.54022988505747"/>
      <point x="365.2873563218391" y="323.14942528735634"/>
      <point x="365.2873563218391" y="498.3448275862069" type="curve"/>
      <point x="365.2873563218391" y="923.6781609195402" type="line"/>
      <point x="365.2873563218391" y="1101.2643678160919"/>
      <point x="368.8735632183908" y="1240.0689655172414"/>
      <point x="380.8505747126437" y="1399.6781609195402" type="curve"/>
      <point x="380.8505747126437" y="1426.0" type="line"/>
      <point x="174.16091954022988" y="1426.0" type="line"/>
      <point x="184.13793103448276" y="1266.3908045977012"/>
      <point x="187.72413793103448" y="1127.5862068965516"/>
      <point x="187.72413793103448" y="950.0" type="curve"/>
      <point x="187.72413793103448" y="471.2183908045977" type="line"/>
      <point x="187.72413793103448" y="294.82758620689657"/>
      <point x="184.13793103448276" y="158.41379310344828"/>
    </contour>
    <contour>
      <point x="342.5287356321839" y="0.0" type="line"/>
      <point x="1076.3218390804598" y="0.0" type="line"/>
      <point x="1076.3218390804598" y="171.60919540229884" type="line"/>
      <point x="931.8850574712643" y="158.4367816091954"/>
      <point x="778.6436781609195" y="155.24137931034483"/>
      <point x="604.5977011494252" y="155.24137931034483" type="curve"/>
      <point x="342.5287356321839" y="155.24137931034483" type="line"/>
    </contour>
    <contour>
      <point x="325.7931034482759" y="647.3793103448276" type="line"/>
      <point x="601.8390804597701" y="647.3793103448276" type="line"/>
      <point x="781.471264367816" y="647.3793103448276"/>
      <point x="902.6896551724137" y="646.183908045977"/>
      <point x="1034.712643678161" y="640.5977011494252" type="curve"/>
      <point x="1034.712643678161" y="808.6206896551724" type="line"/>
      <point x="909.4942528735631" y="799.0344827586207"/>
      <point x="787.471264367816" y="797.8390804597701"/>
      <point x="602.6436781609195" y="797.8390804597701" type="curve"/>
      <point x="325.7931034482759" y="797.8390804597701" type="line"/>
    </contour>
    <contour>
      <point x="334.16091954022994" y="1270.7586206896551" type="line"/>
      <point x="589.4252873563217" y="1270.7586206896551" type="line"/>
      <point x="796.2758620689655" y="1270.7586206896551"/>
      <point x="939.9080459770115" y="1266.367816091954"/>
      <point x="1073.5402298850574" y="1254.3908045977012" type="curve"/>
      <point x="1073.5402298850574" y="1426.0" type="line"/>
      <point x="334.16091954022994" y="1426.0" type="line"/>
    </contour>
  </outline>
</glyph>
<glyph name="F" format="2">
  <advance width="1150.2105263157894"/>
  <unicode hex="0046"/>
  <outline>
    <contour>
      <point x="174.4" y="0.0" type="curve"/>
      <point x="380.3157894736842" y="0.0" type="line"/>
      <point x="368.84210526315786" y="158.16842105263157"/>
      <point x="365.5578947368421" y="294.88421052631577"/>
      <point x="365.5578947368421" y="471.0736842105263" type="curve"/>
      <point x="365.5578947368421" y="923.2" type="line"/>
      <point x="365.5578947368421" y="1101.578947368421"/>
      <point x="368.84210526315786" y="1239.9368421052632"/>
      <point x="380.3157894736842" y="1399.7473684210527" type="curve"/>
      <point x="380.3157894736842" y="1426.0" type="line"/>
      <point x="174.4" y="1426.0" type="line"/>
      <point x="183.8736842105263" y="1266.1894736842105"/>
      <point x="187.70526315789473" y="1127.8315789473684"/>
      <point x="187.70526315789473" y="949.4526315789474" type="curve"/>
      <point x="187.70526315789473" y="471.0736842105263" type="line"/>
      <point x="187.70526315789473" y="294.88421052631577"/>
      <point x="183.8736842105263" y="158.16842105263157"/>
    </contour>
    <contour>
      <point x="322.3578947368421" y="638.1684210526316" type="line"/>
      <point x="583.7894736842105" y="638.1684210526316" type="line"/>
      <point x="763.578947368421" y="638.1684210526316"/>
      <point x="884.6526315789473" y="637.0736842105264"/>
      <point x="1016.6315789473684" y="630.6947368421053" type="curve"/>
      <point x="1016.6315789473684" y="799.7684210526317" type="line"/>
      <point x="892.1052631578947" y="789.9368421052632"/>
      <point x="769.578947368421" y="788.8421052631579"/>
      <point x="585.2421052631579" y="788.8421052631579" type="curve"/>
      <point x="322.3578947368421" y="788.8421052631579" type="line"/>
    </contour>
    <contour>
      <point x="331.11578947368423" y="1270.4" type="line"/>
      <point x="572.7157894736841" y="1270.4" type="line"/>
      <point x="779.578947368421" y="1270.4"/>
      <point x="922.8210526315789" y="1265.663157894737"/>
      <point x="1056.6105263157895" y="1254.7368421052633" type="curve"/>
      <point x="1056.6105263157895" y="1426.0" type="line"/>
      <point x="331.11578947368423" y="1426.0" type="line"/>
    </contour>
  </outline>
</glyph>
<glyph name="G" format="2">
  <advance width="1465.7894736842106"/>
  <unicode hex="0047"/>
  <anchor x="797.6210526315789" y="0.0" name="bottom"/>
  <anchor x="797.6210526315789" y="1426.0" name="top"/>
  <outline>
    <contour>
      <point x="859.9578947368421" y="-21.28421052631579" type="curve" smooth="yes"/>
      <point x="1044.3368421052633" y="-21.28421052631579"/>
      <point x="1235.1368421052632" y="24.526315789473685"/>
      <point x="1336.421052631579" y="57.95789473684211" type="curve"/>
      <point x="1305.8105263157895" y="233.93684210526317" type="line"/>
      <point x="1173.0736842105264" y="160.84210526315792"/>
      <point x="1022.0421052631579" y="131.74736842105264"/>
      <point x="872.5473684210526" y="131.74736842105264" type="curve"/>
      <point x="467.34736842105264" y="138.29473684210527"/>
      <point x="287.2631578947369" y="389.2631578947368"/>
      <point x="287.2631578947369" y="715.2631578947369" type="curve" smooth="yes"/>
      <point x="287.2631578947369" y="1075.2842105263157"/>
      <point x="511.70526315789476" y="1286.042105263158"/>
      <point x="810.5263157894738" y="1292.042105263158" type="curve"/>
      <point x="893.6210526315789" y="1292.042105263158"/>
      <point x="1069.621052631579" y="1254.9473684210527"/>
      <point x="1286.5684210526315" y="1161.6631578947367" type="curve"/>
      <point x="1303.1368421052632" y="1341.1157894736841" type="line"/>
      <point x="1178.3999999999999" y="1386.9263157894736"/>
      <point x="981.8526315789474" y="1452.1894736842105"/>
      <point x="811.6210526315789" y="1452.1894736842105" type="curve" smooth="yes"/>
      <point x="382.10526315789474" y="1452.1894736842105"/>
      <point x="100.29473684210527" y="1146.1894736842105"/>
      <point x="100.29473684210527" y="715.8105263157895" type="curve" smooth="yes"/>
      <point x="100.29473684210527" y="296.14736842105265"/>
      <point x="365.2421052631579" y="-21.28421052631579"/>
    </contour>
    <contour>
      <point x="1147.8315789473684" y="57.95789473684211" type="curve"/>
      <point x="1336.421052631579" y="57.95789473684211" type="line"/>
      <point x="1328.5894736842106" y="197.97894736842105"/>
      <point x="1327.4947368421053" y="298.3578947368421"/>
      <point x="1327.4947368421053" y="403.8315789473684" type="curve"/>
      <point x="1327.4947368421053" y="528.7578947368421"/>
      <point x="1330.778947368421" y="616.5894736842105"/>
      <point x="1340.8000000000002" y="715.5157894736842" type="curve"/>
      <point x="1140.9052631578945" y="715.5157894736842" type="line"/>
      <point x="1150.378947368421" y="616.5894736842105"/>
      <point x="1155.6631578947367" y="528.7578947368421"/>
      <point x="1155.6631578947367" y="403.8315789473684" type="curve"/>
      <point x="1155.6631578947367" y="298.3578947368421"/>
      <point x="1154.0210526315789" y="197.97894736842105"/>
    </contour>
  </outline>
</glyph>
<glyph name="H" format="2">
  <advance width="1506.0210526315789"/>
  <unicode hex="0048"/>
  <anchor x="753.2842105263157" y="0.0" name="bottom"/>
  <anchor x="753.2842105263157" y="714.0" name="center"/>
  <anchor x="753.2842105263157" y="1426.0" name="top"/>
  <anchor x="75.83157894736843" y="1426.0" name="topleft"/>
  <outline>
    <contour>
      <point x="1122.421052631579" y="0.0" type="curve"/>
      <point x="1331.621052631579" y="0.0" type="line"/>
      <point x="1320.1473684210525" y="158.16842105263157"/>
      <point x="1316.8631578947368" y="294.88421052631577"/>
      <point x="1316.8631578947368" y="471.0736842105263" type="curve"/>
      <point x="1316.8631578947368" y="949.4526315789474" type="line"/>
      <point x="1316.8631578947368" y="1127.8315789473684"/>
      <point x="1320.1473684210525" y="1266.1894736842105"/>
      <point x="1331.621052631579" y="1426.0" type="curve"/>
      <point x="1122.421052631579" y="1426.0" type="line"/>
      <point x="1131.8947368421052" y="1266.1894736842105"/>
      <point x="1135.7263157894736" y="1127.8315789473684"/>
      <point x="1135.7263157894736" y="949.4526315789474" type="curve"/>
      <point x="1135.7263157894736" y="471.0736842105263" type="line"/>
      <point x="1135.7263157894736" y="294.88421052631577"/>
      <point x="1131.8947368421052" y="158.16842105263157"/>
    </contour>
    <contour>
      <point x="174.4" y="0.0" type="curve"/>
      <point x="383.6" y="0.0" type="line"/>
      <point x="372.12631578947367" y="158.16842105263157"/>
      <point x="368.8421052631579" y="294.88421052631577"/>
      <point x="368.8421052631579" y="471.0736842105263" type="curve"/>
      <point x="368.8421052631579" y="949.4526315789474" type="line"/>
      <point x="368.8421052631579" y="1127.8315789473684"/>
      <point x="372.12631578947367" y="1266.1894736842105"/>
      <point x="383.6" y="1426.0" type="curve"/>
      <point x="174.4" y="1426.0" type="line"/>
      <point x="183.8736842105263" y="1266.1894736842105"/>
      <point x="187.70526315789473" y="1127.8315789473684"/>
      <point x="187.70526315789473" y="949.4526315789474" type="curve"/>
      <point x="187.70526315789473" y="471.0736842105263" type="line"/>
      <point x="187.70526315789473" y="294.88421052631577"/>
      <point x="183.8736842105263" y="158.16842105263157"/>
    </contour>
    <contour>
      <point x="304.94736842105266" y="644.1894736842105" type="line"/>
      <point x="1204.5263157894738" y="644.1894736842105" type="line"/>
      <point x="1204.5263157894738" y="799.7894736842105" type="line"/>
      <point x="304.94736842105266" y="799.7894736842105" type="line"/>
    </contour>
  </outline>
</glyph>
<glyph name="I" format="2">
  <advance width="566.2105263157895"/>
  <unicode hex="0049"/>
  <anchor x="279.91578947368424" y="0.0" name="bottom"/>
  <anchor x="386.33684210526314" y="0.0" name="ogonek"/>
  <anchor x="279.91578947368424" y="1426.0" name="top"/>
  <anchor x="70.71578947368421" y="1426.0" name="topleft"/>
  <outline>
    <contour>
      <point x="177.13684210526316" y="0.0" type="curve"/>
      <point x="389.0736842105263" y="0.0" type="line"/>
      <point x="377.59999999999997" y="158.16842105263157"/>
      <point x="374.3157894736842" y="294.88421052631577"/>
      <point x="374.3157894736842" y="471.0736842105263" type="curve"/>
      <point x="374.3157894736842" y="949.4526315789474" type="line"/>
      <point x="374.3157894736842" y="1127.8315789473684"/>
      <point x="377.59999999999997" y="1266.1894736842105"/>
      <point x="389.0736842105263" y="1426.0" type="curve"/>
      <point x="177.13684210526316" y="1426.0" type="line"/>
      <point x="186.61052631578946" y="1266.1894736842105"/>
      <point x="190.44210526315788" y="1127.8315789473684"/>
      <point x="190.44210526315788" y="949.4526315789474" type="curve"/>
      <point x="190.44210526315788" y="471.0736842105263" type="line"/>
      <point x="190.44210526315788" y="294.88421052631577"/>
      <point x="186.61052631578946" y="158.16842105263157"/>
    </contour>
  </outline>
</glyph>
<glyph name="J" format="2">
  <advance width="589.0736842105263"/>
  <unicode hex="004A"/>
  <anchor x="303.5157894736842" y="0.0" name="bottom"/>
  <anchor x="303.5157894736842" y="1426.0" name="top"/>
  <outline>
    <contour>
      <point x="32.8421052631579" y="-315.62105263157895" type="curve"/>
      <point x="232.10526315789474" y="-315.62105263157895" type="line"/>
      <point x="305.2" y="-224.52631578947367"/>
      <point x="406.2947368421053" y="-77.62105263157895"/>
      <point x="406.2947368421053" y="124.58947368421053" type="curve" smooth="yes"/>
      <point x="406.2947368421053" y="268.82105263157894"/>
      <point x="397.17894736842106" y="425.0526315789474"/>
      <point x="397.17894736842106" y="591.6421052631579" type="curve"/>
      <point x="397.17894736842106" y="949.4526315789474" type="line"/>
      <point x="397.17894736842106" y="1127.8315789473684"/>
      <point x="400.46315789473687" y="1266.1894736842105"/>
      <point x="411.93684210526317" y="1426.0" type="curve"/>
      <point x="202.73684210526315" y="1426.0" type="line"/>
      <point x="212.21052631578945" y="1266.1894736842105"/>
      <point x="216.04210526315788" y="1127.8315789473684"/>
      <point x="216.04210526315788" y="949.4526315789474" type="curve"/>
      <point x="216.04210526315788" y="546.6105263157895" type="line"/>
      <point x="214.58947368421053" y="135.5157894736842" type="line"/>
      <point x="214.58947368421053" y="-50.46315789473684"/>
      <point x="141.3684210526316" y="-185.9578947368421"/>
    </contour>
  </outline>
</glyph>
<glyph name="K" format="2">
  <advance width="1341.621052631579"/>
  <unicode hex="004B"/>
  <anchor x="688.0842105263157" y="0.0" name="bottom"/>
  <anchor x="688.0842105263157" y="1426.0" name="top"/>
  <outline>
    <contour>
      <point x="1042.6315789473686" y="0.0" type="curve"/>
      <point x="1302.063157894737" y="0.0" type="line"/>
      <point x="1175.915789473684" y="121.83157894736843"/>
      <point x="986.1684210526315" y="320.9684210526316"/>
      <point x="847.1368421052631" y="469.7263157894737" type="curve"/>
      <point x="547.2631578947369" y="792.8842105263158" type="line"/>
      <point x="550.0" y="713.4315789473684" type="line"/>
      <point x="818.2526315789473" y="987.2631578947369" type="line"/>
      <point x="961.2842105263157" y="1132.0"/>
      <point x="1103.7684210526315" y="1275.6421052631579"/>
      <point x="1264.084210526316" y="1426.0" type="curve"/>
      <point x="1013.221052631579" y="1426.0" type="line"/>
      <point x="880.2736842105263" y="1276.4"/>
      <point x="782.9052631578948" y="1172.9684210526316"/>
      <point x="670.0842105263157" y="1057.7263157894736" type="curve"/>
      <point x="430.27368421052637" y="811.978947368421" type="line"/>
      <point x="347.91578947368424" y="811.978947368421" type="line"/>
      <point x="347.91578947368424" y="663.4947368421052" type="line"/>
      <point x="431.0105263157895" y="663.4947368421052" type="line"/>
      <point x="707.6842105263157" y="370.10526315789474" type="line"/>
      <point x="815.4105263157894" y="257.2210526315789"/>
      <point x="921.1368421052631" y="140.8842105263158"/>
    </contour>
    <contour>
      <point x="174.4" y="0.0" type="curve"/>
      <point x="383.0526315789474" y="0.0" type="line"/>
      <point x="371.57894736842104" y="158.16842105263157"/>
      <point x="368.2947368421053" y="294.88421052631577"/>
      <point x="368.2947368421053" y="471.0736842105263" type="curve"/>
      <point x="368.2947368421053" y="949.4526315789474" type="line"/>
      <point x="368.2947368421053" y="1127.8315789473684"/>
      <point x="371.57894736842104" y="1266.1894736842105"/>
      <point x="383.0526315789474" y="1426.0" type="curve"/>
      <point x="174.4" y="1426.0" type="line"/>
      <point x="183.8736842105263" y="1266.1894736842105"/>
      <point x="187.70526315789473" y="1127.8315789473684"/>
      <point x="187.70526315789473" y="949.4526315789474" type="curve"/>
      <point x="187.70526315789473" y="471.0736842105263" type="line"/>
      <point x="187.70526315789473" y="294.88421052631577"/>
      <point x="183.8736842105263" y="158.16842105263157"/>
    </contour>
  </outline>
</glyph>
<glyph name="L" format="2">
  <advance width="1139.1157894736843"/>
  <unicode hex="004C"/>
  <anchor x="626.5052631578948" y="0.0" name="bottom"/>
  <anchor x="847.5368421052632" y="715.6421052631579" name="center"/>
  <anchor x="405.0526315789474" y="1426.0" name="top"/>
  <anchor x="567.7473684210527" y="992.3789473684211" name="topright"/>
  <outline>
    <contour>
      <point x="174.4" y="0.0" type="curve"/>
      <point x="383.6" y="0.0" type="line"/>
      <point x="383.6" y="27.705263157894738" type="line"/>
      <point x="372.12631578947367" y="185.8736842105263"/>
      <point x="368.8421052631579" y="322.58947368421053"/>
      <point x="368.8421052631579" y="498.77894736842103" type="curve"/>
      <point x="368.8421052631579" y="949.4526315789474" type="line"/>
      <point x="368.8421052631579" y="1127.8315789473684"/>
      <point x="372.12631578947367" y="1266.1894736842105"/>
      <point x="383.6" y="1426.0" type="curve"/>
      <point x="174.4" y="1426.0" type="line"/>
      <point x="183.8736842105263" y="1266.1894736842105"/>
      <point x="187.70526315789473" y="1127.8315789473684"/>
      <point x="187.70526315789473" y="949.4526315789474" type="curve"/>
      <point x="187.70526315789473" y="471.0736842105263" type="line"/>
      <point x="187.70526315789473" y="294.88421052631577"/>
      <point x="183.8736842105263" y="158.16842105263157"/>
    </contour>
    <contour>
      <point x="342.6105263157895" y="0.0" type="line"/>
      <point x="1070.778947368421" y="0.0" type="line"/>
      <point x="1070.778947368421" y="180.56842105263158" type="line"/>
      <point x="914.8210526315789" y="166.90526315789475"/>
      <point x="782.6736842105263" y="161.07368421052632"/>
      <point x="554.1894736842105" y="161.07368421052632" type="curve"/>
      <point x="342.6105263157895" y="161.07368421052632" type="line"/>
    </contour>
  </outline>
</glyph>
<glyph name="M" format="2">
  <advance width="1911.4947368421053"/>
  <unicode hex="004D"/>
  <anchor x="955.4736842105264" y="0.0" name="bottom"/>
  <anchor x="955.4736842105264" y="1426.0" name="top"/>
  <outline>
    <contour>
      <point x="118.61052631578947" y="0.0" type="curve"/>
      <point x="322.5052631578947" y="0.0" type="line"/>
      <point x="339.36842105263156" y="252.4"/>
      <point x="362.06315789473683" y="482.0842105263158"/>
      <point x="386.2315789473684" y="679.7894736842105" type="curve"/>
      <point x="438.0210526315789" y="1106.2736842105264" type="line"/>
      <point x="451.13684210526316" y="1106.2736842105264" type="line"/>
      <point x="638.2736842105263" y="643.4526315789474" type="line"/>
      <point x="724.7578947368421" y="429.0315789473684"/>
      <point x="816.4842105263158" y="182.82105263157894"/>
      <point x="882.7789473684211" y="0.0" type="curve"/>
      <point x="1035.6421052631579" y="0.0" type="line"/>
      <point x="1104.2947368421053" y="193.89473684210526"/>
      <point x="1190.5684210526315" y="425.0315789473684"/>
      <point x="1277.221052631579" y="646.3578947368421" type="curve"/>
      <point x="1458.336842105263" y="1106.2736842105264" type="line"/>
      <point x="1471.4526315789474" y="1106.2736842105264" type="line"/>
      <point x="1523.2421052631578" y="679.7894736842105" type="line"/>
      <point x="1547.4105263157894" y="482.0842105263158"/>
      <point x="1568.6526315789474" y="251.85263157894738"/>
      <point x="1586.0631578947368" y="0.0" type="curve"/>
      <point x="1792.8842105263159" y="0.0" type="line"/>
      <point x="1763.957894736842" y="157.62105263157895"/>
      <point x="1742.1263157894737" y="298.5263157894737"/>
      <point x="1721.578947368421" y="471.0736842105263" type="curve"/>
      <point x="1663.3894736842105" y="945.4526315789474" type="line"/>
      <point x="1641.3894736842105" y="1120.3578947368421"/>
      <point x="1627.0315789473684" y="1264.1894736842105"/>
      <point x="1615.4105263157896" y="1426.0" type="curve"/>
      <point x="1405.4947368421053" y="1426.0" type="line"/>
      <point x="1336.842105263158" y="1221.0105263157895"/>
      <point x="1266.0" y="1036.4"/>
      <point x="1189.8736842105263" y="850.1473684210526" type="curve"/>
      <point x="966.4" y="297.20000000000005" type="line"/>
      <point x="952.378947368421" y="297.20000000000005" type="line"/>
      <point x="726.1684210526315" y="850.1473684210526" type="line"/>
      <point x="649.4947368421052" y="1036.4"/>
      <point x="577.0105263157894" y="1221.5578947368422"/>
      <point x="508.35789473684207" y="1426.0" type="curve"/>
      <point x="294.2526315789474" y="1426.0" type="line"/>
      <point x="284.63157894736844" y="1262.1894736842105"/>
      <point x="270.82105263157894" y="1117.4526315789474"/>
      <point x="248.82105263157897" y="945.4526315789474" type="curve"/>
      <point x="190.27368421052634" y="471.0736842105263" type="line"/>
      <point x="168.27368421052634" y="297.62105263157895"/>
      <point x="146.4421052631579" y="155.97894736842105"/>
    </contour>
  </outline>
</glyph>
<glyph name="N" format="2">
  <advance width="1514.9052631578948"/>
  <unicode hex="004E"/>
  <anchor x="758.0" y="0.0" name="bottom"/>
  <anchor x="758.0" y="1426.0" name="top"/>
  <outline>
    <contour>
      <point x="174.4" y="0.0" type="curve"/>
      <point x="374.2947368421053" y="0.0" type="line"/>
      <point x="362.82105263157894" y="158.16842105263157"/>
      <point x="359.5368421052632" y="294.88421052631577"/>
      <point x="359.5368421052632" y="471.0736842105263" type="curve"/>
      <point x="359.5368421052632" y="1117.8736842105263" type="line"/>
      <point x="374.10526315789474" y="1117.8736842105263" type="line"/>
      <point x="684.9894736842105" y="678.1473684210526" type="line"/>
      <point x="870.3157894736842" y="416.3157894736842"/>
      <point x="1018.2105263157895" y="203.53684210526316"/>
      <point x="1149.9157894736843" y="0.0" type="curve"/>
      <point x="1340.505263157895" y="0.0" type="line"/>
      <point x="1329.0315789473684" y="158.16842105263157"/>
      <point x="1325.7473684210527" y="294.88421052631577"/>
      <point x="1325.7473684210527" y="471.0736842105263" type="curve"/>
      <point x="1325.7473684210527" y="949.4526315789474" type="line"/>
      <point x="1325.7473684210527" y="1127.8315789473684"/>
      <point x="1329.0315789473684" y="1266.1894736842105"/>
      <point x="1340.505263157895" y="1426.0" type="curve"/>
      <point x="1140.6105263157895" y="1426.0" type="line"/>
      <point x="1150.0842105263157" y="1266.1894736842105"/>
      <point x="1153.915789473684" y="1127.8315789473684"/>
      <point x="1153.915789473684" y="949.4526315789474" type="curve"/>
      <point x="1153.915789473684" y="313.93684210526317" type="line"/>
      <point x="1138.8" y="313.93684210526317" type="line"/>
      <point x="829.5578947368421" y="750.2105263157895" type="line"/>
      <point x="677.6631578947369" y="963.3473684210527"/>
      <point x="527.6" y="1185.0315789473684"/>
      <point x="370.82105263157894" y="1426.0" type="curve"/>
      <point x="174.4" y="1426.0" type="line"/>
      <point x="183.8736842105263" y="1266.1894736842105"/>
      <point x="187.70526315789473" y="1127.8315789473684"/>
      <point x="187.70526315789473" y="949.4526315789474" type="curve"/>
      <point x="187.70526315789473" y="471.0736842105263" type="line"/>
      <point x="187.70526315789473" y="294.88421052631577"/>
      <point x="183.8736842105263" y="158.16842105263157"/>
    </contour>
  </outline>
</glyph>
<glyph name="S" format="2">
  <advance width="1172.712643678161"/>
  <unicode hex="0053"/>
  <anchor x="594.3678160919541" y="0.0" name="bottom"/>
  <anchor x="594.3678160919541" y="1426.0" name="top"/>
  <outline>
    <contour>
      <point x="599.2183908045977" y="-21.586206896551722" type="curve" smooth="yes"/>
      <point x="942.2988505747127" y="-21.586206896551722"/>
      <point x="1092.2528735632184" y="154.02298850574712"/>
      <point x="1092.2528735632184" y="386.735632183908" type="curve" smooth="yes"/>
      <point x="1092.2528735632184" y="599.0344827586207"/>
      <point x="983.0574712643678" y="695.0344827586207"/>
      <point x="640.2528735632184" y="804.2528735632184" type="curve" smooth="yes"/>
      <point x="401.67816091954023" y="880.3218390804598"/>
      <point x="299.60919540229884" y="935.9540229885057"/>
      <point x="299.60919540229884" y="1070.8735632183907" type="curve" smooth="yes"/>
      <point x="299.60919540229884" y="1225.080459770115"/>
      <point x="434.55172413793105" y="1291.5402298850574"/>
      <point x="590.2988505747126" y="1295.5402298850574" type="curve"/>
      <point x="664.2988505747127" y="1295.5402298850574"/>
      <point x="816.2758620689656" y="1260.344827586207"/>
      <point x="987.8620689655172" y="1180.735632183908" type="curve"/>
      <point x="1005.8390804597701" y="1359.1494252873563" type="line"/>
      <point x="899.448275862069" y="1393.9770114942528"/>
      <point x="719.9310344827586" y="1452.3908045977012"/>
      <point x="575.9770114942529" y="1452.3908045977012" type="curve" smooth="yes"/>
      <point x="268.8735632183908" y="1452.3908045977012"/>
      <point x="109.28735632183907" y="1286.4137931034484"/>
      <point x="109.28735632183907" y="1063.7011494252874" type="curve" smooth="yes"/>
      <point x="109.28735632183907" y="836.5977011494252"/>
      <point x="265.7011494252873" y="745.0114942528736"/>
      <point x="538.1379310344828" y="660.183908045977" type="curve" smooth="yes"/>
      <point x="769.471264367816" y="588.528735632184"/>
      <point x="903.1264367816092" y="528.0919540229885"/>
      <point x="903.1264367816092" y="377.17241379310343" type="curve" smooth="yes"/>
      <point x="903.1264367816092" y="202.5287356321839"/>
      <point x="766.9885057471264" y="136.45977011494256"/>
      <point x="598.0229885057472" y="134.0689655172414" type="curve"/>
      <point x="467.60919540229884" y="134.0689655172414"/>
      <point x="301.264367816092" y="178.45977011494256"/>
      <point x="145.6551724137931" y="246.45977011494253" type="curve"/>
      <point x="128.8735632183908" y="68.45977011494253" type="line"/>
      <point x="236.87356321839079" y="36.43678160919541"/>
      <point x="400.87356321839076" y="-21.586206896551722"/>
    </contour>
  </outline>
</glyph>
<glyph name="T" format="2">
  <advance width="1281.6631578947367"/>
  <unicode hex="0054"/>
  <anchor x="641.8315789473684" y="0.0" name="bottom"/>
  <anchor x="641.8315789473684" y="682.2526315789473" name="center"/>
  <anchor x="641.8315789473684" y="1426.0" name="top"/>
  <outline>
    <contour>
      <point x="537.9578947368421" y="0.0" type="curve"/>
      <point x="746.6105263157895" y="0.0" type="line"/>
      <point x="735.1368421052631" y="158.16842105263157"/>
      <point x="731.8526315789474" y="294.88421052631577"/>
      <point x="731.8526315789474" y="471.0736842105263" type="curve"/>
      <point x="731.8526315789474" y="923.2" type="line"/>
      <point x="731.8526315789474" y="1101.578947368421"/>
      <point x="736.5894736842105" y="1239.9368421052632"/>
      <point x="746.6105263157895" y="1399.7473684210527" type="curve"/>
      <point x="746.6105263157895" y="1426.0" type="line"/>
      <point x="536.5052631578948" y="1426.0" type="line"/>
      <point x="536.5052631578948" y="1399.7473684210527" type="line"/>
      <point x="546.5263157894738" y="1239.9368421052632"/>
      <point x="551.2631578947369" y="1101.578947368421"/>
      <point x="551.2631578947369" y="923.2" type="curve"/>
      <point x="551.2631578947369" y="471.0736842105263" type="line"/>
      <point x="551.2631578947369" y="294.88421052631577"/>
      <point x="547.9789473684211" y="158.16842105263157"/>
    </contour>
    <contour>
      <point x="61.78947368421053" y="1245.4315789473683" type="line"/>
      <point x="173.76842105263157" y="1257.6421052631579"/>
      <point x="291.7473684210526" y="1264.9263157894736"/>
      <point x="453.53684210526313" y="1264.9263157894736" type="curve"/>
      <point x="580.9684210526316" y="1264.9263157894736" type="line"/>
      <point x="580.9684210526316" y="1426.0" type="line"/>
      <point x="61.78947368421053" y="1426.0" type="line"/>
    </contour>
    <contour>
      <point x="700.6947368421053" y="1264.9263157894736" type="line"/>
      <point x="828.1263157894737" y="1264.9263157894736" type="line"/>
      <point x="989.9157894736842" y="1264.9263157894736"/>
      <point x="1109.3473684210526" y="1259.0947368421052"/>
      <point x="1219.8736842105263" y="1245.4315789473683" type="curve"/>
      <point x="1219.8736842105263" y="1426.0" type="line"/>
      <point x="700.6947368421053" y="1426.0" type="line"/>
    </contour>
  </outline>
</glyph>
<glyph name="V" format="2">
  <advance width="1375.4105263157894"/>
  <unicode hex="0056"/>
  <anchor x="689.1578947368421" y="0.0" name="bottom"/>
  <anchor x="689.1578947368421" y="1426.0" name="top"/>
  <outline>
    <contour>
      <point x="553.2210526315789" y="0.0" type="curve"/>
      <point x="825.2631578947369" y="0.0" type="line"/>
      <point x="869.0526315789474" y="145.45263157894738"/>
      <point x="923.2" y="312.5473684210526"/>
      <point x="972.8210526315789" y="450.5473684210526" type="curve"/>
      <point x="1132.042105263158" y="900.0" type="line"/>
      <point x="1187.1157894736841" y="1054.5473684210526"/>
      <point x="1264.9263157894736" y="1259.2842105263157"/>
      <point x="1336.5684210526317" y="1426.0" type="curve"/>
      <point x="1107.3263157894737" y="1426.0" type="line"/>
      <point x="1044.8631578947368" y="1217.7052631578947"/>
      <point x="970.2105263157895" y="981.4105263157895"/>
      <point x="900.6315789473684" y="774.7578947368421" type="curve"/>
      <point x="698.2526315789473" y="187.49473684210528" type="line"/>
      <point x="680.7789473684211" y="187.49473684210528" type="line"/>
      <point x="480.2315789473684" y="772.7578947368421" type="line"/>
      <point x="410.29473684210524" y="975.6"/>
      <point x="329.2842105263158" y="1220.6105263157895"/>
      <point x="269.7263157894737" y="1426.0" type="curve"/>
      <point x="36.8421052631579" y="1426.0" type="line"/>
      <point x="111.93684210526315" y="1257.2842105263157"/>
      <point x="189.20000000000002" y="1053.0947368421052"/>
      <point x="243.7263157894737" y="900.0" type="curve"/>
      <point x="404.7578947368421" y="452.0" type="line"/>
      <point x="453.2842105263158" y="316.5473684210526"/>
      <point x="509.9789473684211" y="142.54736842105262"/>
    </contour>
  </outline>
</glyph>
<glyph name="W" format="2">
  <advance width="2040.1473684210525"/>
  <unicode hex="0057"/>
  <anchor x="1016.0631578947368" y="0.0" name="bottom"/>
  <anchor x="1016.0631578947368" y="1426.0" name="top"/>
  <outline>
    <contour>
      <point x="450.94736842105266" y="0.0" type="curve"/>
      <point x="703.2421052631579" y="0.0" type="line"/>
      <point x="745.3684210526316" y="192.63157894736844"/>
      <point x="802.7578947368421" y="424.69473684210527"/>
      <point x="854.1684210526316" y="615.6842105263158" type="curve"/>
      <point x="1003.4947368421052" y="1172.1263157894737" type="line"/>
      <point x="1020.9684210526316" y="1172.1263157894737" type="line"/>
      <point x="1172.842105263158" y="616.2315789473685" type="line"/>
      <point x="1224.8" y="424.69473684210527"/>
      <point x="1282.1894736842105" y="194.0842105263158"/>
      <point x="1325.7684210526318" y="0.0" type="curve"/>
      <point x="1587.915789473684" y="0.0" type="line"/>
      <point x="1615.8947368421052" y="137.09473684210525"/>
      <point x="1662.9684210526316" y="310.5473684210526"/>
      <point x="1704.2315789473685" y="451.4526315789474" type="curve"/>
      <point x="1835.1157894736841" y="900.0" type="line"/>
      <point x="1880.378947368421" y="1057.4526315789474"/>
      <point x="1940.9263157894736" y="1256.7368421052631"/>
      <point x="2006.4" y="1426.0" type="curve"/>
      <point x="1773.8736842105263" y="1426.0" type="line"/>
      <point x="1728.842105263158" y="1224.9894736842105"/>
      <point x="1668.5473684210526" y="987.2631578947369"/>
      <point x="1615.3263157894737" y="789.3473684210526" type="curve"/>
      <point x="1461.4736842105262" y="213.57894736842107" type="line"/>
      <point x="1444.0" y="213.57894736842107" type="line"/>
      <point x="1292.1263157894737" y="787.3473684210526" type="line"/>
      <point x="1237.2631578947369" y="990.1684210526316"/>
      <point x="1181.3263157894737" y="1222.0842105263157"/>
      <point x="1136.294736842105" y="1426.0" type="curve"/>
      <point x="900.4" y="1426.0" type="line"/>
      <point x="858.2736842105263" y="1226.4421052631578"/>
      <point x="798.8842105263158" y="984.3578947368421"/>
      <point x="747.4736842105264" y="789.3473684210526" type="curve"/>
      <point x="598.1473684210526" y="213.57894736842107" type="line"/>
      <point x="580.6736842105263" y="213.57894736842107" type="line"/>
      <point x="428.2736842105263" y="784.4421052631579" type="line"/>
      <point x="373.6" y="987.2631578947369"/>
      <point x="314.75789473684216" y="1222.0842105263157"/>
      <point x="268.2736842105263" y="1426.0" type="curve"/>
      <point x="35.2" y="1426.0" type="line"/>
      <point x="98.3157894736842" y="1259.0947368421052"/>
      <point x="161.57894736842104" y="1054.5473684210526"/>
      <point x="206.8421052631579" y="897.0947368421052" type="curve"/>
      <point x="335.17894736842106" y="450.0" type="line"/>
      <point x="374.4421052631579" y="312.5473684210526"/>
      <point x="419.51578947368415" y="142.54736842105265"/>
    </contour>
  </outline>
</glyph>
<glyph name="X" format="2">
  <advance width="1372.1894736842105"/>
  <unicode hex="0058"/>
  <outline>
    <contour>
      <point x="61.01052631578947" y="0.0" type="curve"/>
      <point x="298.06315789473683" y="0.0" type="line"/>
      <point x="366.8842105263158" y="125.76842105263158"/>
      <point x="429.3684210526316" y="233.3684210526316"/>
      <point x="496.40000000000003" y="340.58947368421053" type="curve"/>
      <point x="657.5368421052631" y="599.9368421052632" type="line"/>
      <point x="675.0105263157894" y="599.9368421052632" type="line"/>
      <point x="847.4105263157894" y="342.0421052631579" type="line"/>
      <point x="916.4421052631578" y="239.17894736842106"/>
      <point x="990.378947368421" y="125.76842105263158"/>
      <point x="1064.1052631578948" y="0.0" type="curve"/>
      <point x="1312.821052631579" y="0.0" type="line"/>
      <point x="1195.0105263157893" y="147.26315789473685"/>
      <point x="1098.4842105263158" y="282.35789473684207"/>
      <point x="992.6947368421053" y="438.5473684210526" type="curve"/>
      <point x="781.3052631578947" y="749.6421052631579" type="line"/>
      <point x="781.3052631578947" y="692.1052631578947" type="line"/>
      <point x="986.3368421052631" y="1018.5052631578948" type="line"/>
      <point x="1060.3157894736842" y="1136.336842105263"/>
      <point x="1152.2947368421053" y="1277.8105263157895"/>
      <point x="1263.578947368421" y="1426.0" type="curve"/>
      <point x="1025.0736842105264" y="1426.0" type="line"/>
      <point x="954.0631578947368" y="1300.4"/>
      <point x="880.8631578947368" y="1173.536842105263"/>
      <point x="811.8315789473684" y="1062.6736842105263" type="curve"/>
      <point x="677.578947368421" y="847.1157894736842" type="line"/>
      <point x="660.1052631578947" y="847.1157894736842" type="line"/>
      <point x="521.8526315789474" y="1061.221052631579" type="line"/>
      <point x="450.821052631579" y="1170.6315789473686"/>
      <point x="375.0736842105263" y="1296.5894736842106"/>
      <point x="302.06315789473683" y="1426.0" type="curve"/>
      <point x="60.82105263157895" y="1426.0" type="line"/>
      <point x="180.82105263157897" y="1267.0947368421052"/>
      <point x="269.7052631578947" y="1132.3578947368421"/>
      <point x="358.0421052631579" y="998.1684210526316" type="curve"/>
      <point x="549.978947368421" y="704.5263157894736" type="line"/>
      <point x="549.978947368421" y="757.6842105263158" type="line"/>
      <point x="331.3263157894737" y="406.2105263157895" type="line"/>
      <point x="239.53684210526316" y="258.37894736842105"/>
      <point x="154.10526315789474" y="128.73684210526315"/>
    </contour>
  </outline>
</glyph>
<glyph name="Y" format="2">
  <advance width="1305.0736842105264"/>
  <unicode hex="0059"/>
  <anchor x="655.1789473684211" y="0.0" name="bottom"/>
  <anchor x="655.1789473684211" y="1426.0" name="top"/>
  <anchor x="40.0" y="1426.0" name="topleft"/>
  <outline>
    <contour>
      <point x="568.8" y="557.3052631578947" type="line"/>
      <point x="741.0105263157894" y="557.3052631578947" type="line"/>
      <point x="1052.2315789473685" y="1085.0315789473684" type="line"/>
      <point x="1117.4947368421053" y="1195.6"/>
      <point x="1187.8526315789472" y="1310.5263157894738"/>
      <point x="1268.421052631579" y="1426.0" type="curve"/>
      <point x="1032.0842105263157" y="1426.0" type="line"/>
      <point x="939.1157894736842" y="1235.7052631578947"/>
      <point x="886.4421052631579" y="1138.463157894737"/>
      <point x="798.5263157894736" y="986.1684210526316" type="curve"/>
      <point x="664.4631578947368" y="751.8947368421053" type="line"/>
      <point x="645.8947368421052" y="751.8947368421053" type="line"/>
      <point x="508.0210526315789" y="993.978947368421" type="line"/>
      <point x="424.4631578947368" y="1139.9157894736843"/>
      <point x="374.69473684210527" y="1233.7052631578947"/>
      <point x="280.2736842105263" y="1426.0" type="curve"/>
      <point x="39.01052631578948" y="1426.0" type="line"/>
      <point x="133.57894736842104" y="1291.9789473684211"/>
      <point x="192.1263157894737" y="1197.0526315789473"/>
      <point x="257.93684210526317" y="1085.0315789473684" type="curve"/>
    </contour>
    <contour>
      <point x="551.3052631578947" y="0.0" type="curve"/>
      <point x="760.5052631578948" y="0.0" type="line"/>
      <point x="749.0315789473685" y="158.16842105263157"/>
      <point x="745.7473684210527" y="294.88421052631577"/>
      <point x="745.7473684210527" y="471.0736842105263" type="curve"/>
      <point x="745.7473684210527" y="708.3789473684211" type="line"/>
      <point x="564.6105263157895" y="708.3789473684211" type="line"/>
      <point x="564.6105263157895" y="471.0736842105263" type="line"/>
      <point x="564.6105263157895" y="294.88421052631577"/>
      <point x="560.7789473684211" y="158.16842105263157"/>
    </contour>
  </outline>
</glyph>
<glyph name="Z" format="2">
  <advance width="1342.6315789473683"/>
  <unicode hex="005A"/>
  <anchor x="672.0421052631579" y="0.0" name="bottom"/>
  <anchor x="672.0421052631579" y="714.0" name="center"/>
  <anchor x="672.0421052631579" y="1426.0" name="top"/>
  <outline>
    <contour>
      <point x="96.3157894736842" y="0.0" type="line"/>
      <point x="1239.0526315789473" y="0.0" type="line"/>
      <point x="1239.0526315789473" y="176.54736842105262" type="line"/>
      <point x="1078.378947368421" y="158.8842105263158"/>
      <point x="818.1052631578948" y="155.05263157894737"/>
      <point x="639.621052631579" y="155.05263157894737" type="curve"/>
      <point x="267.74736842105267" y="155.05263157894737" type="line"/>
      <point x="294.65263157894736" y="78.96842105263158" type="line"/>
      <point x="868.0842105263158" y="822.4842105263158" type="line"/>
      <point x="987.4947368421052" y="978.421052631579"/>
      <point x="1107.4526315789474" y="1133.8105263157895"/>
      <point x="1230.8631578947368" y="1280.4421052631578" type="curve"/>
      <point x="1230.8631578947368" y="1426.0" type="line"/>
      <point x="112.14736842105263" y="1426.0" type="line"/>
      <point x="112.14736842105263" y="1248.7157894736843" type="line"/>
      <point x="314.9894736842105" y="1265.663157894737"/>
      <point x="505.4736842105263" y="1270.9473684210527"/>
      <point x="673.6" y="1270.9473684210527" type="curve"/>
      <point x="1081.2842105263157" y="1270.9473684210527" type="line"/>
      <point x="1038.5684210526315" y="1335.4105263157894" type="line"/>
      <point x="496.7368421052632" y="626.3789473684211" type="line"/>
      <point x="377.13684210526316" y="469.70526315789476"/>
      <point x="208.46315789473684" y="252.14736842105262"/>
      <point x="96.3157894736842" y="123.87368421052632" type="curve"/>
    </contour>
  </outline>
</glyph>
<glyph name="bracketleft" format="2">
  <advance width="744.7368421052631"/>
  <unicode hex="005B"/>
  <outline>
    <contour>
      <point x="179.68421052631578" y="-233.85263157894738" type="curve"/>
      <point x="360.61052631578946" y="-233.85263157894738" type="line"/>
      <point x="360.61052631578946" y="-206.14736842105262" type="line"/>
      <point x="349.13684210526316" y="-47.97894736842105"/>
      <point x="345.85263157894735" y="88.73684210526316"/>
      <point x="345.85263157894735" y="264.9263157894737" type="curve"/>
      <point x="345.85263157894735" y="1029.7894736842106" type="line"/>
      <point x="345.85263157894735" y="1208.1684210526316"/>
      <point x="349.13684210526316" y="1346.5263157894738"/>
      <point x="360.61052631578946" y="1506.3368421052633" type="curve"/>
      <point x="360.61052631578946" y="1532.5894736842106" type="line"/>
      <point x="179.68421052631578" y="1532.5894736842106" type="line"/>
      <point x="187.5157894736842" y="1372.778947368421"/>
      <point x="191.34736842105264" y="1234.421052631579"/>
      <point x="191.34736842105264" y="1056.042105263158" type="curve"/>
      <point x="191.34736842105264" y="237.22105263157894" type="line"/>
      <point x="191.34736842105264" y="61.031578947368416"/>
      <point x="187.5157894736842" y="-75.6842105263158"/>
    </contour>
    <contour>
      <point x="322.90526315789475" y="-233.85263157894738" type="line"/>
      <point x="712.3368421052631" y="-233.85263157894738" type="line"/>
      <point x="712.3368421052631" y="-87.01052631578948" type="line"/>
      <point x="618.1684210526316" y="-93.93684210526315"/>
      <point x="517.4526315789474" y="-95.57894736842105"/>
      <point x="403.8315789473684" y="-95.57894736842105" type="curve"/>
      <point x="322.90526315789475" y="-95.57894736842105" type="line"/>
    </contour>
    <contour>
      <point x="314.14736842105265" y="1394.3157894736842" type="line"/>
      <point x="392.9052631578947" y="1394.3157894736842" type="line"/>
      <point x="528.5263157894738" y="1394.3157894736842"/>
      <point x="622.3368421052631" y="1391.0315789473684"/>
      <point x="711.0526315789474" y="1385.7473684210527" type="curve"/>
      <point x="711.0526315789474" y="1532.5894736842106" type="line"/>
      <point x="314.14736842105265" y="1532.5894736842106" type="line"/>
    </contour>
  </outline>
</glyph>
<glyph name="backslash" format="2">
  <advance width="901.7263157894737"/>
  <unicode hex="005C"/>
  <outline>
    <contour>
      <point x="661.4105263157895" y="0.0" type="curve"/>
      <point x="848.7157894736843" y="0.0" type="line"/>
      <point x="777.4315789473685" y="148.0"/>
      <point x="720.7157894736843" y="274.0"/>
      <point x="642.1894736842106" y="456.0" type="curve"/>
      <point x="430.42105263157896" y="952.0" type="line"/>
      <point x="349.89473684210526" y="1141.4526315789474"/>
      <point x="296.2736842105263" y="1272.0"/>
      <point x="239.7684210526316" y="1426.0" type="curve"/>
      <point x="53.01052631578947" y="1426.0" type="line"/>
      <point x="129.2" y="1272.0"/>
      <point x="185.9157894736842" y="1142.0"/>
      <point x="268.4421052631579" y="948.0" type="curve"/>
      <point x="478.2105263157895" y="456.0" type="line"/>
      <point x="556.7368421052632" y="274.0"/>
      <point x="608.3578947368421" y="148.0"/>
    </contour>
  </outline>
</glyph>
<glyph name="asciicircum" format="2">
  <advance width="1217.221052631579"/>
  <unicode hex="005E"/>
  <outline>
    <contour>
      <point x="942.6315789473684" y="757.8947368421052" type="curve"/>
      <point x="1099.2842105263157" y="760.4421052631579" type="line"/>
      <point x="968.9473684210526" y="963.3894736842105"/>
      <point x="841.1578947368421" y="1168.3368421052633"/>
      <point x="727.3894736842105" y="1371.2842105263157" type="curve"/>
      <point x="489.8315789473684" y="1371.2842105263157" type="line"/>
      <point x="376.06315789473683" y="1168.3368421052633"/>
      <point x="248.2736842105263" y="967.3894736842105"/>
      <point x="117.93684210526315" y="764.4421052631579" type="curve"/>
      <point x="275.1368421052632" y="764.4421052631579" type="line"/>
      <point x="387.8105263157895" y="918.378947368421"/>
      <point x="493.38947368421054" y="1074.3157894736842"/>
      <point x="599.8736842105263" y="1228.2526315789473" type="curve"/>
      <point x="617.3473684210526" y="1228.2526315789473" type="line"/>
      <point x="723.8315789473685" y="1071.7684210526315"/>
      <point x="829.9578947368421" y="914.378947368421"/>
    </contour>
  </outline>
</glyph>
<glyph name="underscore" format="2">
  <advance width="914.9052631578948"/>
  <unicode hex="005F"/>
  <outline>
    <contour>
      <point x="-20.0" y="-248.96842105263158" type="line"/>
      <point x="105.30526315789474" y="-244.42105263157893"/>
      <point x="226.79999999999998" y="-242.77894736842106"/>
      <point x="326.2736842105263" y="-241.68421052631578" type="curve"/>
      <point x="477.5157894736842" y="-241.68421052631578" type="line"/>
      <point x="576.9894736842106" y="-242.77894736842106"/>
      <point x="698.4842105263158" y="-244.42105263157893"/>
      <point x="823.7894736842105" y="-248.96842105263158" type="curve"/>
      <point x="823.7894736842105" y="-96.29473684210527" type="line"/>
      <point x="698.4842105263158" y="-100.84210526315789"/>
      <point x="576.9894736842106" y="-102.48421052631579"/>
      <point x="477.5157894736842" y="-103.57894736842105" type="curve"/>
      <point x="326.2736842105263" y="-103.57894736842105" type="line"/>
      <point x="226.79999999999998" y="-102.48421052631579"/>
      <point x="105.30526315789474" y="-100.84210526315789"/>
      <point x="-20.0" y="-96.29473684210527" type="curve"/>
    </contour>
  </outline>
</glyph>
<glyph name="a" format="2">
  <advance width="1052.3218390804598"/>
  <unicode hex="0061"/>
  <anchor x="527.1954022988506" y="0.0" name="bottom"/>
  <anchor x="898.6206896551724" y="0.0" name="ogonek"/>
  <anchor x="527.1954022988506" y="992.7816091954023" name="top"/>
  <outline>
    <contour>
      <point x="402.11494252873564" y="-20.39080459770115" type="curve" smooth="yes"/>
      <point x="523.3103448275862" y="-20.39080459770115"/>
      <point x="660.9425287356321" y="56.781609195402304"/>
      <point x="734.2068965517242" y="138.09195402298852" type="curve"/>
      <point x="750.9885057471264" y="138.09195402298852" type="line"/>
      <point x="792.2068965517241" y="0.0" type="line"/>
      <point x="961.0114942528736" y="0.0" type="line"/>
      <point x="921.0344827586207" y="114.36781609195403"/>
      <point x="897.816091954023" y="213.1264367816092"/>
      <point x="897.816091954023" y="302.6896551724138" type="curve"/>
      <point x="897.816091954023" y="422.0" type="line" smooth="yes"/>
      <point x="897.816091954023" y="506.82758620689657"/>
      <point x="903.0114942528736" y="607.2183908045977"/>
      <point x="903.0114942528736" y="668.0" type="curve" smooth="yes"/>
      <point x="903.0114942528736" y="911.9770114942529"/>
      <point x="765.0574712643678" y="1015.1724137931035"/>
      <point x="538.3678160919541" y="1015.1724137931035" type="curve" smooth="yes"/>
      <point x="407.65517241379314" y="1015.1724137931035"/>
      <point x="239.28735632183907" y="969.5632183908046"/>
      <point x="147.70114942528735" y="943.5632183908046" type="curve"/>
      <point x="156.0919540229885" y="783.1034482758621" type="line"/>
      <point x="298.5287356321839" y="838.7126436781609"/>
      <point x="449.28735632183907" y="872.2758620689655"/>
      <point x="503.7011494252873" y="872.2758620689655" type="curve" smooth="yes"/>
      <point x="631.3793103448276" y="872.2758620689655"/>
      <point x="745.816091954023" y="829.471264367816"/>
      <point x="738.2068965517242" y="632.3678160919541" type="curve"/>
      <point x="426.8735632183908" y="578.2988505747127" type="line" smooth="yes"/>
      <point x="275.7241379310345" y="552.6896551724138"/>
      <point x="103.70114942528735" y="483.51724137931035"/>
      <point x="103.70114942528735" y="267.14942528735634" type="curve" smooth="yes"/>
      <point x="103.70114942528735" y="87.2183908045977"/>
      <point x="224.45977011494253" y="-20.39080459770115"/>
    </contour>
    <contour>
      <point x="449.9310344827586" y="115.72413793103449" type="curve" smooth="yes"/>
      <point x="350.57471264367814" y="115.72413793103449"/>
      <point x="272.0919540229885" y="158.98850574712645"/>
      <point x="272.0919540229885" y="273.9310344827586" type="curve" smooth="yes"/>
      <point x="272.0919540229885" y="384.8965517241379"/>
      <point x="353.4712643678161" y="440.5057471264368"/>
      <point x="467.60919540229884" y="461.3333333333333" type="curve" smooth="yes"/>
      <point x="655.3563218390805" y="494.9655172413793"/>
      <point x="702.5977011494252" y="509.7931034482759"/>
      <point x="734.6206896551724" y="527.7931034482758" type="curve"/>
      <point x="733.816091954023" y="308.64367816091954" type="line"/>
      <point x="666.1609195402299" y="185.33333333333331"/>
      <point x="531.2183908045977" y="115.72413793103449"/>
    </contour>
  </outline>
</glyph>
<glyph name="b" format="2">
  <advance width="1184.378947368421"/>
  <unicode hex="0062"/>
  <outline>
    <contour>
      <point x="659.4315789473684" y="-21.83157894736842" type="curve" smooth="yes"/>
      <point x="943.2210526315789" y="-21.83157894736842"/>
      <point x="1083.3684210526314" y="221.09473684210528"/>
      <point x="1083.3684210526314" y="499.09473684210525" type="curve" smooth="yes"/>
      <point x="1083.3684210526314" y="794.1894736842105"/>
      <point x="927.957894736842" y="1015.6631578947369"/>
      <point x="655.978947368421" y="1015.6631578947369" type="curve" smooth="yes"/>
      <point x="530.4000000000001" y="1015.6631578947369"/>
      <point x="427.7052631578947" y="950.421052631579"/>
      <point x="355.5368421052632" y="878.5894736842105" type="curve"/>
      <point x="338.0631578947369" y="878.5894736842105" type="line"/>
      <point x="338.0631578947369" y="987.4526315789474" type="line"/>
      <point x="338.0631578947369" y="1163.4736842105262"/>
      <point x="344.0842105263158" y="1325.3052631578948"/>
      <point x="355.5578947368421" y="1486.5684210526315" type="curve"/>
      <point x="145.09473684210525" y="1459.6421052631579" type="line"/>
      <point x="165.13684210526316" y="1309.621052631579"/>
      <point x="172.96842105263158" y="1154.1684210526316"/>
      <point x="172.96842105263158" y="987.4526315789474" type="curve"/>
      <point x="172.96842105263158" y="437.62105263157895" type="line"/>
      <point x="172.96842105263158" y="273.9789473684211"/>
      <point x="169.13684210526316" y="146.7157894736842"/>
      <point x="160.21052631578945" y="0.0" type="curve"/>
      <point x="304.88421052631577" y="0.0" type="line"/>
      <point x="323.47368421052636" y="134.33684210526317" type="line"/>
      <point x="339.3052631578948" y="134.33684210526317" type="line"/>
      <point x="434.9263157894737" y="30.88421052631579"/>
      <point x="550.0" y="-21.83157894736842"/>
    </contour>
    <contour>
      <point x="609.6210526315789" y="125.91578947368421" type="curve"/>
      <point x="504.8" y="127.55789473684212"/>
      <point x="411.62105263157895" y="183.87368421052633"/>
      <point x="338.0631578947369" y="287.9578947368421" type="curve"/>
      <point x="338.0631578947369" y="728.5894736842105" type="line"/>
      <point x="414.1684210526316" y="819.7684210526315"/>
      <point x="517.1578947368421" y="864.2736842105263"/>
      <point x="606.7157894736841" y="866.2736842105263" type="curve"/>
      <point x="815.6210526315789" y="860.2736842105263"/>
      <point x="914.0842105263157" y="700.2105263157895"/>
      <point x="914.0842105263157" y="498.0" type="curve" smooth="yes"/>
      <point x="914.0842105263157" y="304.69473684210527"/>
      <point x="822.3368421052631" y="131.9157894736842"/>
    </contour>
  </outline>
</glyph>
<glyph name="f" format="2">
  <advance width="788.9894736842106"/>
  <unicode hex="0066"/>
  <outline>
    <contour>
      <point x="223.8736842105263" y="0.0" type="curve"/>
      <point x="415.93684210526317" y="0.0" type="line"/>
      <point x="405.0105263157895" y="146.7157894736842"/>
      <point x="401.7263157894737" y="273.9789473684211"/>
      <point x="401.7263157894737" y="437.62105263157895" type="curve"/>
      <point x="401.7263157894737" y="954.5263157894736" type="line"/>
      <point x="405.5578947368421" y="992.3789473684211" type="line"/>
      <point x="394.06315789473683" y="1014.0"/>
      <point x="387.4947368421053" y="1075.957894736842"/>
      <point x="387.4947368421053" y="1122.2947368421053" type="curve" smooth="yes"/>
      <point x="387.4947368421053" y="1274.3578947368421"/>
      <point x="458.37894736842105" y="1346.2736842105264"/>
      <point x="614.6105263157895" y="1346.2736842105264" type="curve" smooth="yes"/>
      <point x="657.6842105263157" y="1346.2736842105264"/>
      <point x="722.4421052631579" y="1334.0842105263157"/>
      <point x="765.1789473684211" y="1320.9894736842105" type="curve"/>
      <point x="779.7473684210527" y="1474.1894736842105" type="line"/>
      <point x="739.5578947368421" y="1480.1894736842105"/>
      <point x="658.2315789473683" y="1490.7368421052631"/>
      <point x="599.2842105263157" y="1490.7368421052631" type="curve" smooth="yes"/>
      <point x="402.33684210526314" y="1490.7368421052631"/>
      <point x="228.61052631578946" y="1404.0210526315789"/>
      <point x="228.61052631578946" y="1121.7473684210527" type="curve" smooth="yes"/>
      <point x="228.61052631578946" y="896.9684210526316"/>
      <point x="236.6315789473684" y="699.7894736842105"/>
      <point x="236.6315789473684" y="536.1684210526315" type="curve"/>
      <point x="236.6315789473684" y="437.62105263157895" type="line"/>
      <point x="236.6315789473684" y="273.9789473684211"/>
      <point x="232.79999999999998" y="146.7157894736842"/>
    </contour>
    <contour>
      <point x="48.694736842105264" y="848.2736842105263" type="line"/>
      <point x="284.18947368421055" y="867.578947368421" type="line"/>
      <point x="351.6421052631579" y="867.578947368421" type="line"/>
      <point x="479.4315789473684" y="866.4842105263158"/>
      <point x="605.0315789473684" y="861.2"/>
      <point x="738.4631578947368" y="848.2736842105263" type="curve"/>
      <point x="738.4631578947368" y="992.3789473684211" type="line"/>
      <point x="48.694736842105264" y="992.3789473684211" type="line"/>
    </contour>
  </outline>
</glyph>
<glyph name="g" format="2">
  <advance width="1086.344827586207"/>
  <unicode hex="0067"/>
  <anchor x="540.3678160919541" y="-384.0" name="bottom"/>
  <anchor x="526.6896551724138" y="992.7816091954023" name="top"/>
  <outline>
    <contour>
      <point x="486.82758620689657" y="-406.39080459770116" type="curve" smooth="yes"/>
      <point x="720.3448275862069" y="-406.39080459770116"/>
      <point x="993.0574712643678" y="-297.17241379310343"/>
      <point x="993.0574712643678" y="-65.70114942528735" type="curve" smooth="yes"/>
      <point x="993.0574712643678" y="100.59770114942529"/>
      <point x="870.3448275862069" y="160.20689655172413"/>
      <point x="594.2758620689656" y="160.20689655172413" type="curve" smooth="yes"/>
      <point x="550.6666666666666" y="160.20689655172413" type="line" smooth="yes"/>
      <point x="403.7701149425287" y="160.20689655172413"/>
      <point x="344.9425287356322" y="177.0344827586207"/>
      <point x="344.9425287356322" y="234.71264367816093" type="curve" smooth="yes"/>
      <point x="344.9425287356322" y="289.1954022988506"/>
      <point x="410.57471264367814" y="309.2183908045977"/>
      <point x="551.4712643678162" y="342.04597701149424" type="curve" smooth="yes"/>
      <point x="745.9080459770115" y="386.4597701149425"/>
      <point x="874.6666666666666" y="483.2413793103448"/>
      <point x="874.6666666666666" y="680.4137931034483" type="curve" smooth="yes"/>
      <point x="874.6666666666666" y="795.2183908045977"/>
      <point x="825.8390804597701" y="891.6551724137931"/>
      <point x="708.9425287356322" y="948.4597701149426" type="curve"/>
      <point x="661.8390804597701" y="887.4022988505748" type="line"/>
      <point x="788.6666666666666" y="883.4022988505748"/>
      <point x="911.9080459770115" y="874.6206896551724"/>
      <point x="1043.9310344827586" y="854.6666666666666" type="curve"/>
      <point x="1043.9310344827586" y="993.9770114942529" type="line"/>
      <point x="735.4252873563219" y="993.9770114942529" type="line" smooth="yes"/>
      <point x="624.2988505747127" y="993.9770114942529"/>
      <point x="580.3218390804598" y="1015.1724137931035"/>
      <point x="485.17241379310343" y="1015.1724137931035" type="curve" smooth="yes"/>
      <point x="248.5287356321839" y="1015.1724137931035"/>
      <point x="97.28735632183908" y="884.4137931034483"/>
      <point x="97.28735632183908" y="692.0" type="curve" smooth="yes"/>
      <point x="97.28735632183908" y="502.367816091954"/>
      <point x="254.57471264367814" y="409.95402298850576"/>
      <point x="318.551724137931" y="378.39080459770116" type="curve"/>
      <point x="318.551724137931" y="364.8045977011494" type="line"/>
      <point x="232.13793103448276" y="330.02298850574715"/>
      <point x="189.70114942528735" y="276.85057471264366"/>
      <point x="189.70114942528735" y="206.02298850574712" type="curve" smooth="yes"/>
      <point x="189.70114942528735" y="113.63218390804597"/>
      <point x="259.7011494252873" y="72.4367816091954"/>
      <point x="294.11494252873564" y="62.4367816091954" type="curve"/>
      <point x="294.11494252873564" y="47.6551724137931" type="line"/>
      <point x="233.67816091954023" y="26.850574712643677"/>
      <point x="106.06896551724138" y="-43.14942528735632"/>
      <point x="106.06896551724138" y="-171.97701149425288" type="curve" smooth="yes"/>
      <point x="106.06896551724138" y="-286.367816091954"/>
      <point x="192.04597701149424" y="-406.39080459770116"/>
    </contour>
    <contour>
      <point x="507.9310344827586" y="-271.8620689655172" type="curve"/>
      <point x="320.9425287356322" y="-269.0574712643678"/>
      <point x="258.91954022988506" y="-207.79310344827587"/>
      <point x="258.91954022988506" y="-137.70114942528735" type="curve" smooth="yes"/>
      <point x="258.91954022988506" y="-43.95402298850575"/>
      <point x="395.01149425287355" y="1.6781609195402307"/>
      <point x="486.6896551724138" y="21.701149425287355" type="curve"/>
      <point x="555.6321839080459" y="21.701149425287355" type="line" smooth="yes"/>
      <point x="777.0114942528735" y="21.701149425287355"/>
      <point x="835.4252873563219" y="-13.517241379310349"/>
      <point x="835.4252873563219" y="-91.2183908045977" type="curve" smooth="yes"/>
      <point x="835.4252873563219" y="-171.72413793103448"/>
      <point x="714.5517241379309" y="-265.47126436781605"/>
    </contour>
    <contour>
      <point x="471.5632183908046" y="456.183908045977" type="curve"/>
      <point x="375.4252873563218" y="486.2068965517241"/>
      <point x="252.52873563218392" y="553.8850574712643"/>
      <point x="252.52873563218392" y="680.0459770114943" type="curve" smooth="yes"/>
      <point x="252.52873563218392" y="810.6206896551724"/>
      <point x="361.0344827586207" y="870.2758620689655"/>
      <point x="485.1954022988506" y="874.6666666666666" type="curve"/>
      <point x="592.8505747126437" y="868.6666666666666"/>
      <point x="719.4252873563219" y="814.6206896551724"/>
      <point x="719.4252873563219" y="669.6551724137931" type="curve" smooth="yes"/>
      <point x="719.4252873563219" y="516.6206896551724"/>
      <point x="572.8735632183908" y="475.816091954023"/>
    </contour>
  </outline>
</glyph>
<glyph name="h" format="2">
  <advance width="1152.4210526315787"/>
  <unicode hex="0068"/>
  <guideline x="72.10526315789474" y="721.9368421052632" angle="4.470799999999997"/>
  <anchor x="585.1157894736842" y="0.0" name="bottom"/>
  <anchor x="585.1157894736842" y="818.0" name="center"/>
  <anchor x="544.5473684210526" y="1451.4736842105262" name="top"/>
  <outline>
    <contour>
      <point x="160.21052631578945" y="0.0" type="curve"/>
      <point x="352.27368421052637" y="0.0" type="line"/>
      <point x="341.3473684210527" y="146.7157894736842"/>
      <point x="338.0631578947369" y="273.9789473684211"/>
      <point x="338.0631578947369" y="430.5052631578947" type="curve"/>
      <point x="338.0631578947369" y="661.8947368421053" type="line"/>
      <point x="416.7157894736842" y="773.0526315789474"/>
      <point x="551.3263157894736" y="859.7052631578947"/>
      <point x="639.0526315789473" y="859.7052631578947" type="curve" smooth="yes"/>
      <point x="787.2842105263157" y="859.7052631578947"/>
      <point x="835.2421052631579" y="773.3894736842105"/>
      <point x="835.2421052631579" y="603.8315789473684" type="curve"/>
      <point x="835.2421052631579" y="430.5052631578947" type="line"/>
      <point x="835.2421052631579" y="273.9789473684211"/>
      <point x="831.9578947368421" y="146.7157894736842"/>
      <point x="824.1263157894738" y="0.0" type="curve"/>
      <point x="1015.0947368421052" y="0.0" type="line"/>
      <point x="1002.5263157894738" y="146.7157894736842"/>
      <point x="1000.3368421052631" y="273.9789473684211"/>
      <point x="1000.3368421052631" y="437.62105263157895" type="curve"/>
      <point x="1000.3368421052631" y="496.7368421052632"/>
      <point x="1004.5263157894738" y="573.6631578947369"/>
      <point x="1004.5263157894738" y="660.2105263157895" type="curve" smooth="yes"/>
      <point x="1004.5263157894738" y="891.4947368421052"/>
      <point x="910.1263157894737" y="1015.6631578947369"/>
      <point x="696.3368421052631" y="1015.6631578947369" type="curve" smooth="yes"/>
      <point x="564.7578947368421" y="1015.6631578947369"/>
      <point x="427.5368421052632" y="910.8210526315789"/>
      <point x="356.0842105263158" y="825.7263157894737" type="curve"/>
      <point x="338.0631578947369" y="825.7263157894737" type="line"/>
      <point x="338.0631578947369" y="987.4526315789474" type="line"/>
      <point x="338.0631578947369" y="1163.4736842105262"/>
      <point x="344.0842105263158" y="1325.3052631578946"/>
      <point x="356.6526315789474" y="1486.5684210526315" type="curve"/>
      <point x="145.09473684210525" y="1459.6421052631579" type="line"/>
      <point x="165.13684210526316" y="1309.621052631579"/>
      <point x="172.96842105263158" y="1154.1684210526316"/>
      <point x="172.96842105263158" y="987.4526315789474" type="curve"/>
      <point x="172.96842105263158" y="437.62105263157895" type="line"/>
      <point x="172.96842105263158" y="273.9789473684211"/>
      <point x="169.13684210526316" y="146.7157894736842"/>
    </contour>
  </outline>
</glyph>
<glyph name="k" format="2">
  <advance width="1087.2842105263157"/>
  <unicode hex="006B"/>
  <anchor x="555.7052631578947" y="0.0" name="bottom"/>
  <anchor x="555.7052631578947" y="1451.4736842105262" name="top"/>
  <outline>
    <contour>
      <point x="817.0736842105264" y="0.0" type="curve"/>
      <point x="1058.9894736842107" y="0.0" type="line"/>
      <point x="928.6736842105264" y="117.28421052631579"/>
      <point x="804.5473684210526" y="233.66315789473686"/>
      <point x="684.6105263157895" y="350.94736842105266" type="curve"/>
      <point x="483.22105263157897" y="551.9368421052632" type="line"/>
      <point x="489.24210526315795" y="472.33684210526314" type="line"/>
      <point x="660.2526315789473" y="642.7157894736843" type="line"/>
      <point x="778.378947368421" y="759.4526315789474"/>
      <point x="895.6" y="874.1894736842105"/>
      <point x="1024.4631578947367" y="992.3789473684211" type="curve"/>
      <point x="794.7578947368421" y="992.3789473684211" type="line"/>
      <point x="714.1263157894737" y="899.3052631578947"/>
      <point x="624.4" y="805.3263157894737"/>
      <point x="533.3894736842105" y="712.2526315789473" type="curve"/>
      <point x="384.6105263157895" y="560.4631578947368" type="line"/>
      <point x="319.13684210526316" y="560.4631578947368" type="line"/>
      <point x="319.13684210526316" y="442.06315789473683" type="line"/>
      <point x="374.4421052631579" y="442.06315789473683" type="line"/>
      <point x="551.7263157894737" y="272.65263157894736" type="line"/>
      <point x="644.5473684210526" y="181.76842105263157"/>
      <point x="733.7263157894737" y="90.88421052631578"/>
    </contour>
    <contour>
      <point x="160.21052631578945" y="0.0" type="curve"/>
      <point x="352.27368421052637" y="0.0" type="line"/>
      <point x="341.3473684210527" y="140.14736842105262"/>
      <point x="338.0631578947369" y="261.93684210526317"/>
      <point x="338.0631578947369" y="411.89473684210526" type="curve"/>
      <point x="338.0631578947369" y="987.4526315789474" type="line"/>
      <point x="338.0631578947369" y="1163.4736842105262"/>
      <point x="344.0842105263158" y="1325.3052631578946"/>
      <point x="356.6526315789474" y="1486.5684210526315" type="curve"/>
      <point x="145.09473684210525" y="1459.6421052631579" type="line"/>
      <point x="165.13684210526316" y="1309.621052631579"/>
      <point x="172.96842105263158" y="1154.1684210526316"/>
      <point x="172.96842105263158" y="987.4526315789474" type="curve"/>
      <point x="172.96842105263158" y="437.62105263157895" type="line"/>
      <point x="172.96842105263158" y="273.9789473684211"/>
      <point x="169.13684210526316" y="146.7157894736842"/>
    </contour>
  </outline>
</glyph>
<glyph name="m" format="2">
  <advance width="1761.6631578947367"/>
  <unicode hex="006D"/>
  <anchor x="900.3578947368421" y="0.0" name="bottom"/>
  <anchor x="900.3578947368421" y="992.3789473684211" name="top"/>
  <outline>
    <contour>
      <point x="171.1157894736842" y="0.0" type="curve"/>
      <point x="363.17894736842106" y="0.0" type="line"/>
      <point x="352.2526315789474" y="146.7157894736842"/>
      <point x="348.96842105263164" y="273.9789473684211"/>
      <point x="348.96842105263164" y="430.5052631578947" type="curve"/>
      <point x="348.96842105263164" y="661.8947368421053" type="line"/>
      <point x="427.62105263157895" y="773.0526315789473"/>
      <point x="546.2526315789473" y="859.7052631578947"/>
      <point x="633.4315789473684" y="859.7052631578947" type="curve" smooth="yes"/>
      <point x="772.7578947368421" y="859.7052631578947"/>
      <point x="817.8105263157894" y="773.3894736842105"/>
      <point x="817.8105263157894" y="603.8315789473684" type="curve"/>
      <point x="817.8105263157894" y="430.5052631578947" type="line"/>
      <point x="817.8105263157894" y="273.9789473684211"/>
      <point x="814.5263157894736" y="146.7157894736842"/>
      <point x="806.6947368421052" y="0.0" type="curve"/>
      <point x="997.6631578947369" y="0.0" type="line"/>
      <point x="985.0947368421054" y="146.7157894736842"/>
      <point x="982.9052631578948" y="273.9789473684211"/>
      <point x="982.9052631578948" y="437.62105263157895" type="curve"/>
      <point x="982.9052631578948" y="496.7368421052632"/>
      <point x="987.0947368421054" y="574.7578947368421"/>
      <point x="987.0947368421054" y="660.2105263157895" type="curve" smooth="yes"/>
      <point x="987.0947368421054" y="702.0421052631579"/>
      <point x="984.0000000000001" y="741.3263157894737"/>
      <point x="976.9052631578948" y="775.5157894736842" type="curve"/>
      <point x="965.5999999999999" y="781.3263157894737" type="line"/>
      <point x="937.7684210526315" y="936.0421052631579"/>
      <point x="848.1263157894737" y="1015.6631578947369"/>
      <point x="691.6210526315789" y="1015.6631578947369" type="curve" smooth="yes"/>
      <point x="555.6631578947367" y="1015.6631578947369"/>
      <point x="427.4947368421053" y="907.5368421052632"/>
      <point x="351.66315789473686" y="816.9684210526316" type="curve"/>
      <point x="333.64210526315793" y="816.9684210526316" type="line"/>
      <point x="315.0947368421053" y="1002.2105263157895" type="line"/>
      <point x="152.18947368421053" y="992.3789473684211" type="line"/>
      <point x="176.5894736842105" y="839.4526315789474"/>
      <point x="183.8736842105263" y="684.0"/>
      <point x="183.8736842105263" y="537.6210526315789" type="curve"/>
      <point x="183.8736842105263" y="437.62105263157895" type="line"/>
      <point x="183.8736842105263" y="273.9789473684211"/>
      <point x="180.04210526315788" y="146.7157894736842"/>
    </contour>
    <contour>
      <point x="1433.3684210526317" y="0.0" type="curve"/>
      <point x="1624.3368421052633" y="0.0" type="line"/>
      <point x="1611.7684210526315" y="146.7157894736842"/>
      <point x="1609.578947368421" y="273.9789473684211"/>
      <point x="1609.578947368421" y="437.62105263157895" type="curve"/>
      <point x="1609.578947368421" y="496.7368421052632"/>
      <point x="1613.7684210526315" y="573.6631578947369"/>
      <point x="1613.7684210526315" y="660.2105263157895" type="curve" smooth="yes"/>
      <point x="1613.7684210526315" y="891.4947368421053"/>
      <point x="1519.3684210526314" y="1015.6631578947369"/>
      <point x="1318.2947368421053" y="1015.6631578947369" type="curve" smooth="yes"/>
      <point x="1182.336842105263" y="1015.6631578947369"/>
      <point x="1055.4315789473685" y="910.4421052631579"/>
      <point x="972.3368421052631" y="812.6105263157895" type="curve"/>
      <point x="952.6736842105263" y="812.6105263157895" type="line"/>
      <point x="975.0947368421052" y="661.8947368421053" type="line"/>
      <point x="1053.7473684210527" y="773.0526315789474"/>
      <point x="1172.9263157894738" y="859.7052631578947"/>
      <point x="1260.1052631578948" y="859.7052631578947" type="curve" smooth="yes"/>
      <point x="1397.978947368421" y="859.7052631578947"/>
      <point x="1444.4842105263158" y="773.3894736842105"/>
      <point x="1444.4842105263158" y="603.8315789473684" type="curve"/>
      <point x="1444.4842105263158" y="430.5052631578947" type="line"/>
      <point x="1444.4842105263158" y="273.9789473684211"/>
      <point x="1441.2" y="146.7157894736842"/>
    </contour>
  </outline>
</glyph>
<glyph name="n" format="2">
  <advance width="1163.3263157894735"/>
  <unicode hex="006E"/>
  <anchor x="590.7368421052631" y="0.0" name="bottom"/>
  <anchor x="590.7368421052631" y="992.3789473684211" name="top"/>
  <outline>
    <contour>
      <point x="171.1157894736842" y="0.0" type="curve"/>
      <point x="363.17894736842106" y="0.0" type="line"/>
      <point x="352.2526315789474" y="146.7157894736842"/>
      <point x="348.96842105263164" y="273.9789473684211"/>
      <point x="348.96842105263164" y="430.5052631578947" type="curve"/>
      <point x="348.96842105263164" y="661.8947368421053" type="line"/>
      <point x="427.62105263157895" y="773.0526315789474"/>
      <point x="562.2315789473683" y="859.7052631578947"/>
      <point x="649.957894736842" y="859.7052631578947" type="curve" smooth="yes"/>
      <point x="798.1894736842105" y="859.7052631578947"/>
      <point x="846.1473684210526" y="773.3894736842105"/>
      <point x="846.1473684210526" y="603.8315789473684" type="curve"/>
      <point x="846.1473684210526" y="430.5052631578947" type="line"/>
      <point x="846.1473684210526" y="273.9789473684211"/>
      <point x="842.8631578947369" y="146.7157894736842"/>
      <point x="835.0315789473684" y="0.0" type="curve"/>
      <point x="1026.0" y="0.0" type="line"/>
      <point x="1013.4315789473685" y="146.7157894736842"/>
      <point x="1011.2421052631579" y="273.9789473684211"/>
      <point x="1011.2421052631579" y="437.62105263157895" type="curve"/>
      <point x="1011.2421052631579" y="496.7368421052632"/>
      <point x="1015.4315789473685" y="573.6631578947369"/>
      <point x="1015.4315789473685" y="660.2105263157895" type="curve" smooth="yes"/>
      <point x="1015.4315789473685" y="891.4947368421052"/>
      <point x="921.0315789473684" y="1015.6631578947369"/>
      <point x="707.2421052631579" y="1015.6631578947369" type="curve" smooth="yes"/>
      <point x="570.1894736842105" y="1015.6631578947369"/>
      <point x="427.4947368421053" y="907.5368421052632"/>
      <point x="351.66315789473686" y="816.9684210526316" type="curve"/>
      <point x="333.64210526315793" y="816.9684210526316" type="line"/>
      <point x="315.0947368421053" y="1002.2105263157895" type="line"/>
      <point x="152.18947368421053" y="992.3789473684211" type="line"/>
      <point x="176.5894736842105" y="839.4526315789474"/>
      <point x="183.8736842105263" y="684.0"/>
      <point x="183.8736842105263" y="537.6210526315789" type="curve"/>
      <point x="183.8736842105263" y="437.62105263157895" type="line"/>
      <point x="183.8736842105263" y="273.9789473684211"/>
      <point x="180.04210526315788" y="146.7157894736842"/>
    </contour>
  </outline>
</glyph>
<glyph name="o" format="2">
  <advance width="1194.5473684210526"/>
  <unicode hex="006F"/>
  <anchor x="596.5473684210526" y="0.0" name="bottom"/>
  <anchor x="596.5473684210526" y="496.18947368421055" name="center"/>
  <anchor x="748.9894736842106" y="0.0" name="ogonek"/>
  <anchor x="596.5473684210526" y="992.3789473684211" name="top"/>
  <anchor x="1065.0526315789473" y="992.3789473684211" name="topright"/>
  <outline>
    <contour>
      <point x="601.0947368421052" y="-21.83157894736842" type="curve" smooth="yes"/>
      <point x="904.6315789473684" y="-21.83157894736842"/>
      <point x="1094.6315789473683" y="207.07368421052632"/>
      <point x="1094.6315789473683" y="502.0" type="curve" smooth="yes"/>
      <point x="1094.6315789473683" y="792.7368421052631"/>
      <point x="914.8210526315789" y="1015.6631578947369"/>
      <point x="598.3578947368421" y="1015.6631578947369" type="curve" smooth="yes"/>
      <point x="290.4421052631579" y="1015.6631578947369"/>
      <point x="99.91578947368421" y="799.0947368421052"/>
      <point x="99.91578947368421" y="502.0" type="curve" smooth="yes"/>
      <point x="99.91578947368421" y="224.90526315789472"/>
      <point x="272.63157894736844" y="-21.83157894736842"/>
    </contour>
    <contour>
      <point x="600.5473684210526" y="121.53684210526316" type="curve"/>
      <point x="375.66315789473686" y="128.0842105263158"/>
      <point x="268.65263157894736" y="304.67368421052635"/>
      <point x="268.65263157894736" y="502.0" type="curve" smooth="yes"/>
      <point x="268.65263157894736" y="709.1368421052632"/>
      <point x="380.3789473684211" y="865.2"/>
      <point x="600.5473684210526" y="872.2947368421053" type="curve"/>
      <point x="807.6421052631579" y="863.5578947368422"/>
      <point x="925.8947368421052" y="720.7578947368421"/>
      <point x="925.8947368421052" y="502.0" type="curve" smooth="yes"/>
      <point x="925.8947368421052" y="303.0315789473684"/>
      <point x="823.4315789473685" y="128.0842105263158"/>
    </contour>
  </outline>
</glyph>
<glyph name="p" format="2">
  <advance width="1195.2842105263157"/>
  <unicode hex="0070"/>
  <outline>
    <contour>
      <point x="169.66315789473683" y="-390.18947368421055" type="curve"/>
      <point x="365.91578947368424" y="-384.0" type="line"/>
      <point x="352.8" y="-237.2842105263158"/>
      <point x="348.96842105263164" y="-110.02105263157895"/>
      <point x="348.96842105263164" y="46.50526315789474" type="curve"/>
      <point x="348.96842105263164" y="127.76842105263158" type="line"/>
      <point x="364.8" y="127.76842105263158" type="line"/>
      <point x="455.13684210526316" y="28.694736842105264"/>
      <point x="565.2842105263157" y="-21.83157894736842"/>
      <point x="670.3368421052631" y="-21.83157894736842" type="curve" smooth="yes"/>
      <point x="954.1263157894737" y="-21.83157894736842"/>
      <point x="1094.2736842105262" y="221.09473684210528"/>
      <point x="1094.2736842105262" y="499.09473684210525" type="curve" smooth="yes"/>
      <point x="1094.2736842105262" y="794.1894736842105"/>
      <point x="938.8631578947368" y="1015.6631578947369"/>
      <point x="666.8842105263158" y="1015.6631578947369" type="curve" smooth="yes"/>
      <point x="535.4736842105264" y="1015.6631578947369"/>
      <point x="427.4947368421052" y="946.2315789473685"/>
      <point x="350.58947368421053" y="866.9263157894736" type="curve"/>
      <point x="333.11578947368423" y="866.9263157894736" type="line"/>
      <point x="320.0210526315789" y="1002.2105263157895" type="line"/>
      <point x="152.18947368421053" y="992.3789473684211" type="line"/>
      <point x="176.5894736842105" y="839.4526315789474"/>
      <point x="183.8736842105263" y="684.0"/>
      <point x="183.8736842105263" y="537.6210526315789" type="curve"/>
      <point x="183.8736842105263" y="53.62105263157895" type="line"/>
      <point x="183.8736842105263" y="-110.02105263157895"/>
      <point x="180.04210526315788" y="-243.47368421052633"/>
    </contour>
    <contour>
      <point x="620.5263157894736" y="125.91578947368421" type="curve"/>
      <point x="515.7052631578947" y="127.55789473684212"/>
      <point x="422.5263157894737" y="183.87368421052633"/>
      <point x="348.96842105263164" y="287.9578947368421" type="curve"/>
      <point x="348.96842105263164" y="728.5894736842105" type="line"/>
      <point x="425.07368421052627" y="819.7684210526315"/>
      <point x="528.0631578947368" y="864.2736842105263"/>
      <point x="617.6210526315789" y="866.2736842105263" type="curve"/>
      <point x="826.5263157894736" y="860.2736842105263"/>
      <point x="924.9894736842105" y="700.2105263157895"/>
      <point x="924.9894736842105" y="498.0" type="curve" smooth="yes"/>
      <point x="924.9894736842105" y="304.69473684210527"/>
      <point x="833.2421052631579" y="131.9157894736842"/>
    </contour>
  </outline>
</glyph>
<glyph name="r" format="2">
  <advance width="812.0842105263157"/>
  <unicode hex="0072"/>
  <anchor x="254.23157894736843" y="0.0" name="bottom"/>
  <anchor x="466.7368421052632" y="992.3789473684211" name="top"/>
  <outline>
    <contour>
      <point x="171.1157894736842" y="0.0" type="curve"/>
      <point x="363.17894736842106" y="0.0" type="line"/>
      <point x="352.2526315789474" y="146.7157894736842"/>
      <point x="348.96842105263164" y="273.9789473684211"/>
      <point x="348.96842105263164" y="430.5052631578947" type="curve"/>
      <point x="348.96842105263164" y="609.5368421052632" type="line"/>
      <point x="442.14736842105265" y="819.1157894736842"/>
      <point x="557.3473684210527" y="847.1157894736842"/>
      <point x="626.778947368421" y="847.1157894736842" type="curve" smooth="yes"/>
      <point x="660.7789473684211" y="847.1157894736842"/>
      <point x="707.3473684210526" y="834.9263157894736"/>
      <point x="748.2736842105263" y="820.378947368421" type="curve"/>
      <point x="763.0315789473684" y="998.5684210526316" type="line"/>
      <point x="729.0315789473684" y="1010.7578947368421"/>
      <point x="690.8421052631579" y="1015.6631578947369"/>
      <point x="654.3157894736842" y="1015.6631578947369" type="curve" smooth="yes"/>
      <point x="568.3157894736842" y="1015.6631578947369"/>
      <point x="445.2842105263158" y="972.1894736842105"/>
      <point x="347.3052631578948" y="796.6315789473684" type="curve"/>
      <point x="330.7368421052632" y="796.6315789473684" type="line"/>
      <point x="315.0947368421053" y="1002.2105263157895" type="line"/>
      <point x="152.18947368421053" y="992.3789473684211" type="line"/>
      <point x="176.5894736842105" y="839.4526315789474"/>
      <point x="183.8736842105263" y="684.0"/>
      <point x="183.8736842105263" y="537.6210526315789" type="curve"/>
      <point x="183.8736842105263" y="437.62105263157895" type="line"/>
      <point x="183.8736842105263" y="273.9789473684211"/>
      <point x="180.04210526315788" y="146.7157894736842"/>
    </contour>
  </outline>
</glyph>
<glyph name="s" format="2">
  <advance width="909.9310344827586"/>
  <unicode hex="0073"/>
  <anchor x="455.95402298850576" y="0.0" name="bottom"/>
  <anchor x="455.95402298850576" y="992.7816091954023" name="top"/>
  <outline>
    <contour>
      <point x="456.8045977011495" y="-21.586206896551722" type="curve" smooth="yes"/>
      <point x="711.8850574712644" y="-21.586206896551722"/>
      <point x="819.8390804597701" y="108.41379310344827"/>
      <point x="819.8390804597701" y="281.51724137931035" type="curve" smooth="yes"/>
      <point x="819.8390804597701" y="461.4942528735632"/>
      <point x="701.3793103448276" y="508.6896551724138"/>
      <point x="504.2298850574713" y="565.8850574712644" type="curve" smooth="yes"/>
      <point x="337.37931034482756" y="613.9080459770115"/>
      <point x="289.28735632183907" y="649.5402298850574"/>
      <point x="289.28735632183907" y="731.264367816092" type="curve" smooth="yes"/>
      <point x="289.28735632183907" y="844.2758620689655"/>
      <point x="393.0344827586207" y="868.2758620689655"/>
      <point x="471.08045977011494" y="872.2758620689655" type="curve"/>
      <point x="520.2758620689655" y="872.2758620689655"/>
      <point x="625.8620689655172" y="846.2758620689656"/>
      <point x="746.2528735632184" y="787.080459770115" type="curve"/>
      <point x="759.0344827586207" y="947.1494252873563" type="line"/>
      <point x="683.448275862069" y="973.5632183908046"/>
      <point x="549.9310344827586" y="1015.1724137931035"/>
      <point x="444.78160919540227" y="1015.1724137931035" type="curve" smooth="yes"/>
      <point x="247.24137931034483" y="1015.1724137931035"/>
      <point x="119.70114942528735" y="904.3908045977012"/>
      <point x="119.70114942528735" y="724.8965517241379" type="curve" smooth="yes"/>
      <point x="119.70114942528735" y="550.1379310344828"/>
      <point x="236.16091954022988" y="488.1609195402299"/>
      <point x="393.7011494252873" y="444.1609195402299" type="curve" smooth="yes"/>
      <point x="587.0114942528736" y="389.3103448275862"/>
      <point x="651.448275862069" y="360.8735632183908"/>
      <point x="651.448275862069" y="276.7586206896552" type="curve" smooth="yes"/>
      <point x="651.448275862069" y="149.3793103448276"/>
      <point x="557.3563218390805" y="125.3103448275862"/>
      <point x="447.2413793103448" y="121.3103448275862" type="curve"/>
      <point x="353.632183908046" y="121.3103448275862"/>
      <point x="236.87356321839079" y="156.89655172413796"/>
      <point x="126.06896551724137" y="210.89655172413796" type="curve"/>
      <point x="112.48275862068965" y="49.241379310344826" type="line"/>
      <point x="192.8735632183908" y="24.022988505747126"/>
      <point x="311.264367816092" y="-21.586206896551722"/>
    </contour>
  </outline>
</glyph>
<glyph name="t" format="2">
  <advance width="819.7052631578947"/>
  <unicode hex="0074"/>
  <anchor x="471.2631578947368" y="0.0" name="bottom"/>
  <anchor x="420.4" y="496.18947368421055" name="center"/>
  <anchor x="400.94736842105266" y="1278.6526315789474" name="top"/>
  <anchor x="480.3578947368421" y="992.3789473684211" name="topright"/>
  <outline>
    <contour>
      <point x="547.6421052631579" y="-21.83157894736842" type="curve" smooth="yes"/>
      <point x="628.2105263157895" y="-21.83157894736842"/>
      <point x="719.7052631578947" y="5.621052631578946"/>
      <point x="761.3684210526316" y="25.073684210526316" type="curve"/>
      <point x="747.1789473684211" y="173.70526315789476" type="line"/>
      <point x="697.7263157894737" y="143.34736842105264"/>
      <point x="628.4842105263158" y="121.53684210526316"/>
      <point x="587.2210526315789" y="121.53684210526316" type="curve" smooth="yes"/>
      <point x="462.56842105263155" y="121.53684210526316"/>
      <point x="403.1578947368421" y="192.96842105263158"/>
      <point x="403.1578947368421" y="337.4526315789474" type="curve" smooth="yes"/>
      <point x="403.1578947368421" y="943.578947368421" type="line"/>
      <point x="403.1578947368421" y="1100.0"/>
      <point x="406.4421052631579" y="1202.778947368421"/>
      <point x="415.9157894736842" y="1350.8" type="curve"/>
      <point x="225.49473684210525" y="1312.9263157894736" type="line"/>
      <point x="235.8736842105263" y="1188.0"/>
      <point x="239.70526315789473" y="1079.621052631579"/>
      <point x="239.70526315789473" y="943.578947368421" type="curve"/>
      <point x="239.70526315789473" y="757.3894736842105"/>
      <point x="235.5157894736842" y="530.7789473684211"/>
      <point x="235.5157894736842" y="298.2105263157895" type="curve" smooth="yes"/>
      <point x="235.5157894736842" y="78.69473684210526"/>
      <point x="344.10526315789474" y="-21.83157894736842"/>
    </contour>
    <contour>
      <point x="48.694736842105264" y="848.2736842105263" type="line"/>
      <point x="284.18947368421055" y="867.578947368421" type="line"/>
      <point x="351.6421052631579" y="867.578947368421" type="line"/>
      <point x="479.4315789473684" y="866.4842105263158"/>
      <point x="617.7684210526315" y="861.2"/>
      <point x="751.2" y="848.2736842105263" type="curve"/>
      <point x="751.2" y="992.3789473684211" type="line"/>
      <point x="48.694736842105264" y="992.3789473684211" type="line"/>
    </contour>
  </outline>
</glyph>
<glyph name="u" format="2">
  <advance width="1123.178947368421"/>
  <unicode hex="0075"/>
  <anchor x="560.4" y="0.0" name="bottom"/>
  <anchor x="979.2842105263159" y="0.0" name="ogonek"/>
  <anchor x="560.4" y="992.3789473684211" name="top"/>
  <anchor x="1067.2" y="992.3789473684211" name="topright"/>
  <outline>
    <contour>
      <point x="452.25263157894733" y="-21.83157894736842" type="curve" smooth="yes"/>
      <point x="579.3052631578947" y="-21.83157894736842"/>
      <point x="722.0" y="86.29473684210527"/>
      <point x="797.8315789473685" y="176.86315789473684" type="curve"/>
      <point x="815.8526315789474" y="176.86315789473684" type="line"/>
      <point x="825.6842105263158" y="0.0" type="line"/>
      <point x="982.5684210526316" y="0.0" type="line"/>
      <point x="971.642105263158" y="146.7157894736842"/>
      <point x="968.3578947368421" y="273.9789473684211"/>
      <point x="968.3578947368421" y="437.62105263157895" type="curve"/>
      <point x="968.3578947368421" y="543.0947368421052" type="line"/>
      <point x="968.3578947368421" y="715.4947368421052"/>
      <point x="972.7368421052632" y="845.6631578947369"/>
      <point x="983.6631578947369" y="992.3789473684211" type="curve"/>
      <point x="790.1473684210526" y="992.3789473684211" type="line"/>
      <point x="799.4315789473685" y="845.6631578947369"/>
      <point x="803.2631578947369" y="715.4947368421052"/>
      <point x="803.2631578947369" y="559.5157894736842" type="curve"/>
      <point x="803.2631578947369" y="329.2" type="line"/>
      <point x="724.6105263157895" y="218.0421052631579"/>
      <point x="590.0" y="131.38947368421054"/>
      <point x="509.53684210526313" y="131.38947368421054" type="curve" smooth="yes"/>
      <point x="361.30526315789473" y="131.38947368421054"/>
      <point x="313.34736842105264" y="217.70526315789476"/>
      <point x="313.34736842105264" y="387.2631578947368" type="curve"/>
      <point x="313.34736842105264" y="559.5157894736842" type="line"/>
      <point x="313.34736842105264" y="715.4947368421052"/>
      <point x="316.63157894736844" y="851.8526315789474"/>
      <point x="326.46315789473687" y="998.5684210526316" type="curve"/>
      <point x="132.94736842105263" y="992.3789473684211" type="line"/>
      <point x="143.32631578947368" y="845.6631578947369"/>
      <point x="148.2526315789474" y="715.4947368421052"/>
      <point x="148.2526315789474" y="543.0947368421052" type="curve"/>
      <point x="148.2526315789474" y="479.62105263157895"/>
      <point x="145.1578947368421" y="420.1684210526316"/>
      <point x="145.1578947368421" y="333.62105263157895" type="curve" smooth="yes"/>
      <point x="145.1578947368421" y="102.33684210526316"/>
      <point x="238.46315789473684" y="-21.83157894736842"/>
    </contour>
  </outline>
</glyph>
<glyph name="v" format="2">
  <advance width="1039.621052631579"/>
  <unicode hex="0076"/>
  <outline>
    <contour>
      <point x="417.1578947368421" y="0.0" type="curve"/>
      <point x="620.1052631578948" y="0.0" type="line"/>
      <point x="660.0842105263158" y="124.54736842105264"/>
      <point x="704.4421052631578" y="247.6421052631579"/>
      <point x="750.8" y="372.18947368421055" type="curve"/>
      <point x="816.6105263157895" y="549.2842105263157" type="line"/>
      <point x="870.9684210526316" y="695.8315789473684"/>
      <point x="927.3263157894737" y="845.8315789473684"/>
      <point x="994.421052631579" y="992.3789473684211" type="curve"/>
      <point x="797.6421052631579" y="992.3789473684211" type="line"/>
      <point x="749.7052631578947" y="830.4631578947368"/>
      <point x="695.0315789473684" y="668.1684210526316"/>
      <point x="636.9052631578948" y="499.5157894736842" type="curve"/>
      <point x="528.4631578947368" y="181.11578947368423" type="line"/>
      <point x="510.9894736842105" y="181.11578947368423" type="line"/>
      <point x="402.5473684210526" y="499.5157894736842" type="line"/>
      <point x="344.42105263157896" y="668.1684210526316"/>
      <point x="290.2947368421053" y="830.4631578947368"/>
      <point x="241.81052631578947" y="998.5684210526316" type="curve"/>
      <point x="45.2" y="992.3789473684211" type="line"/>
      <point x="107.03157894736842" y="847.2842105263157"/>
      <point x="164.84210526315792" y="697.2842105263157"/>
      <point x="219.20000000000002" y="552.1894736842105" type="curve"/>
      <point x="285.01052631578943" y="375.6421052631579" type="line"/>
      <point x="329.9157894736842" y="254.0"/>
      <point x="376.63157894736844" y="124.54736842105264"/>
    </contour>
  </outline>
</glyph>
<glyph name="w" format="2">
  <advance width="1613.7894736842106"/>
  <unicode hex="0077"/>
  <anchor x="808.2526315789473" y="0.0" name="bottom"/>
  <anchor x="808.2526315789473" y="992.3789473684211" name="top"/>
  <outline>
    <contour>
      <point x="373.70526315789476" y="0.0" type="curve"/>
      <point x="575.0105263157894" y="0.0" type="line"/>
      <point x="614.2315789473685" y="153.7263157894737"/>
      <point x="662.9052631578948" y="321.2631578947368"/>
      <point x="706.8631578947368" y="470.0842105263158" type="curve"/>
      <point x="793.3263157894737" y="762.2736842105263" type="line"/>
      <point x="809.7052631578947" y="762.2736842105263" type="line"/>
      <point x="896.7157894736843" y="473.53684210526313" type="line"/>
      <point x="942.6736842105263" y="324.7157894736842"/>
      <point x="994.4421052631579" y="153.7263157894737"/>
      <point x="1035.663157894737" y="0.0" type="curve"/>
      <point x="1244.4421052631578" y="0.0" type="line"/>
      <point x="1278.0631578947368" y="122.0"/>
      <point x="1317.3263157894737" y="251.09473684210528"/>
      <point x="1358.778947368421" y="379.6421052631579" type="curve"/>
      <point x="1415.6842105263158" y="554.1894736842105" type="line"/>
      <point x="1463.1368421052632" y="699.2842105263157"/>
      <point x="1512.042105263158" y="845.2842105263157"/>
      <point x="1570.778947368421" y="992.3789473684211" type="curve"/>
      <point x="1372.1684210526316" y="992.3789473684211" type="line"/>
      <point x="1334.4" y="845.8947368421053"/>
      <point x="1283.3684210526317" y="659.4315789473684"/>
      <point x="1235.957894736842" y="497.13684210526316" type="curve"/>
      <point x="1142.5894736842106" y="176.54736842105262" type="line"/>
      <point x="1127.1157894736841" y="176.54736842105262" type="line"/>
      <point x="1033.7473684210527" y="494.58947368421053" type="line"/>
      <point x="986.3368421052631" y="658.8842105263158"/>
      <point x="936.5684210526316" y="832.0842105263158"/>
      <point x="894.8" y="992.3789473684211" type="curve"/>
      <point x="720.8210526315789" y="992.3789473684211" type="line"/>
      <point x="677.6" y="823.7263157894737"/>
      <point x="630.7368421052631" y="656.5263157894736"/>
      <point x="583.3263157894737" y="491.6842105263158" type="curve"/>
      <point x="492.86315789473684" y="176.54736842105262" type="line"/>
      <point x="477.38947368421054" y="176.54736842105262" type="line"/>
      <point x="384.9263157894737" y="484.42105263157896" type="line"/>
      <point x="335.5157894736842" y="648.7157894736843"/>
      <point x="282.8421052631579" y="835.7263157894737"/>
      <point x="240.16842105263157" y="998.5684210526316" type="curve"/>
      <point x="43.01052631578948" y="992.3789473684211" type="line"/>
      <point x="102.29473684210525" y="843.8315789473684"/>
      <point x="150.29473684210527" y="701.2842105263157"/>
      <point x="198.65263157894736" y="554.1894736842105" type="curve"/>
      <point x="256.4631578947368" y="377.6421052631579" type="line"/>
      <point x="298.82105263157894" y="249.6421052631579"/>
      <point x="338.63157894736844" y="124.54736842105264"/>
    </contour>
  </outline>
</glyph>
<glyph name="x" format="2">
  <advance width="1076.378947368421"/>
  <unicode hex="0078"/>
  <outline>
    <contour>
      <point x="50.8421052631579" y="0.0" type="curve"/>
      <point x="259.8105263157895" y="0.0" type="line"/>
      <point x="310.2947368421053" y="89.2421052631579"/>
      <point x="351.1578947368421" y="153.57894736842104"/>
      <point x="408.18947368421055" y="242.2736842105263" type="curve"/>
      <point x="517.5368421052631" y="410.2105263157895" type="line"/>
      <point x="531.9157894736842" y="410.2105263157895" type="line"/>
      <point x="653.0736842105263" y="234.2736842105263" type="line"/>
      <point x="712.1052631578948" y="148.67368421052632"/>
      <point x="754.9684210526316" y="83.2421052631579"/>
      <point x="807.4526315789474" y="0.0" type="curve"/>
      <point x="1028.2736842105262" y="0.0" type="line"/>
      <point x="923.3684210526316" y="129.2842105263158"/>
      <point x="862.6526315789474" y="208.92631578947368"/>
      <point x="793.0315789473684" y="303.11578947368423" type="curve"/>
      <point x="624.8842105263158" y="533.1368421052632" type="line"/>
      <point x="632.9052631578948" y="489.2631578947368" type="line"/>
      <point x="782.6947368421053" y="702.0" type="line"/>
      <point x="852.8631578947368" y="801.6421052631579"/>
      <point x="896.6736842105263" y="862.7368421052631"/>
      <point x="997.3894736842105" y="992.3789473684211" type="curve"/>
      <point x="786.421052631579" y="992.3789473684211" type="line"/>
      <point x="735.9368421052632" y="902.5894736842105"/>
      <point x="693.978947368421" y="837.1578947368421"/>
      <point x="640.2105263157895" y="753.7263157894737" type="curve"/>
      <point x="535.578947368421" y="594.1473684210526" type="line"/>
      <point x="521.5578947368421" y="594.1473684210526" type="line"/>
      <point x="415.8315789473684" y="753.3684210526316" type="line"/>
      <point x="361.5157894736842" y="836.2526315789473"/>
      <point x="317.9157894736842" y="904.9684210526316"/>
      <point x="263.0736842105263" y="998.5684210526316" type="curve"/>
      <point x="53.91578947368421" y="992.3789473684211" type="line"/>
      <point x="152.0842105263158" y="867.8315789473684"/>
      <point x="203.89473684210526" y="795.6421052631579"/>
      <point x="273.87368421052633" y="695.6421052631579" type="curve"/>
      <point x="420.9263157894737" y="483.4526315789474" type="line"/>
      <point x="419.4736842105263" y="530.2315789473685" type="line"/>
      <point x="269.1578947368421" y="306.2105263157895" type="line"/>
      <point x="201.17894736842106" y="205.47368421052633"/>
      <point x="151.0105263157895" y="133.83157894736843"/>
    </contour>
  </outline>
</glyph>
<glyph name="y" format="2">
  <advance width="1045.4315789473685"/>
  <unicode hex="0079"/>
  <anchor x="778.8210526315789" y="0.0" name="bottom"/>
  <anchor x="524.0842105263158" y="992.3789473684211" name="top"/>
  <outline>
    <contour>
      <point x="257.30526315789473" y="-390.18947368421055" type="curve"/>
      <point x="457.36842105263156" y="-384.0" type="line"/>
      <point x="506.8" y="-240.0"/>
      <point x="570.2526315789473" y="-75.81052631578947"/>
      <point x="670.6105263157895" y="178.18947368421053" type="curve"/>
      <point x="780.9684210526316" y="457.2842105263158" type="line"/>
      <point x="879.3263157894737" y="707.8315789473684"/>
      <point x="928.7789473684211" y="830.3789473684211"/>
      <point x="1000.2315789473685" y="992.3789473684211" type="curve"/>
      <point x="804.5473684210526" y="992.3789473684211" type="line"/>
      <point x="755.1578947368421" y="826.6315789473684"/>
      <point x="699.0315789473684" y="665.4315789473684"/>
      <point x="638.9052631578948" y="496.7789473684211" type="curve"/>
      <point x="523.5578947368421" y="176.73684210526318" type="line"/>
      <point x="506.0842105263158" y="176.73684210526318" type="line"/>
      <point x="400.5473684210526" y="495.87368421052633" type="line"/>
      <point x="343.87368421052633" y="667.0736842105263"/>
      <point x="292.10526315789474" y="827.3684210526316"/>
      <point x="241.26315789473685" y="998.5684210526316" type="curve"/>
      <point x="45.2" y="992.3789473684211" type="line"/>
      <point x="106.84210526315789" y="850.378947368421"/>
      <point x="163.74736842105264" y="698.378947368421"/>
      <point x="216.65263157894736" y="555.2842105263157" type="curve"/>
      <point x="282.46315789473687" y="375.2842105263158" type="line"/>
      <point x="331.36842105263156" y="242.73684210526315"/>
      <point x="383.7263157894737" y="100.73684210526316"/>
      <point x="427.15789473684214" y="-35.810526315789474" type="curve"/>
      <point x="434.0842105263158" y="5.684210526315791" type="line"/>
      <point x="382.9894736842105" y="-124.69473684210526"/>
      <point x="323.70526315789476" y="-259.81052631578945"/>
    </contour>
  </outline>
</glyph>
<glyph name="z" format="2">
  <advance width="993.5578947368421"/>
  <unicode hex="007A"/>
  <anchor x="493.3263157894737" y="0.0" name="bottom"/>
  <anchor x="493.3263157894737" y="496.18947368421055" name="center"/>
  <anchor x="493.3263157894737" y="992.3789473684211" name="top"/>
  <outline>
    <contour>
      <point x="77.05263157894737" y="0.0" type="line"/>
      <point x="922.3157894736842" y="0.0" type="line"/>
      <point x="922.3157894736842" y="146.2947368421053" type="line"/>
      <point x="788.0" y="134.08421052631581"/>
      <point x="606.6105263157895" y="128.2526315789474"/>
      <point x="497.5578947368421" y="128.2526315789474" type="curve"/>
      <point x="256.18947368421055" y="128.2526315789474" type="line"/>
      <point x="275.4947368421053" y="89.45263157894738" type="line"/>
      <point x="590.6105263157895" y="501.7894736842105" type="line"/>
      <point x="686.5684210526316" y="627.3684210526317"/>
      <point x="810.8842105263158" y="781.8315789473684"/>
      <point x="890.5052631578948" y="876.1473684210525" type="curve"/>
      <point x="890.5052631578948" y="992.3789473684211" type="line"/>
      <point x="80.88421052631578" y="992.3789473684211" type="line"/>
      <point x="80.88421052631578" y="843.3473684210526" type="line"/>
      <point x="226.65263157894736" y="858.6526315789473"/>
      <point x="411.13684210526316" y="863.578947368421"/>
      <point x="518.7368421052631" y="863.578947368421" type="curve"/>
      <point x="737.9368421052632" y="863.578947368421" type="line"/>
      <point x="712.9894736842106" y="919.8315789473684" type="line"/>
      <point x="393.85263157894735" y="500.7368421052632" type="line"/>
      <point x="303.34736842105264" y="381.5157894736842"/>
      <point x="192.84210526315792" y="244.1263157894737"/>
      <point x="77.05263157894737" y="103.47368421052632" type="curve"/>
    </contour>
  </outline>
</glyph>
<glyph name="asciitilde" format="2">
  <advance width="1136.421052631579"/>
  <unicode hex="007E"/>
  <outline>
    <contour>
      <point x="793.4947368421052" y="441.9157894736842" type="curve" smooth="yes"/>
      <point x="920.4631578947368" y="441.9157894736842"/>
      <point x="1012.8421052631579" y="545.0947368421052"/>
      <point x="1012.8421052631579" y="724.1263157894737" type="curve"/>
      <point x="902.2947368421053" y="724.1263157894737" type="line"/>
      <point x="891.9157894736842" y="632.9263157894737"/>
      <point x="847.7684210526317" y="594.4"/>
      <point x="776.9052631578948" y="589.8526315789474" type="curve"/>
      <point x="650.2315789473685" y="595.4947368421052"/>
      <point x="512.042105263158" y="755.0526315789474"/>
      <point x="348.7578947368421" y="755.0526315789474" type="curve" smooth="yes"/>
      <point x="218.50526315789475" y="755.0526315789474"/>
      <point x="123.57894736842105" y="651.3263157894737"/>
      <point x="123.57894736842105" y="472.8421052631579" type="curve"/>
      <point x="234.1263157894737" y="472.8421052631579" type="line"/>
      <point x="244.50526315789475" y="564.0421052631579"/>
      <point x="291.7473684210526" y="602.5684210526316"/>
      <point x="363.7052631578947" y="607.1157894736842" type="curve"/>
      <point x="487.6421052631579" y="601.4736842105264"/>
      <point x="628.5684210526316" y="441.9157894736842"/>
    </contour>
  </outline>
</glyph>
<glyph name="cent" format="2">
  <advance width="988.6736842105263"/>
  <unicode hex="00A2"/>
  <anchor x="571.2421052631579" y="0.0" name="bottom"/>
  <anchor x="558.1684210526316" y="992.3789473684211" name="top"/>
  <outline>
    <contour>
      <point x="490.8" y="-274.0" type="curve"/>
      <point x="633.9789473684211" y="-274.0" type="line"/>
      <point x="625.0526315789474" y="-38.0"/>
      <point x="624.5052631578948" y="168.0"/>
      <point x="624.5052631578948" y="384.0" type="curve"/>
      <point x="624.5052631578948" y="590.7368421052631" type="line"/>
      <point x="624.5052631578948" y="806.7368421052631"/>
      <point x="625.0526315789474" y="1012.7368421052631"/>
      <point x="633.9789473684211" y="1248.7368421052631" type="curve"/>
      <point x="490.8" y="1248.7368421052631" type="line"/>
      <point x="499.7263157894737" y="1012.7368421052631"/>
      <point x="500.2736842105263" y="806.7368421052631"/>
      <point x="500.2736842105263" y="590.7368421052631" type="curve"/>
      <point x="500.2736842105263" y="384.0" type="line"/>
      <point x="500.2736842105263" y="168.0"/>
      <point x="499.7263157894737" y="-38.0"/>
    </contour>
    <contour>
      <point x="601.9789473684211" y="-19.642105263157895" type="curve" smooth="yes"/>
      <point x="716.8842105263158" y="-19.642105263157895"/>
      <point x="825.8105263157895" y="18.88421052631579"/>
      <point x="899.0947368421052" y="43.05263157894737" type="curve"/>
      <point x="884.5473684210526" y="197.70526315789476" type="line"/>
      <point x="796.4" y="150.08421052631581"/>
      <point x="707.3263157894737" y="124.27368421052633"/>
      <point x="634.8210526315789" y="124.27368421052633" type="curve" smooth="yes"/>
      <point x="392.9684210526316" y="129.17894736842103"/>
      <point x="268.65263157894736" y="285.6"/>
      <point x="268.65263157894736" y="500.37894736842105" type="curve" smooth="yes"/>
      <point x="268.65263157894736" y="725.1157894736842"/>
      <point x="400.18947368421055" y="861.9157894736842"/>
      <point x="598.5684210526316" y="867.9157894736842" type="curve"/>
      <point x="648.378947368421" y="867.9157894736842"/>
      <point x="753.4526315789474" y="843.9157894736843"/>
      <point x="880.9052631578948" y="785.3684210526316" type="curve"/>
      <point x="893.4736842105264" y="942.7578947368421" type="line"/>
      <point x="814.7368421052631" y="972.7578947368421"/>
      <point x="690.1894736842106" y="1015.1157894736842"/>
      <point x="582.3368421052631" y="1015.1157894736842" type="curve" smooth="yes"/>
      <point x="274.82105263157894" y="1015.1157894736842"/>
      <point x="99.91578947368421" y="792.021052631579"/>
      <point x="99.91578947368421" y="496.5473684210526" type="curve" smooth="yes"/>
      <point x="99.91578947368421" y="203.07368421052632"/>
      <point x="282.12631578947367" y="-19.642105263157895"/>
    </contour>
  </outline>
</glyph>
<glyph name="sterling" format="2">
  <advance width="1182.0842105263157"/>
  <unicode hex="00A3"/>
  <outline>
    <contour>
      <point x="128.10526315789474" y="0.0" type="line"/>
      <point x="1114.821052631579" y="0.0" type="line"/>
      <point x="1114.821052631579" y="168.90526315789475" type="line"/>
      <point x="943.3894736842105" y="154.14736842105265"/>
      <point x="793.4105263157895" y="153.05263157894737"/>
      <point x="536.7157894736843" y="153.05263157894737" type="curve"/>
      <point x="252.21052631578948" y="153.05263157894737" type="line"/>
      <point x="267.6842105263158" y="109.03157894736843" type="line"/>
      <point x="442.6526315789474" y="260.6315789473684"/>
      <point x="455.74736842105267" y="386.42105263157896"/>
      <point x="455.74736842105267" y="498.7578947368421" type="curve" smooth="yes"/>
      <point x="455.74736842105267" y="894.6526315789474" type="line" smooth="yes"/>
      <point x="455.74736842105267" y="1135.4105263157894"/>
      <point x="557.5157894736842" y="1241.7052631578947"/>
      <point x="758.8421052631579" y="1245.3473684210526" type="curve"/>
      <point x="808.6526315789474" y="1245.3473684210526"/>
      <point x="913.1789473684211" y="1221.8947368421052"/>
      <point x="1040.0842105263157" y="1164.9894736842105" type="curve"/>
      <point x="1058.842105263158" y="1324.2105263157894" type="line"/>
      <point x="979.2" y="1354.2105263157894"/>
      <point x="855.2" y="1397.4736842105262"/>
      <point x="746.4421052631579" y="1397.4736842105262" type="curve" smooth="yes"/>
      <point x="449.9157894736842" y="1397.4736842105262"/>
      <point x="278.44210526315794" y="1234.1473684210525"/>
      <point x="278.44210526315794" y="904.2947368421053" type="curve" smooth="yes"/>
      <point x="278.44210526315794" y="754.8842105263158"/>
      <point x="282.0842105263158" y="607.4736842105264"/>
      <point x="282.0842105263158" y="458.61052631578946" type="curve"/>
      <point x="282.0842105263158" y="366.82105263157894"/>
      <point x="272.63157894736844" y="238.86315789473684"/>
      <point x="128.10526315789474" y="104.90526315789474" type="curve"/>
    </contour>
    <contour>
      <point x="119.41052631578947" y="683.0947368421052" type="line"/>
      <point x="244.7157894736842" y="689.8315789473684"/>
      <point x="363.4736842105263" y="690.378947368421"/>
      <point x="465.6842105263158" y="690.378947368421" type="curve"/>
      <point x="533.3473684210526" y="690.378947368421" type="line"/>
      <point x="635.5578947368421" y="690.378947368421"/>
      <point x="754.3157894736842" y="689.8315789473684"/>
      <point x="879.621052631579" y="683.0947368421052" type="curve"/>
      <point x="879.621052631579" y="820.4421052631578" type="line"/>
      <point x="754.3157894736842" y="813.7052631578947"/>
      <point x="635.5578947368421" y="813.1578947368421"/>
      <point x="533.3473684210526" y="813.1578947368421" type="curve"/>
      <point x="465.6842105263158" y="813.1578947368421" type="line"/>
      <point x="363.4736842105263" y="813.1578947368421"/>
      <point x="244.7157894736842" y="813.7052631578947"/>
      <point x="119.41052631578947" y="820.4421052631578" type="curve"/>
    </contour>
  </outline>
</glyph>
<glyph name="currency" format="2">
  <advance width="1245.9789473684211"/>
  <unicode hex="00A4"/>
  <outline>
    <contour>
      <point x="619.5368421052632" y="230.9894736842105" type="curve" smooth="yes"/>
      <point x="861.2631578947369" y="230.9894736842105"/>
      <point x="1037.4947368421053" y="383.36842105263156"/>
      <point x="1037.4947368421053" y="641.0947368421052" type="curve" smooth="yes"/>
      <point x="1037.4947368421053" y="882.421052631579"/>
      <point x="862.7157894736843" y="1050.463157894737"/>
      <point x="623.5368421052632" y="1050.463157894737" type="curve" smooth="yes"/>
      <point x="380.3578947368421" y="1050.463157894737"/>
      <point x="205.57894736842104" y="883.7052631578947"/>
      <point x="205.57894736842104" y="641.0947368421052" type="curve" smooth="yes"/>
      <point x="205.57894736842104" y="383.9157894736842"/>
      <point x="380.3578947368421" y="230.9894736842105"/>
    </contour>
    <contour>
      <point x="201.78947368421052" y="103.28421052631579" type="line"/>
      <point x="284.7157894736842" y="196.0421052631579"/>
      <point x="368.18947368421055" y="280.61052631578946"/>
      <point x="440.2105263157895" y="352.63157894736844" type="curve"/>
      <point x="334.1684210526316" y="458.6736842105263" type="line"/>
      <point x="262.14736842105265" y="386.65263157894736"/>
      <point x="177.57894736842107" y="303.17894736842106"/>
      <point x="84.82105263157894" y="220.25263157894736" type="curve"/>
    </contour>
    <contour>
      <point x="620.0842105263158" y="373.8105263157895" type="curve"/>
      <point x="473.81052631578945" y="380.00000000000006"/>
      <point x="358.2526315789474" y="461.7684210526316"/>
      <point x="358.2526315789474" y="640.5473684210526" type="curve" smooth="yes"/>
      <point x="358.2526315789474" y="807.3263157894737"/>
      <point x="475.2631578947368" y="902.0"/>
      <point x="622.9894736842106" y="908.1894736842105" type="curve"/>
      <point x="769.8105263157895" y="902.0"/>
      <point x="884.8210526315789" y="806.2315789473685"/>
      <point x="884.8210526315789" y="640.5473684210526" type="curve" smooth="yes"/>
      <point x="884.8210526315789" y="461.7684210526316"/>
      <point x="769.2631578947369" y="380.00000000000006"/>
    </contour>
    <contour>
      <point x="335.2631578947368" y="825.3263157894737" type="curve"/>
      <point x="439.11578947368423" y="929.1789473684211" type="line"/>
      <point x="367.09473684210525" y="1001.2"/>
      <point x="283.62105263157895" y="1085.7684210526315"/>
      <point x="200.69473684210527" y="1178.5263157894738" type="curve"/>
      <point x="85.9157894736842" y="1063.7473684210527" type="line"/>
      <point x="178.67368421052632" y="980.8210526315789"/>
      <point x="263.2421052631579" y="897.3473684210526"/>
    </contour>
    <contour>
      <point x="1045.2842105263157" y="104.37894736842104" type="curve"/>
      <point x="1160.0631578947368" y="219.1578947368421" type="line"/>
      <point x="1067.3052631578948" y="302.08421052631576"/>
      <point x="982.7368421052631" y="385.5578947368421"/>
      <point x="910.7157894736843" y="457.57894736842104" type="curve"/>
      <point x="806.8631578947368" y="353.7263157894737" type="line"/>
      <point x="878.8842105263158" y="281.7052631578947"/>
      <point x="962.3578947368421" y="197.13684210526316"/>
    </contour>
    <contour>
      <point x="911.8105263157895" y="824.2315789473685" type="line"/>
      <point x="983.8315789473684" y="896.2526315789473"/>
      <point x="1068.4" y="979.7263157894737"/>
      <point x="1161.157894736842" y="1062.6526315789474" type="curve"/>
      <point x="1044.1894736842105" y="1179.621052631579" type="line"/>
      <point x="961.2631578947369" y="1086.8631578947368"/>
      <point x="877.7894736842105" y="1002.2947368421053"/>
      <point x="805.7684210526315" y="930.2736842105263" type="curve"/>
    </contour>
  </outline>
</glyph>
<glyph name="yen" format="2">
  <advance width="1249.7894736842104"/>
  <unicode hex="00A5"/>
  <outline>
    <contour>
      <point x="543.3473684210526" y="538.7789473684211" type="line"/>
      <point x="708.6315789473684" y="538.7789473684211" type="line"/>
      <point x="1002.9473684210526" y="1043.957894736842" type="line"/>
      <point x="1064.2105263157894" y="1149.4315789473685"/>
      <point x="1132.9263157894736" y="1265.8105263157895"/>
      <point x="1208.9473684210527" y="1371.2842105263157" type="curve"/>
      <point x="988.6526315789473" y="1371.2842105263157" type="line"/>
      <point x="897.4947368421052" y="1190.9894736842105"/>
      <point x="847.1789473684211" y="1101.9368421052632"/>
      <point x="767.4315789473684" y="960.7157894736843" type="curve"/>
      <point x="634.8210526315789" y="725.3473684210526" type="line"/>
      <point x="616.2526315789473" y="725.3473684210526" type="line"/>
      <point x="486.1894736842105" y="958.7157894736843" type="line"/>
      <point x="405.53684210526313" y="1102.2947368421053"/>
      <point x="357.22105263157897" y="1189.8947368421052"/>
      <point x="266.61052631578946" y="1371.2842105263157" type="curve"/>
      <point x="39.747368421052634" y="1371.2842105263157" type="line"/>
      <point x="149.57894736842104" y="1208.1684210526316"/>
      <point x="192.1263157894737" y="1138.3368421052633"/>
      <point x="247.93684210526317" y="1043.4105263157894" type="curve"/>
    </contour>
    <contour>
      <point x="526.9473684210526" y="0.0" type="curve"/>
      <point x="727.0315789473684" y="0.0" type="line"/>
      <point x="713.3684210526316" y="152.16842105263157"/>
      <point x="712.8210526315789" y="283.4315789473684"/>
      <point x="712.8210526315789" y="451.62105263157895" type="curve"/>
      <point x="712.8210526315789" y="679.6421052631579" type="line"/>
      <point x="539.7052631578947" y="679.6421052631579" type="line"/>
      <point x="539.7052631578947" y="451.62105263157895" type="line"/>
      <point x="539.7052631578947" y="283.4315789473684"/>
      <point x="539.1578947368421" y="152.16842105263157"/>
    </contour>
    <contour>
      <point x="160.86315789473684" y="275.32631578947365" type="line"/>
      <point x="286.1684210526316" y="282.06315789473683"/>
      <point x="404.9263157894737" y="282.61052631578946"/>
      <point x="507.13684210526316" y="282.61052631578946" type="curve"/>
      <point x="745.7473684210527" y="282.61052631578946" type="line"/>
      <point x="847.957894736842" y="282.61052631578946"/>
      <point x="966.7157894736843" y="282.06315789473683"/>
      <point x="1092.0210526315789" y="275.32631578947365" type="curve"/>
      <point x="1092.0210526315789" y="398.9894736842105" type="line"/>
      <point x="966.7157894736843" y="394.9894736842105"/>
      <point x="847.957894736842" y="394.4421052631579"/>
      <point x="745.7473684210527" y="394.4421052631579" type="curve"/>
      <point x="507.13684210526316" y="394.4421052631579" type="line"/>
      <point x="404.9263157894737" y="394.4421052631579"/>
      <point x="286.1684210526316" y="394.9894736842105"/>
      <point x="160.86315789473684" y="398.9894736842105" type="curve"/>
    </contour>
    <contour>
      <point x="160.86315789473684" y="564.8842105263158" type="line"/>
      <point x="286.1684210526316" y="568.8842105263158"/>
      <point x="404.9263157894737" y="569.4315789473684"/>
      <point x="507.13684210526316" y="569.4315789473684" type="curve"/>
      <point x="745.7473684210527" y="569.4315789473684" type="line"/>
      <point x="847.957894736842" y="569.4315789473684"/>
      <point x="966.7157894736843" y="568.8842105263158"/>
      <point x="1092.0210526315789" y="564.8842105263158" type="curve"/>
      <point x="1092.0210526315789" y="688.5473684210526" type="line"/>
      <point x="966.7157894736843" y="681.8105263157895"/>
      <point x="847.957894736842" y="681.2631578947369"/>
      <point x="745.7473684210527" y="681.2631578947369" type="curve"/>
      <point x="507.13684210526316" y="681.2631578947369" type="line"/>
      <point x="404.9263157894737" y="681.2631578947369"/>
      <point x="286.1684210526316" y="681.8105263157895"/>
      <point x="160.86315789473684" y="688.5473684210526" type="curve"/>
    </contour>
  </outline>
</glyph>
<glyph name="brokenbar" format="2">
  <advance width="528.4631578947368"/>
  <unicode hex="00A6"/>
  <outline>
    <contour>
      <point x="190.44210526315788" y="726.5263157894736" type="line"/>
      <point x="338.021052631579" y="726.5263157894736" type="line"/>
      <point x="338.021052631579" y="908.5263157894736" type="line"/>
      <point x="338.021052631579" y="1124.5263157894738"/>
      <point x="338.5684210526316" y="1330.5263157894738"/>
      <point x="347.4947368421053" y="1566.5263157894738" type="curve"/>
      <point x="180.96842105263156" y="1566.5263157894738" type="line"/>
      <point x="189.89473684210526" y="1330.5263157894738"/>
      <point x="190.44210526315788" y="1124.5263157894738"/>
      <point x="190.44210526315788" y="908.5263157894736" type="curve"/>
    </contour>
    <contour>
      <point x="180.96842105263156" y="-313.4736842105263" type="curve"/>
      <point x="347.4947368421053" y="-313.4736842105263" type="line"/>
      <point x="338.5684210526316" y="-77.47368421052632"/>
      <point x="338.021052631579" y="128.52631578947367"/>
      <point x="338.021052631579" y="344.5263157894737" type="curve"/>
      <point x="338.021052631579" y="526.5263157894736" type="line"/>
      <point x="190.44210526315788" y="526.5263157894736" type="line"/>
      <point x="190.44210526315788" y="344.5263157894737" type="line"/>
      <point x="190.44210526315788" y="128.52631578947367"/>
      <point x="189.89473684210526" y="-77.47368421052632"/>
    </contour>
  </outline>
</glyph>
<glyph name="ordfeminine" format="2">
  <advance width="790.3448275862069"/>
  <unicode hex="00AA"/>
  <outline>
    <contour>
      <point x="300.0689655172414" y="665.2183908045977" type="curve" smooth="yes"/>
      <point x="395.67816091954023" y="665.2183908045977"/>
      <point x="497.3103448275862" y="726.4137931034483"/>
      <point x="554.5287356321838" y="800.0229885057471" type="curve"/>
      <point x="566.919540229885" y="800.0229885057471" type="line"/>
      <point x="598.528735632184" y="680.4137931034483" type="line"/>
      <point x="727.471264367816" y="680.4137931034483" type="line"/>
      <point x="697.8850574712643" y="768.3908045977012"/>
      <point x="679.471264367816" y="843.9540229885057"/>
      <point x="679.471264367816" y="912.735632183908" type="curve"/>
      <point x="679.471264367816" y="1001.6091954022988" type="line" smooth="yes"/>
      <point x="679.471264367816" y="1065.632183908046"/>
      <point x="683.471264367816" y="1142.0229885057472"/>
      <point x="683.471264367816" y="1188.4137931034484" type="curve" smooth="yes"/>
      <point x="683.471264367816" y="1374.0"/>
      <point x="577.4942528735633" y="1452.3908045977012"/>
      <point x="412.3448275862069" y="1452.3908045977012" type="curve" smooth="yes"/>
      <point x="312.41379310344826" y="1452.3908045977012"/>
      <point x="187.632183908046" y="1417.1954022988505"/>
      <point x="113.24137931034483" y="1396.3908045977012" type="curve"/>
      <point x="119.63218390804597" y="1265.83908045977" type="line"/>
      <point x="227.6551724137931" y="1312.2298850574714"/>
      <point x="345.632183908046" y="1337.4022988505747"/>
      <point x="383.2413793103448" y="1337.4022988505747" type="curve" smooth="yes"/>
      <point x="488.85057471264366" y="1337.4022988505747"/>
      <point x="566.919540229885" y="1308.5977011494253"/>
      <point x="560.1149425287356" y="1170.7816091954023" type="curve"/>
      <point x="316.85057471264366" y="1121.5632183908046" type="line" smooth="yes"/>
      <point x="217.26436781609195" y="1101.5632183908046"/>
      <point x="79.24137931034483" y="1042.390804597701"/>
      <point x="79.24137931034483" y="872.4137931034483" type="curve" smooth="yes"/>
      <point x="79.24137931034483" y="752.8045977011494"/>
      <point x="158.45977011494253" y="665.2183908045977"/>
    </contour>
    <contour>
      <point x="346.32183908045977" y="775.4252873563219" type="curve" smooth="yes"/>
      <point x="265.0344827586207" y="775.4252873563219"/>
      <point x="204.98850574712645" y="810.2528735632184"/>
      <point x="204.98850574712645" y="897.5402298850574" type="curve" smooth="yes"/>
      <point x="204.98850574712645" y="990.4367816091954"/>
      <point x="285.86206896551727" y="1024.4597701149426"/>
      <point x="368.3448275862069" y="1040.8735632183907" type="curve" smooth="yes"/>
      <point x="498.8735632183908" y="1068.0919540229886"/>
      <point x="532.5057471264367" y="1081.7011494252874"/>
      <point x="557.7241379310344" y="1094.896551724138" type="curve"/>
      <point x="556.919540229885" y="903.1494252873563" type="line"/>
      <point x="509.67816091954023" y="817.8620689655172"/>
      <point x="409.9770114942529" y="775.4252873563219"/>
    </contour>
  </outline>
</glyph>
<glyph name="logicalnot" format="2">
  <advance width="1136.421052631579"/>
  <unicode hex="00AC"/>
  <outline>
    <contour>
      <point x="854.6947368421053" y="118.50526315789473" type="curve"/>
      <point x="1020.1263157894737" y="118.50526315789473" type="line"/>
      <point x="1013.3894736842105" y="243.81052631578947"/>
      <point x="1012.8421052631579" y="362.5684210526316"/>
      <point x="1012.8421052631579" y="464.77894736842103" type="curve"/>
      <point x="1012.8421052631579" y="678.7368421052631" type="line"/>
      <point x="887.5368421052632" y="672.0"/>
      <point x="768.7789473684211" y="671.4526315789474"/>
      <point x="666.5684210526316" y="671.4526315789474" type="curve"/>
      <point x="469.85263157894735" y="671.4526315789474" type="line"/>
      <point x="367.6421052631579" y="671.4526315789474"/>
      <point x="248.8842105263158" y="672.0"/>
      <point x="123.57894736842105" y="678.7368421052631" type="curve"/>
      <point x="123.57894736842105" y="516.5894736842106" type="line"/>
      <point x="248.8842105263158" y="523.3263157894737"/>
      <point x="367.6421052631579" y="523.8736842105263"/>
      <point x="469.85263157894735" y="523.8736842105263" type="curve"/>
      <point x="666.5684210526316" y="523.8736842105263" type="line"/>
      <point x="759.4947368421052" y="523.8736842105263"/>
      <point x="868.421052631579" y="523.3263157894737"/>
      <point x="981.8947368421053" y="516.5894736842106" type="curve"/>
      <point x="861.978947368421" y="627.3684210526316" type="line"/>
      <point x="861.978947368421" y="464.77894736842103" type="line"/>
      <point x="861.978947368421" y="362.5684210526316"/>
      <point x="861.4315789473684" y="243.81052631578947"/>
    </contour>
  </outline>
</glyph>
<glyph name="micro" format="2">
  <advance width="1120.9894736842105"/>
  <unicode hex="00B5"/>
  <outline>
    <contour>
      <point x="134.04210526315788" y="-390.18947368421055" type="curve"/>
      <point x="330.2947368421053" y="-384.0" type="line"/>
      <point x="317.1789473684211" y="-237.2842105263158"/>
      <point x="313.3473684210527" y="-110.02105263157895"/>
      <point x="313.3473684210527" y="46.50526315789474" type="curve" smooth="yes"/>
      <point x="313.3473684210527" y="81.57894736842105" type="line"/>
      <point x="252.61052631578946" y="81.57894736842105" type="line"/>
      <point x="297.87368421052633" y="12.694736842105263"/>
      <point x="368.7578947368421" y="-21.83157894736842"/>
      <point x="475.2421052631579" y="-21.83157894736842" type="curve" smooth="yes"/>
      <point x="594.0842105263158" y="-21.83157894736842"/>
      <point x="732.2105263157895" y="87.38947368421053"/>
      <point x="802.021052631579" y="177.95789473684212" type="curve"/>
      <point x="820.042105263158" y="177.95789473684212" type="line"/>
      <point x="868.0210526315789" y="0.0" type="line"/>
      <point x="1030.9052631578948" y="0.0" type="line"/>
      <point x="991.4315789473684" y="114.7578947368421"/>
      <point x="968.3578947368421" y="213.70526315789473"/>
      <point x="968.3578947368421" y="303.0105263157895" type="curve"/>
      <point x="968.3578947368421" y="543.0947368421052" type="line"/>
      <point x="968.3578947368421" y="714.0421052631579"/>
      <point x="978.7368421052631" y="847.1157894736842"/>
      <point x="974.0" y="992.3789473684211" type="curve"/>
      <point x="790.1473684210526" y="992.3789473684211" type="line"/>
      <point x="799.4315789473684" y="845.6631578947369"/>
      <point x="803.2631578947369" y="715.4947368421052"/>
      <point x="803.2631578947369" y="559.5157894736842" type="curve"/>
      <point x="803.2631578947369" y="329.2" type="line"/>
      <point x="724.6105263157895" y="218.0421052631579"/>
      <point x="590.0" y="131.38947368421054"/>
      <point x="509.5368421052632" y="131.38947368421054" type="curve" smooth="yes"/>
      <point x="361.3052631578948" y="131.38947368421054"/>
      <point x="313.3473684210527" y="217.70526315789476"/>
      <point x="313.3473684210527" y="387.2631578947368" type="curve"/>
      <point x="313.3473684210527" y="559.5157894736842" type="line"/>
      <point x="313.3473684210527" y="715.4947368421052"/>
      <point x="322.63157894736844" y="851.8526315789474"/>
      <point x="320.0842105263158" y="998.5684210526316" type="curve"/>
      <point x="132.94736842105263" y="992.3789473684211" type="line"/>
      <point x="143.32631578947368" y="845.6631578947369"/>
      <point x="148.25263157894736" y="715.4947368421052"/>
      <point x="148.25263157894736" y="543.0947368421052" type="curve"/>
      <point x="148.25263157894736" y="53.62105263157895" type="line"/>
      <point x="148.25263157894736" y="-110.02105263157895"/>
      <point x="144.42105263157893" y="-243.47368421052633"/>
    </contour>
  </outline>
</glyph>
<glyph name="ordmasculine" format="2">
  <advance width="910.5684210526316"/>
  <unicode hex="00BA"/>
  <outline>
    <contour>
      <point x="457.8315789473684" y="663.978947368421" type="curve" smooth="yes"/>
      <point x="689.7052631578947" y="663.978947368421"/>
      <point x="834.2526315789473" y="838.8842105263158"/>
      <point x="834.2526315789473" y="1062.7157894736843" type="curve" smooth="yes"/>
      <point x="834.2526315789473" y="1282.9052631578948"/>
      <point x="697.3473684210526" y="1452.1894736842105"/>
      <point x="455.6421052631579" y="1452.1894736842105" type="curve" smooth="yes"/>
      <point x="220.4842105263158" y="1452.1894736842105"/>
      <point x="76.3157894736842" y="1287.2631578947369"/>
      <point x="76.3157894736842" y="1062.7157894736843" type="curve" smooth="yes"/>
      <point x="76.3157894736842" y="851.6210526315789"/>
      <point x="208.12631578947367" y="663.978947368421"/>
    </contour>
    <contour>
      <point x="457.2842105263158" y="778.1684210526316" type="curve"/>
      <point x="290.3368421052632" y="783.2631578947369"/>
      <point x="209.66315789473686" y="913.3473684210527"/>
      <point x="209.66315789473686" y="1062.7157894736843" type="curve" smooth="yes"/>
      <point x="209.66315789473686" y="1216.2526315789473"/>
      <point x="293.59999999999997" y="1332.9052631578948"/>
      <point x="457.2842105263158" y="1338.0" type="curve"/>
      <point x="612.2526315789473" y="1331.8105263157895"/>
      <point x="700.3578947368421" y="1225.5157894736842"/>
      <point x="700.3578947368421" y="1062.7157894736843" type="curve" smooth="yes"/>
      <point x="700.3578947368421" y="914.8000000000001"/>
      <point x="623.6842105263158" y="783.2631578947369"/>
    </contour>
  </outline>
</glyph>
<glyph name="AE" format="2">
  <advance width="1950.2528735632186"/>
  <unicode hex="00C6"/>
  <anchor x="1036.9885057471265" y="0.0" name="bottom"/>
  <anchor x="1036.9885057471265" y="1426.0" name="top"/>
  <outline>
    <contour>
      <point x="21.24137931034483" y="0.0" type="curve"/>
      <point x="242.73563218390805" y="0.0" type="line"/>
      <point x="322.02298850574715" y="168.04597701149424"/>
      <point x="414.11494252873564" y="350.5057471264368"/>
      <point x="501.7701149425287" y="513.7471264367816" type="curve"/>
      <point x="910.0459770114943" y="1275.5402298850574" type="line"/>
      <point x="949.6091954022988" y="1275.5402298850574" type="line"/>
      <point x="1074.1379310344828" y="1275.5402298850574" type="line"/>
      <point x="1089.6781609195402" y="1426.0" type="line"/>
      <point x="794.3218390804598" y="1426.0" type="line"/>
      <point x="729.0804597701149" y="1280.4137931034484"/>
      <point x="658.2298850574713" y="1145.5862068965516"/>
      <point x="567.0114942528736" y="976.4137931034483" type="curve"/>
      <point x="299.3103448275862" y="484.0" type="line"/>
      <point x="216.48275862068965" y="330.8045977011494"/>
      <point x="115.6551724137931" y="152.0"/>
    </contour>
    <contour>
      <point x="372.62068965517244" y="358.183908045977" type="line"/>
      <point x="1028.2298850574714" y="358.183908045977" type="line"/>
      <point x="1015.080459770115" y="500.6666666666667" type="line"/>
      <point x="388.1609195402299" y="500.6666666666667" type="line"/>
    </contour>
    <contour>
      <point x="934.0459770114943" y="0.0" type="curve"/>
      <point x="1140.735632183908" y="0.0" type="line"/>
      <point x="1140.735632183908" y="27.126436781609197" type="line"/>
      <point x="1128.7586206896551" y="185.54022988505747"/>
      <point x="1125.1724137931035" y="323.14942528735634"/>
      <point x="1125.1724137931035" y="498.3448275862069" type="curve"/>
      <point x="1125.1724137931035" y="923.6781609195402" type="line"/>
      <point x="1125.1724137931035" y="1101.2643678160919"/>
      <point x="1128.7586206896551" y="1240.0689655172414"/>
      <point x="1140.735632183908" y="1399.6781609195402" type="curve"/>
      <point x="1140.735632183908" y="1426.0" type="line"/>
      <point x="934.0459770114943" y="1426.0" type="line"/>
      <point x="944.0229885057471" y="1266.3908045977012"/>
      <point x="947.6091954022988" y="1127.5862068965516"/>
      <point x="947.6091954022988" y="950.0" type="curve"/>
      <point x="947.6091954022988" y="471.2183908045977" type="line"/>
      <point x="947.6091954022988" y="294.82758620689657"/>
      <point x="944.0229885057471" y="158.41379310344828"/>
    </contour>
    <contour>
      <point x="1102.4137931034484" y="0.0" type="line"/>
      <point x="1836.2068965517242" y="0.0" type="line"/>
      <point x="1836.2068965517242" y="171.60919540229884" type="line"/>
      <point x="1691.7701149425288" y="158.4367816091954"/>
      <point x="1538.528735632184" y="155.24137931034483"/>
      <point x="1364.4827586206898" y="155.24137931034483" type="curve"/>
      <point x="1102.4137931034484" y="155.24137931034483" type="line"/>
    </contour>
    <contour>
      <point x="1085.6781609195402" y="647.3793103448276" type="line"/>
      <point x="1361.7241379310346" y="647.3793103448276" type="line"/>
      <point x="1541.3563218390807" y="647.3793103448276"/>
      <point x="1662.5747126436784" y="646.183908045977"/>
      <point x="1794.5977011494253" y="640.5977011494252" type="curve"/>
      <point x="1794.5977011494253" y="808.6206896551724" type="line"/>
      <point x="1669.3793103448277" y="799.0344827586207"/>
      <point x="1547.3563218390807" y="797.8390804597701"/>
      <point x="1362.528735632184" y="797.8390804597701" type="curve"/>
      <point x="1085.6781609195402" y="797.8390804597701" type="line"/>
    </contour>
    <contour>
      <point x="1094.0459770114942" y="1270.7586206896551" type="line"/>
      <point x="1349.3103448275863" y="1270.7586206896551" type="line"/>
      <point x="1556.16091954023" y="1270.7586206896551"/>
      <point x="1699.793103448276" y="1266.367816091954"/>
      <point x="1833.4252873563219" y="1254.3908045977012" type="curve"/>
      <point x="1833.4252873563219" y="1426.0" type="line"/>
      <point x="1094.0459770114942" y="1426.0" type="line"/>
    </contour>
  </outline>
</glyph>
<glyph name="Oslash" format="2">
  <advance width="1633.621052631579"/>
  <unicode hex="00D8"/>
  <anchor x="816.3578947368421" y="0.0" name="bottom"/>
  <anchor x="816.3578947368421" y="714.0" name="center"/>
  <anchor x="1008.2526315789473" y="0.0" name="ogonek"/>
  <anchor x="816.3578947368421" y="1426.0" name="top"/>
  <anchor x="52.357894736842105" y="1426.0" name="topleft"/>
  <anchor x="1429.7684210526315" y="1426.0" name="topright"/>
  <outline>
    <contour>
      <point x="823.8105263157895" y="-21.83157894736842" type="curve" smooth="yes"/>
      <point x="1269.7052631578947" y="-21.83157894736842"/>
      <point x="1533.3263157894737" y="292.7157894736842"/>
      <point x="1533.3263157894737" y="714.9052631578948" type="curve" smooth="yes"/>
      <point x="1533.3263157894737" y="1124.0"/>
      <point x="1282.2526315789473" y="1452.1894736842105"/>
      <point x="817.6210526315789" y="1452.1894736842105" type="curve" smooth="yes"/>
      <point x="360.4421052631579" y="1452.1894736842105"/>
      <point x="100.29473684210527" y="1128.9052631578948"/>
      <point x="100.29473684210527" y="714.3578947368421" type="curve" smooth="yes"/>
      <point x="100.29473684210527" y="317.6421052631579"/>
      <point x="339.17894736842106" y="-21.83157894736842"/>
    </contour>
    <contour>
      <point x="819.2631578947369" y="134.4842105263158" type="curve"/>
      <point x="452.2526315789474" y="144.67368421052632"/>
      <point x="288.3578947368421" y="403.7894736842105"/>
      <point x="288.3578947368421" y="714.9052631578948" type="curve" smooth="yes"/>
      <point x="288.3578947368421" y="1026.2105263157894"/>
      <point x="459.7052631578947" y="1285.6842105263158"/>
      <point x="819.2631578947369" y="1295.8736842105263" type="curve"/>
      <point x="1167.0105263157895" y="1285.6842105263158"/>
      <point x="1345.2631578947369" y="1043.6421052631579"/>
      <point x="1345.2631578947369" y="714.9052631578948" type="curve" smooth="yes"/>
      <point x="1345.2631578947369" y="409.59999999999997"/>
      <point x="1185.7263157894736" y="144.67368421052632"/>
    </contour>
    <contour>
      <point x="269.53684210526313" y="-135.34736842105264" type="line"/>
      <point x="397.7052631578947" y="39.2"/>
      <point x="516.6105263157895" y="200.4842105263158"/>
      <point x="662.6105263157895" y="389.0315789473684" type="curve"/>
      <point x="1057.7052631578947" y="909.578947368421" type="line"/>
      <point x="1203.7052631578947" y="1099.578947368421"/>
      <point x="1324.2526315789473" y="1253.0315789473684"/>
      <point x="1466.6315789473683" y="1426.2947368421053" type="curve"/>
      <point x="1353.8947368421052" y="1511.3473684210526" type="line"/>
      <point x="1226.6315789473683" y="1330.6105263157895"/>
      <point x="1108.2736842105262" y="1172.6105263157895"/>
      <point x="960.2736842105263" y="979.1578947368421" type="curve"/>
      <point x="569.7263157894737" y="465.70526315789476" type="line"/>
      <point x="426.2736842105263" y="278.2526315789474"/>
      <point x="307.7263157894737" y="130.79999999999998"/>
      <point x="162.44210526315788" y="-45.01052631578948" type="curve"/>
    </contour>
  </outline>
</glyph>
<glyph name="ae" format="2">
  <advance width="1628.0689655172414"/>
  <unicode hex="00E6"/>
  <anchor x="801.6091954022988" y="0.0" name="bottom"/>
  <anchor x="801.6091954022988" y="992.7816091954023" name="top"/>
  <outline>
    <contour>
      <point x="1214.4827586206898" y="-21.586206896551722" type="curve" smooth="yes"/>
      <point x="1346.8275862068967" y="-21.586206896551722"/>
      <point x="1460.8275862068967" y="20.02298850574713"/>
      <point x="1539.218390804598" y="44.827586206896555" type="curve"/>
      <point x="1532.0229885057472" y="198.91954022988506" type="line"/>
      <point x="1426.4137931034484" y="152.89655172413796"/>
      <point x="1310.8505747126435" y="122.50574712643679"/>
      <point x="1230.0229885057472" y="122.50574712643679" type="curve" smooth="yes"/>
      <point x="979.0574712643678" y="122.50574712643679"/>
      <point x="869.4252873563219" y="266.2298850574713"/>
      <point x="869.4252873563219" y="498.0" type="curve"/>
      <point x="869.4252873563219" y="516.3448275862069" type="line"/>
      <point x="869.4252873563219" y="725.7241379310344"/>
      <point x="973.471264367816" y="873.448275862069"/>
      <point x="1155.3103448275863" y="880.6436781609195" type="curve"/>
      <point x="1301.8850574712644" y="874.6436781609195"/>
      <point x="1404.7816091954023" y="781.7931034482758"/>
      <point x="1404.7816091954023" y="593.5862068965517" type="curve" smooth="yes"/>
      <point x="1404.7816091954023" y="574.7816091954023"/>
      <point x="1404.7816091954023" y="555.9770114942529"/>
      <point x="1402.7816091954023" y="536.3678160919541" type="curve"/>
      <point x="1550.0229885057472" y="463.2413793103448" type="line"/>
      <point x="1556.0229885057472" y="502.4367816091954"/>
      <point x="1558.0229885057472" y="539.6321839080459"/>
      <point x="1558.0229885057472" y="589.2183908045977" type="curve" smooth="yes"/>
      <point x="1558.0229885057472" y="865.9540229885057"/>
      <point x="1404.0459770114944" y="1015.1724137931035"/>
      <point x="1153.3103448275863" y="1015.1724137931035" type="curve" smooth="yes"/>
      <point x="886.528735632184" y="1015.1724137931035"/>
      <point x="723.3563218390805" y="801.9770114942529"/>
      <point x="723.3563218390805" y="502.0" type="curve" smooth="yes"/>
      <point x="723.3563218390805" y="198.41379310344828"/>
      <point x="878.8965517241379" y="-21.586206896551722"/>
    </contour>
    <contour>
      <point x="429.1034482758621" y="115.72413793103449" type="curve" smooth="yes"/>
      <point x="329.7471264367816" y="115.72413793103449"/>
      <point x="251.26436781609195" y="158.98850574712645"/>
      <point x="251.26436781609195" y="273.9310344827586" type="curve" smooth="yes"/>
      <point x="251.26436781609195" y="384.8965517241379"/>
      <point x="332.64367816091954" y="440.5057471264368"/>
      <point x="446.78160919540227" y="461.3333333333333" type="curve" smooth="yes"/>
      <point x="634.5287356321838" y="494.9655172413793"/>
      <point x="681.7701149425287" y="509.7931034482759"/>
      <point x="713.7931034482758" y="527.7931034482758" type="curve"/>
      <point x="712.9885057471264" y="308.64367816091954" type="line"/>
      <point x="645.3333333333333" y="185.33333333333331"/>
      <point x="510.39080459770116" y="115.72413793103449"/>
    </contour>
    <contour>
      <point x="392.04597701149424" y="-20.39080459770115" type="curve" smooth="yes"/>
      <point x="566.0" y="-20.39080459770115"/>
      <point x="718.4597701149424" y="83.2183908045977"/>
      <point x="826.7816091954023" y="237.63218390804596" type="curve"/>
      <point x="815.5402298850574" y="503.58620689655174" type="line"/>
      <point x="849.9080459770115" y="668.0" type="line"/>
      <point x="849.9080459770115" y="911.9770114942529"/>
      <point x="717.9310344827586" y="1015.1724137931035"/>
      <point x="500.8045977011494" y="1015.1724137931035" type="curve" smooth="yes"/>
      <point x="376.06896551724134" y="1015.1724137931035"/>
      <point x="214.87356321839079" y="969.5632183908046"/>
      <point x="126.8735632183908" y="943.5632183908046" type="curve"/>
      <point x="135.26436781609195" y="783.1034482758621" type="line"/>
      <point x="277.7011494252873" y="838.7126436781609"/>
      <point x="428.45977011494256" y="872.2758620689655"/>
      <point x="482.8735632183908" y="872.2758620689655" type="curve" smooth="yes"/>
      <point x="610.551724137931" y="872.2758620689655"/>
      <point x="724.9885057471264" y="829.471264367816"/>
      <point x="717.3793103448276" y="632.3678160919541" type="curve"/>
      <point x="406.04597701149424" y="578.2988505747127" type="line" smooth="yes"/>
      <point x="254.8965517241379" y="552.6896551724138"/>
      <point x="82.8735632183908" y="483.51724137931035"/>
      <point x="82.8735632183908" y="267.14942528735634" type="curve" smooth="yes"/>
      <point x="82.8735632183908" y="87.2183908045977"/>
      <point x="203.632183908046" y="-20.39080459770115"/>
    </contour>
    <contour>
      <point x="771.2873563218391" y="463.2413793103448" type="line"/>
      <point x="1550.0229885057472" y="463.2413793103448" type="line"/>
      <point x="1550.0229885057472" y="552.735632183908" type="line"/>
      <point x="1448.6436781609195" y="590.183908045977" type="line"/>
      <point x="771.2873563218391" y="584.2068965517242" type="line"/>
    </contour>
  </outline>
</glyph>
<glyph name="eth" format="2">
  <advance width="1181.9770114942528"/>
  <unicode hex="00F0"/>
  <outline>
    <contour>
      <point x="595.5862068965517" y="-21.586206896551722" type="curve" smooth="yes"/>
      <point x="922.6666666666666" y="-21.586206896551722"/>
      <point x="1081.8850574712644" y="220.39080459770116"/>
      <point x="1081.8850574712644" y="604.0" type="curve" smooth="yes"/>
      <point x="1081.8850574712644" y="896.8045977011494"/>
      <point x="975.9080459770115" y="1115.9770114942528"/>
      <point x="803.5402298850574" y="1295.9770114942528" type="curve"/>
      <point x="727.9540229885057" y="1375.9770114942528"/>
      <point x="642.7586206896552" y="1446.367816091954"/>
      <point x="559.1494252873564" y="1509.5632183908044" type="curve"/>
      <point x="395.51724137931035" y="1438.873563218391" type="line"/>
      <point x="507.0574712643678" y="1375.7011494252874"/>
      <point x="593.8390804597701" y="1310.1149425287356"/>
      <point x="663.4252873563219" y="1235.3333333333333" type="curve"/>
      <point x="826.2758620689655" y="1063.7011494252874"/>
      <point x="912.2988505747127" y="861.2413793103449"/>
      <point x="912.2988505747127" y="617.5402298850574" type="curve" smooth="yes"/>
      <point x="912.2988505747127" y="301.42528735632186"/>
      <point x="810.5977011494252" y="128.50574712643677"/>
      <point x="594.3908045977012" y="121.3103448275862" type="curve"/>
      <point x="376.57471264367814" y="128.50574712643677"/>
      <point x="268.48275862068965" y="298.6666666666667"/>
      <point x="268.48275862068965" y="479.632183908046" type="curve" smooth="yes"/>
      <point x="268.48275862068965" y="658.5977011494252"/>
      <point x="372.57471264367814" y="815.5402298850574"/>
      <point x="588.7816091954023" y="821.5402298850574" type="curve"/>
      <point x="660.8505747126437" y="820.3448275862069"/>
      <point x="796.9655172413793" y="794.3218390804598"/>
      <point x="926.2758620689655" y="650.9885057471264" type="curve"/>
      <point x="951.3793103448276" y="709.3103448275862"/>
      <point x="941.816091954023" y="787.5862068965517"/>
      <point x="911.9310344827586" y="850.7126436781609" type="curve"/>
      <point x="869.1264367816092" y="837.9540229885057" type="line"/>
      <point x="767.448275862069" y="922.0229885057471"/>
      <point x="634.6206896551724" y="964.4367816091954"/>
      <point x="532.5977011494252" y="964.4367816091954" type="curve" smooth="yes"/>
      <point x="273.7241379310345" y="964.4367816091954"/>
      <point x="100.0919540229885" y="757.6091954022988"/>
      <point x="100.0919540229885" y="485.60919540229884" type="curve" smooth="yes"/>
      <point x="100.0919540229885" y="218.41379310344828"/>
      <point x="272.5057471264368" y="-21.586206896551722"/>
    </contour>
    <contour>
      <point x="348.48275862068965" y="1085.0344827586207" type="line"/>
      <point x="462.8735632183908" y="1129.4022988505747"/>
      <point x="571.6551724137931" y="1162.9885057471265"/>
      <point x="662.8275862068965" y="1191.7701149425288" type="curve"/>
      <point x="755.2183908045977" y="1220.1609195402298" type="line"/>
      <point x="846.3908045977012" y="1248.942528735632"/>
      <point x="957.5632183908046" y="1280.528735632184"/>
      <point x="1076.3448275862067" y="1311.7241379310346" type="curve"/>
      <point x="1036.4367816091956" y="1438.2758620689654" type="line"/>
      <point x="920.0459770114943" y="1395.1034482758619"/>
      <point x="811.264367816092" y="1360.3218390804598"/>
      <point x="720.0919540229885" y="1332.7356321839081" type="curve"/>
      <point x="626.5057471264367" y="1303.1494252873563" type="line"/>
      <point x="535.3333333333334" y="1274.367816091954"/>
      <point x="424.55172413793105" y="1240.7816091954023"/>
      <point x="305.37931034482756" y="1212.7816091954023" type="curve"/>
    </contour>
  </outline>
</glyph>
<glyph name="divide" format="2">
  <advance width="1136.421052631579"/>
  <unicode hex="00F7"/>
  <outline>
    <contour>
      <point x="123.57894736842105" y="516.5894736842106" type="line"/>
      <point x="248.8842105263158" y="523.3263157894737"/>
      <point x="367.6421052631579" y="523.8736842105263"/>
      <point x="469.85263157894735" y="523.8736842105263" type="curve"/>
      <point x="666.5684210526316" y="523.8736842105263" type="line"/>
      <point x="768.7789473684211" y="523.8736842105263"/>
      <point x="887.5368421052632" y="523.3263157894737"/>
      <point x="1012.8421052631579" y="516.5894736842106" type="curve"/>
      <point x="1012.8421052631579" y="678.7368421052631" type="line"/>
      <point x="887.5368421052632" y="672.0"/>
      <point x="768.7789473684211" y="671.4526315789474"/>
      <point x="666.5684210526316" y="671.4526315789474" type="curve"/>
      <point x="469.85263157894735" y="671.4526315789474" type="line"/>
      <point x="367.6421052631579" y="671.4526315789474"/>
      <point x="248.8842105263158" y="672.0"/>
      <point x="123.57894736842105" y="678.7368421052631" type="curve"/>
    </contour>
    <contour>
      <point x="565.9368421052632" y="112.92631578947368" type="curve" smooth="yes"/>
      <point x="641.9157894736842" y="112.92631578947368"/>
      <point x="687.9578947368421" y="152.96842105263158"/>
      <point x="687.9578947368421" y="241.76842105263157" type="curve" smooth="yes"/>
      <point x="687.9578947368421" y="314.2736842105263"/>
      <point x="641.9157894736842" y="351.7684210526316"/>
      <point x="566.4842105263158" y="351.7684210526316" type="curve" smooth="yes"/>
      <point x="491.6842105263158" y="351.7684210526316"/>
      <point x="444.46315789473687" y="314.2736842105263"/>
      <point x="444.46315789473687" y="241.76842105263157" type="curve" smooth="yes"/>
      <point x="444.46315789473687" y="152.96842105263158"/>
      <point x="491.6842105263158" y="112.92631578947368"/>
    </contour>
    <contour>
      <point x="565.9368421052632" y="840.9263157894737" type="curve" smooth="yes"/>
      <point x="641.9157894736842" y="840.9263157894737"/>
      <point x="687.9578947368421" y="880.9684210526316"/>
      <point x="687.9578947368421" y="969.7684210526315" type="curve" smooth="yes"/>
      <point x="687.9578947368421" y="1042.2736842105262"/>
      <point x="641.9157894736842" y="1079.7684210526315"/>
      <point x="566.4842105263158" y="1079.7684210526315" type="curve" smooth="yes"/>
      <point x="491.6842105263158" y="1079.7684210526315"/>
      <point x="444.46315789473687" y="1042.2736842105262"/>
      <point x="444.46315789473687" y="969.7684210526315" type="curve" smooth="yes"/>
      <point x="444.46315789473687" y="880.9684210526316"/>
      <point x="491.6842105263158" y="840.9263157894737"/>
    </contour>
  </outline>
</glyph>
